Lora-Italic.ufo
<glyph name="numbersign" format="2">
  <advance width="808"/>
  <unicode hex="0023"/>
  <outline>
    <contour>
      <point x="661" y="700" type="line"/>
      <point x="595" y="700" type="line"/>
      <point x="554" y="529" type="line"/>
      <point x="342" y="529" type="line"/>
      <point x="381" y="700" type="line"/>
      <point x="315" y="700" type="line"/>
      <point x="274" y="529" type="line"/>
      <point x="108" y="529" type="line"/>
      <point x="92" y="469" type="line"/>
      <point x="260" y="469" type="line"/>
      <point x="206" y="238" type="line"/>
      <point x="42" y="238" type="line"/>
      <point x="26" y="178" type="line"/>
      <point x="192" y="178" type="line"/>
      <point x="150" y="0" type="line"/>
      <point x="222" y="0" type="line"/>
      <point x="262" y="178" type="line"/>
      <point x="472" y="178" type="line"/>
      <point x="430" y="0" type="line"/>
      <point x="502" y="0" type="line"/>
      <point x="542" y="178" type="line"/>
      <point x="707" y="178" type="line"/>
      <point x="723" y="238" type="line"/>
      <point x="556" y="238" type="line"/>
      <point x="608" y="469" type="line"/>
      <point x="774" y="469" type="line"/>
      <point x="789" y="528" type="line"/>
      <point x="789" y="529" type="line"/>
      <point x="622" y="529" type="line"/>
    </contour>
    <contour>
      <point x="540" y="469" type="line"/>
      <point x="486" y="238" type="line"/>
      <point x="275" y="238" type="line"/>
      <point x="328" y="469" type="line"/>
    </contour>
  </outline>
</glyph>
<glyph name="percent" format="2">
  <advance width="873"/>
  <unicode hex="0025"/>
  <outline>
    <contour>
      <point x="153" y="-16" type="line"/>
      <point x="753" y="674" type="line"/>
      <point x="709" y="716" type="line"/>
      <point x="114" y="22" type="line"/>
    </contour>
    <contour>
      <point x="222" y="335" type="curve" smooth="yes"/>
      <point x="324" y="335"/>
      <point x="411" y="429"/>
      <point x="416" y="532" type="curve" smooth="yes"/>
      <point x="421" y="624"/>
      <point x="366" y="719"/>
      <point x="242" y="716" type="curve" smooth="yes"/>
      <point x="125" y="714"/>
      <point x="56" y="616"/>
      <point x="51" y="522" type="curve" smooth="yes"/>
      <point x="46" y="426"/>
      <point x="103" y="335"/>
    </contour>
    <contour>
      <point x="227" y="373" type="curve" smooth="yes"/>
      <point x="148" y="373"/>
      <point x="133" y="473"/>
      <point x="138" y="537" type="curve" smooth="yes"/>
      <point x="140" y="588"/>
      <point x="166" y="679"/>
      <point x="241" y="679" type="curve" smooth="yes"/>
      <point x="316" y="679"/>
      <point x="333" y="581"/>
      <point x="329" y="514" type="curve" smooth="yes"/>
      <point x="326" y="452"/>
      <point x="300" y="373"/>
    </contour>
    <contour>
      <point x="637" y="-16" type="curve" smooth="yes"/>
      <point x="739" y="-16"/>
      <point x="826" y="77"/>
      <point x="831" y="180" type="curve" smooth="yes"/>
      <point x="835" y="272"/>
      <point x="781" y="367"/>
      <point x="657" y="365" type="curve" smooth="yes"/>
      <point x="540" y="363"/>
      <point x="471" y="264"/>
      <point x="466" y="171" type="curve" smooth="yes"/>
      <point x="461" y="75"/>
      <point x="518" y="-16"/>
    </contour>
    <contour>
      <point x="642" y="21" type="curve" smooth="yes"/>
      <point x="563" y="21"/>
      <point x="549" y="121"/>
      <point x="553" y="185" type="curve" smooth="yes"/>
      <point x="556" y="235"/>
      <point x="581" y="327"/>
      <point x="656" y="327" type="curve" smooth="yes"/>
      <point x="731" y="327"/>
      <point x="748" y="229"/>
      <point x="744" y="162" type="curve" smooth="yes"/>
      <point x="741" y="100"/>
      <point x="715" y="21"/>
    </contour>
  </outline>
</glyph>
<glyph name="ampersand" format="2">
  <advance width="683"/>
  <unicode hex="0026"/>
  <outline>
    <contour>
      <point x="286" y="-16" type="curve" smooth="yes"/>
      <point x="501" y="-16"/>
      <point x="562" y="138"/>
      <point x="560" y="245" type="curve"/>
      <point x="639" y="252"/>
      <point x="659" y="283"/>
      <point x="691" y="332" type="curve"/>
      <point x="669" y="349" type="line"/>
      <point x="626" y="308"/>
      <point x="585" y="307"/>
      <point x="532" y="307" type="curve" smooth="yes"/>
      <point x="447" y="307"/>
      <point x="406" y="295"/>
      <point x="361" y="228" type="curve"/>
      <point x="381" y="208" type="line"/>
      <point x="434" y="249"/>
      <point x="465" y="243"/>
      <point x="517" y="243" type="curve"/>
      <point x="517" y="130"/>
      <point x="454" y="31"/>
      <point x="299" y="31" type="curve" smooth="yes"/>
      <point x="221" y="31"/>
      <point x="123" y="85"/>
      <point x="129" y="205" type="curve" smooth="yes"/>
      <point x="132" y="259"/>
      <point x="171" y="359"/>
      <point x="298" y="359" type="curve" smooth="yes"/>
      <point x="336" y="358" type="line"/>
      <point x="338" y="402" type="line"/>
      <point x="326" y="401"/>
      <point x="326" y="401"/>
      <point x="298" y="401" type="curve" smooth="yes"/>
      <point x="186" y="401"/>
      <point x="171" y="497"/>
      <point x="174" y="544" type="curve"/>
      <point x="178" y="617"/>
      <point x="226" y="681"/>
      <point x="310" y="681" type="curve" smooth="yes"/>
      <point x="361" y="681"/>
      <point x="399" y="655"/>
      <point x="404" y="627" type="curve"/>
      <point x="398" y="617"/>
      <point x="395" y="605"/>
      <point x="396" y="594" type="curve" smooth="yes"/>
      <point x="396" y="571"/>
      <point x="417" y="557"/>
      <point x="438" y="558" type="curve" smooth="yes"/>
      <point x="465" y="559"/>
      <point x="479" y="581"/>
      <point x="479" y="605" type="curve" smooth="yes"/>
      <point x="479" y="662"/>
      <point x="414" y="716"/>
      <point x="307" y="716" type="curve" smooth="yes"/>
      <point x="187" y="716"/>
      <point x="94" y="648"/>
      <point x="86" y="536" type="curve"/>
      <point x="81" y="467"/>
      <point x="111" y="409"/>
      <point x="223" y="385" type="curve"/>
      <point x="102" y="369"/>
      <point x="39" y="278"/>
      <point x="34" y="185" type="curve" smooth="yes"/>
      <point x="27" y="49"/>
      <point x="140" y="-16"/>
    </contour>
  </outline>
</glyph>
<glyph name="quotesingle" format="2">
  <advance width="199"/>
  <unicode hex="0027"/>
  <outline>
    <contour>
      <point x="168" y="716" type="line"/>
      <point x="84" y="716" type="line"/>
      <point x="79" y="491" type="line"/>
      <point x="146" y="491" type="line"/>
    </contour>
  </outline>
</glyph>
<glyph name="plus" format="2">
  <advance width="530"/>
  <unicode hex="002B"/>
  <outline>
    <contour>
      <point x="49" y="390" type="line"/>
      <point x="46" y="340" type="line"/>
      <point x="492" y="340" type="line"/>
      <point x="495" y="390" type="line"/>
    </contour>
    <contour>
      <point x="307" y="583" type="line"/>
      <point x="257" y="583" type="line"/>
      <point x="233" y="137" type="line"/>
      <point x="283" y="137" type="line"/>
    </contour>
  </outline>
</glyph>
<glyph name="comma" format="2">
  <advance width="237"/>
  <unicode hex="002C"/>
  <outline>
    <contour>
      <point x="99" y="98" type="curve" smooth="yes"/>
      <point x="68" y="98"/>
      <point x="43" y="78"/>
      <point x="43" y="42" type="curve" smooth="yes"/>
      <point x="43" y="18"/>
      <point x="62" y="-4"/>
      <point x="87" y="-4" type="curve" smooth="yes"/>
      <point x="97" y="-4"/>
      <point x="105" y="-2"/>
      <point x="112" y="0" type="curve"/>
      <point x="112" y="-53"/>
      <point x="90" y="-119"/>
      <point x="56" y="-159" type="curve"/>
      <point x="81" y="-179" type="line"/>
      <point x="136" y="-117"/>
      <point x="163" y="-30"/>
      <point x="163" y="20" type="curve" smooth="yes"/>
      <point x="163" y="65"/>
      <point x="139" y="98"/>
    </contour>
  </outline>
</glyph>
<glyph name="slash" format="2">
  <advance width="654"/>
  <unicode hex="002F"/>
  <outline>
    <contour>
      <point x="607" y="760" type="line"/>
      <point x="-18" y="-238" type="line"/>
      <point x="29" y="-271" type="line"/>
      <point x="662" y="723" type="line"/>
    </contour>
  </outline>
</glyph>
<glyph name="two" format="2">
  <advance width="525"/>
  <unicode hex="0032"/>
  <outline>
    <contour>
      <point x="277" y="716" type="curve" smooth="yes"/>
      <point x="139" y="716"/>
      <point x="60" y="630"/>
      <point x="60" y="566" type="curve" smooth="yes"/>
      <point x="60" y="536"/>
      <point x="80" y="516"/>
      <point x="107" y="516" type="curve" smooth="yes"/>
      <point x="136" y="516"/>
      <point x="154" y="539"/>
      <point x="154" y="563" type="curve" smooth="yes"/>
      <point x="154" y="576"/>
      <point x="151" y="593"/>
      <point x="139" y="606" type="curve"/>
      <point x="156" y="646"/>
      <point x="204" y="677"/>
      <point x="259" y="677" type="curve" smooth="yes"/>
      <point x="354" y="677"/>
      <point x="381" y="604"/>
      <point x="377" y="522" type="curve" smooth="yes"/>
      <point x="374" y="457"/>
      <point x="317" y="375"/>
      <point x="240" y="305" type="curve" smooth="yes"/>
      <point x="134" y="211"/>
      <point x="34" y="141"/>
      <point x="27" y="0" type="curve"/>
      <point x="459" y="0" type="line"/>
      <point x="473" y="138" type="line"/>
      <point x="442" y="138" type="line"/>
      <point x="438" y="60"/>
      <point x="369" y="66"/>
      <point x="271" y="69" type="curve" smooth="yes"/>
      <point x="97" y="74" type="line"/>
      <point x="111" y="132"/>
      <point x="173" y="194"/>
      <point x="268" y="266" type="curve" smooth="yes"/>
      <point x="417" y="381"/>
      <point x="470" y="467"/>
      <point x="474" y="535" type="curve" smooth="yes"/>
      <point x="481" y="670"/>
      <point x="383" y="716"/>
    </contour>
  </outline>
</glyph>
<glyph name="six" format="2">
  <advance width="554"/>
  <unicode hex="0036"/>
  <outline>
    <contour>
      <point x="335" y="716" type="curve" smooth="yes"/>
      <point x="107" y="712"/>
      <point x="63" y="449"/>
      <point x="55" y="330" type="curve" smooth="yes"/>
      <point x="41" y="118"/>
      <point x="95" y="-16"/>
      <point x="265" y="-16" type="curve" smooth="yes"/>
      <point x="399" y="-16"/>
      <point x="498" y="88"/>
      <point x="504" y="213" type="curve"/>
      <point x="510" y="314"/>
      <point x="470" y="437"/>
      <point x="310" y="437" type="curve" smooth="yes"/>
      <point x="235" y="437"/>
      <point x="179" y="398"/>
      <point x="144" y="354" type="curve"/>
      <point x="152" y="449"/>
      <point x="183" y="675"/>
      <point x="335" y="678" type="curve" smooth="yes"/>
      <point x="389" y="680"/>
      <point x="420" y="648"/>
      <point x="426" y="625" type="curve"/>
      <point x="417" y="614"/>
      <point x="413" y="598"/>
      <point x="413" y="587" type="curve" smooth="yes"/>
      <point x="413" y="564"/>
      <point x="429" y="544"/>
      <point x="457" y="544" type="curve" smooth="yes"/>
      <point x="482" y="544"/>
      <point x="501" y="563"/>
      <point x="503" y="591" type="curve" smooth="yes"/>
      <point x="507" y="642"/>
      <point x="454" y="718"/>
    </contour>
    <contour>
      <point x="292" y="393" type="curve" smooth="yes"/>
      <point x="404" y="393"/>
      <point x="414" y="266"/>
      <point x="410" y="191" type="curve"/>
      <point x="406" y="103"/>
      <point x="360" y="23"/>
      <point x="266" y="23" type="curve" smooth="yes"/>
      <point x="162" y="23"/>
      <point x="137" y="155"/>
      <point x="139" y="281" type="curve"/>
      <point x="161" y="339"/>
      <point x="229" y="393"/>
    </contour>
  </outline>
</glyph>
<glyph name="seven" format="2">
  <advance width="452"/>
  <unicode hex="0037"/>
  <outline>
    <contour>
      <point x="176" y="-16" type="curve" smooth="yes"/>
      <point x="208" y="-18"/>
      <point x="223" y="13"/>
      <point x="233" y="46" type="curve" smooth="yes"/>
      <point x="305" y="281"/>
      <point x="347" y="435"/>
      <point x="455" y="634" type="curve"/>
      <point x="458" y="700" type="line"/>
      <point x="39" y="700" type="line"/>
      <point x="32" y="558" type="line"/>
      <point x="56" y="558" type="line"/>
      <point x="59" y="613"/>
      <point x="91" y="631"/>
      <point x="145" y="632" type="curve" smooth="yes"/>
      <point x="409" y="633" type="line"/>
      <point x="338" y="495"/>
      <point x="264" y="326"/>
      <point x="221" y="232" type="curve" smooth="yes"/>
      <point x="191" y="166"/>
      <point x="144" y="72"/>
      <point x="142" y="29" type="curve" smooth="yes"/>
      <point x="141" y="5"/>
      <point x="150" y="-14"/>
    </contour>
  </outline>
</glyph>
<glyph name="eight" format="2">
  <advance width="564"/>
  <unicode hex="0038"/>
  <outline>
    <contour>
      <point x="271" y="-16" type="curve" smooth="yes"/>
      <point x="389" y="-16"/>
      <point x="496" y="41"/>
      <point x="502" y="167" type="curve" smooth="yes"/>
      <point x="506" y="254"/>
      <point x="436" y="327"/>
      <point x="351" y="378" type="curve"/>
      <point x="423" y="415"/>
      <point x="490" y="482"/>
      <point x="494" y="557" type="curve" smooth="yes"/>
      <point x="499" y="661"/>
      <point x="405" y="716"/>
      <point x="304" y="716" type="curve" smooth="yes"/>
      <point x="203" y="716"/>
      <point x="93" y="660"/>
      <point x="86" y="534" type="curve" smooth="yes"/>
      <point x="83" y="476"/>
      <point x="127" y="415"/>
      <point x="216" y="361" type="curve"/>
      <point x="133" y="312"/>
      <point x="62" y="239"/>
      <point x="57" y="152" type="curve"/>
      <point x="51" y="26"/>
      <point x="158" y="-16"/>
    </contour>
    <contour>
      <point x="275" y="24" type="curve" smooth="yes"/>
      <point x="185" y="24"/>
      <point x="135" y="75"/>
      <point x="140" y="166" type="curve" smooth="yes"/>
      <point x="143" y="216"/>
      <point x="171" y="289"/>
      <point x="250" y="342" type="curve"/>
      <point x="363" y="267"/>
      <point x="418" y="248"/>
      <point x="410" y="148" type="curve" smooth="yes"/>
      <point x="404" y="76"/>
      <point x="351" y="24"/>
    </contour>
    <contour>
      <point x="315" y="397" type="curve"/>
      <point x="217" y="438"/>
      <point x="170" y="493"/>
      <point x="174" y="556" type="curve" smooth="yes"/>
      <point x="177" y="618"/>
      <point x="225" y="677"/>
      <point x="304" y="677" type="curve" smooth="yes"/>
      <point x="375" y="677"/>
      <point x="423" y="631"/>
      <point x="418" y="546" type="curve" smooth="yes"/>
      <point x="416" y="500"/>
      <point x="379" y="439"/>
    </contour>
  </outline>
</glyph>
<glyph name="nine" format="2">
  <advance width="552"/>
  <unicode hex="0039"/>
  <outline>
    <contour>
      <point x="292" y="716" type="curve"/>
      <point x="148" y="719"/>
      <point x="65" y="613"/>
      <point x="58" y="488" type="curve"/>
      <point x="53" y="387"/>
      <point x="87" y="264"/>
      <point x="247" y="264" type="curve" smooth="yes"/>
      <point x="325" y="264"/>
      <point x="381" y="304"/>
      <point x="416" y="348" type="curve"/>
      <point x="411" y="236"/>
      <point x="381" y="22"/>
      <point x="232" y="22" type="curve" smooth="yes"/>
      <point x="166" y="22"/>
      <point x="144" y="57"/>
      <point x="136" y="83" type="curve"/>
      <point x="147" y="92"/>
      <point x="153" y="111"/>
      <point x="153" y="123" type="curve" smooth="yes"/>
      <point x="153" y="145"/>
      <point x="137" y="166"/>
      <point x="110" y="166" type="curve" smooth="yes"/>
      <point x="84" y="166"/>
      <point x="64" y="147"/>
      <point x="62" y="119" type="curve" smooth="yes"/>
      <point x="57" y="56"/>
      <point x="111" y="-16"/>
      <point x="233" y="-16" type="curve" smooth="yes"/>
      <point x="457" y="-16"/>
      <point x="497" y="216"/>
      <point x="503" y="362" type="curve" smooth="yes"/>
      <point x="511" y="553"/>
      <point x="469" y="714"/>
    </contour>
    <contour>
      <point x="283" y="678" type="curve" smooth="yes"/>
      <point x="392" y="678"/>
      <point x="416" y="549"/>
      <point x="417" y="416" type="curve"/>
      <point x="395" y="359"/>
      <point x="331" y="309"/>
      <point x="270" y="309" type="curve" smooth="yes"/>
      <point x="158" y="309"/>
      <point x="145" y="435"/>
      <point x="149" y="510" type="curve" smooth="yes"/>
      <point x="153" y="598"/>
      <point x="197" y="678"/>
    </contour>
  </outline>
</glyph>
<glyph name="A" format="2">
  <advance width="631"/>
  <unicode hex="0041"/>
  <anchor x="282" y="0" name="bottom"/>
  <anchor x="555" y="0" name="ogonek"/>
  <anchor x="322" y="702" name="top"/>
  <outline>
    <contour>
      <point x="341" y="719" type="line"/>
      <point x="319" y="719" type="line"/>
      <point x="93" y="158" type="line" smooth="yes"/>
      <point x="63" y="83"/>
      <point x="37" y="34"/>
      <point x="-13" y="33" type="curve"/>
      <point x="-14" y="0" type="line"/>
      <point x="169" y="0" type="line"/>
      <point x="171" y="44" type="line"/>
      <point x="96" y="40" type="line"/>
      <point x="108" y="62"/>
      <point x="115" y="77"/>
      <point x="127" y="109" type="curve"/>
      <point x="167" y="216" type="line"/>
      <point x="423" y="222" type="line"/>
      <point x="452" y="128" type="line" smooth="yes"/>
      <point x="463" y="91"/>
      <point x="475" y="35"/>
      <point x="400" y="33" type="curve"/>
      <point x="399" y="0" type="line"/>
      <point x="616" y="0" type="line"/>
      <point x="618" y="44" type="line"/>
      <point x="553" y="40" type="line"/>
      <point x="556" y="70"/>
      <point x="542" y="122"/>
      <point x="532" y="150" type="curve" smooth="yes"/>
    </contour>
    <contour>
      <point x="307" y="580" type="curve"/>
      <point x="321" y="539"/>
      <point x="334" y="499"/>
      <point x="347" y="459" type="curve" smooth="yes"/>
      <point x="412" y="259" type="line"/>
      <point x="183" y="259" type="line"/>
      <point x="263" y="468" type="line"/>
      <point x="278" y="505"/>
      <point x="292" y="543"/>
    </contour>
  </outline>
</glyph>
<glyph name="C" format="2">
  <advance width="686"/>
  <unicode hex="0043"/>
  <anchor x="389" y="0" name="bottom"/>
  <anchor x="429" y="702" name="top"/>
  <outline>
    <contour>
      <point x="412" y="716" type="curve" smooth="yes"/>
      <point x="179" y="716"/>
      <point x="60" y="527"/>
      <point x="50" y="339" type="curve"/>
      <point x="40" y="140"/>
      <point x="165" y="-16"/>
      <point x="366" y="-16" type="curve" smooth="yes"/>
      <point x="447" y="-16"/>
      <point x="564" y="11"/>
      <point x="656" y="127" type="curve"/>
      <point x="631" y="148" type="line"/>
      <point x="573" y="74"/>
      <point x="481" y="36"/>
      <point x="395" y="36" type="curve" smooth="yes"/>
      <point x="247" y="36"/>
      <point x="134" y="165"/>
      <point x="144" y="354" type="curve"/>
      <point x="154" y="550"/>
      <point x="274" y="675"/>
      <point x="416" y="675" type="curve" smooth="yes"/>
      <point x="532" y="675"/>
      <point x="607" y="604"/>
      <point x="614" y="479" type="curve"/>
      <point x="650" y="479" type="line"/>
      <point x="662" y="710" type="line"/>
      <point x="608" y="710" type="line"/>
      <point x="610" y="656" type="line"/>
      <point x="609" y="656" type="line"/>
      <point x="550" y="696"/>
      <point x="487" y="716"/>
    </contour>
  </outline>
</glyph>
<glyph name="F" format="2">
  <advance width="541"/>
  <unicode hex="0046"/>
  <outline>
    <contour>
      <point x="538" y="700" type="line"/>
      <point x="78" y="700" type="line"/>
      <point x="76" y="656" type="line"/>
      <point x="100" y="657"/>
      <point x="125" y="659"/>
      <point x="149" y="660" type="curve"/>
      <point x="146" y="640"/>
      <point x="143" y="615"/>
      <point x="142" y="588" type="curve" smooth="yes"/>
      <point x="118" y="156" type="line" smooth="yes"/>
      <point x="115" y="85"/>
      <point x="118" y="36"/>
      <point x="43" y="33" type="curve"/>
      <point x="41" y="0" type="line"/>
      <point x="292" y="0" type="line"/>
      <point x="294" y="44" type="line"/>
      <point x="260" y="43"/>
      <point x="226" y="41"/>
      <point x="192" y="40" type="curve"/>
      <point x="195" y="57"/>
      <point x="198" y="83"/>
      <point x="199" y="119" type="curve" smooth="yes"/>
      <point x="210" y="328" type="line"/>
      <point x="236" y="330"/>
      <point x="262" y="331"/>
      <point x="288" y="331" type="curve" smooth="yes"/>
      <point x="359" y="331"/>
      <point x="388" y="325"/>
      <point x="384" y="243" type="curve"/>
      <point x="417" y="243" type="line"/>
      <point x="428" y="462" type="line"/>
      <point x="395" y="462" type="line"/>
      <point x="391" y="380"/>
      <point x="361" y="369"/>
      <point x="290" y="368" type="curve" smooth="yes"/>
      <point x="212" y="368" type="line"/>
      <point x="222" y="552" type="line" smooth="yes"/>
      <point x="225" y="622"/>
      <point x="229" y="661"/>
      <point x="297" y="663" type="curve" smooth="yes"/>
      <point x="370" y="665" type="line" smooth="yes"/>
      <point x="445" y="667"/>
      <point x="507" y="643"/>
      <point x="501" y="525" type="curve"/>
      <point x="534" y="525" type="line"/>
    </contour>
  </outline>
</glyph>
<glyph name="K" format="2">
  <advance width="667"/>
  <unicode hex="004B"/>
  <anchor x="320" y="0" name="bottom"/>
  <anchor x="368" y="702" name="top"/>
  <outline>
    <contour>
      <point x="41" y="0" type="line"/>
      <point x="262" y="0" type="line"/>
      <point x="264" y="44" type="line"/>
      <point x="240" y="43"/>
      <point x="216" y="41"/>
      <point x="192" y="40" type="curve"/>
      <point x="195" y="57"/>
      <point x="197" y="83"/>
      <point x="199" y="119" type="curve" smooth="yes"/>
      <point x="211" y="340" type="line"/>
      <point x="229" y="340"/>
      <point x="246" y="341"/>
      <point x="264" y="341" type="curve"/>
      <point x="287" y="326"/>
      <point x="313" y="293"/>
      <point x="335" y="260" type="curve" smooth="yes"/>
      <point x="446" y="98" type="line"/>
      <point x="483" y="47"/>
      <point x="522" y="0"/>
      <point x="542" y="0" type="curve" smooth="yes"/>
      <point x="660" y="0" type="line"/>
      <point x="662" y="33" type="line"/>
      <point x="619" y="33"/>
      <point x="591" y="41"/>
      <point x="521" y="142" type="curve"/>
      <point x="416" y="291" type="line" smooth="yes"/>
      <point x="394" y="322"/>
      <point x="375" y="353"/>
      <point x="338" y="376" type="curve"/>
      <point x="444" y="532" type="line" smooth="yes"/>
      <point x="518" y="641"/>
      <point x="569" y="660"/>
      <point x="653" y="667" type="curve"/>
      <point x="655" y="700" type="line"/>
      <point x="440" y="700" type="line"/>
      <point x="438" y="659" type="line"/>
      <point x="459" y="660"/>
      <point x="480" y="660"/>
      <point x="501" y="661" type="curve"/>
      <point x="469" y="638"/>
      <point x="442" y="604"/>
      <point x="424" y="577" type="curve" smooth="yes"/>
      <point x="291" y="380" type="line"/>
      <point x="213" y="380" type="line"/>
      <point x="222" y="554" type="line" smooth="yes"/>
      <point x="226" y="625"/>
      <point x="232" y="664"/>
      <point x="297" y="667" type="curve"/>
      <point x="299" y="700" type="line"/>
      <point x="78" y="700" type="line"/>
      <point x="76" y="656" type="line"/>
      <point x="100" y="657"/>
      <point x="124" y="659"/>
      <point x="148" y="660" type="curve"/>
      <point x="145" y="640"/>
      <point x="143" y="615"/>
      <point x="141" y="588" type="curve" smooth="yes"/>
      <point x="118" y="156" type="line"/>
      <point x="115" y="85"/>
      <point x="118" y="36"/>
      <point x="43" y="33" type="curve"/>
    </contour>
  </outline>
</glyph>
<glyph name="M" format="2">
  <advance width="917"/>
  <unicode hex="004D"/>
  <outline>
    <contour>
      <point x="415" y="-10" type="line"/>
      <point x="444" y="-10" type="line"/>
      <point x="682" y="503" type="line"/>
      <point x="717" y="580" type="line"/>
      <point x="719" y="580" type="line"/>
      <point x="718" y="551"/>
      <point x="718" y="523"/>
      <point x="718" y="494" type="curve" smooth="yes"/>
      <point x="718" y="152" type="line" smooth="yes"/>
      <point x="718" y="60"/>
      <point x="704" y="37"/>
      <point x="648" y="33" type="curve"/>
      <point x="646" y="0" type="line"/>
      <point x="866" y="0" type="line"/>
      <point x="869" y="44" type="line"/>
      <point x="844" y="43"/>
      <point x="820" y="41"/>
      <point x="795" y="40" type="curve"/>
      <point x="796" y="58"/>
      <point x="797" y="79"/>
      <point x="797" y="103" type="curve" smooth="yes"/>
      <point x="794" y="558" type="line"/>
      <point x="793" y="640"/>
      <point x="818" y="668"/>
      <point x="868" y="667" type="curve"/>
      <point x="870" y="700" type="line"/>
      <point x="726" y="700" type="line"/>
      <point x="663" y="558"/>
      <point x="579" y="395"/>
      <point x="515" y="251" type="curve" smooth="yes"/>
      <point x="499" y="215"/>
      <point x="474" y="158"/>
      <point x="457" y="122" type="curve"/>
      <point x="455" y="122" type="line"/>
      <point x="433" y="179"/>
      <point x="412" y="235"/>
      <point x="392" y="290" type="curve"/>
      <point x="238" y="700" type="line"/>
      <point x="89" y="700" type="line"/>
      <point x="87" y="657" type="line"/>
      <point x="111" y="658"/>
      <point x="135" y="659"/>
      <point x="159" y="660" type="curve"/>
      <point x="156" y="632"/>
      <point x="153" y="603"/>
      <point x="150" y="575" type="curve"/>
      <point x="105" y="125" type="line"/>
      <point x="100" y="76"/>
      <point x="94" y="34"/>
      <point x="32" y="33" type="curve"/>
      <point x="30" y="0" type="line"/>
      <point x="220" y="0" type="line"/>
      <point x="223" y="44" type="line"/>
      <point x="198" y="43"/>
      <point x="172" y="41"/>
      <point x="147" y="40" type="curve"/>
      <point x="151" y="65"/>
      <point x="154" y="95"/>
      <point x="157" y="125" type="curve" smooth="yes"/>
      <point x="183" y="395" type="line" smooth="yes"/>
      <point x="188" y="453"/>
      <point x="193" y="518"/>
      <point x="196" y="593" type="curve"/>
      <point x="198" y="593" type="line"/>
      <point x="216" y="531"/>
      <point x="223" y="514"/>
      <point x="242" y="462" type="curve"/>
    </contour>
  </outline>
</glyph>
<glyph name="N" format="2">
  <advance width="762"/>
  <unicode hex="004E"/>
  <anchor x="368" y="0" name="bottom"/>
  <anchor x="405" y="702" name="top"/>
  <outline>
    <contour>
      <point x="592" y="-11" type="line"/>
      <point x="640" y="-11" type="line"/>
      <point x="668" y="544" type="line" smooth="yes"/>
      <point x="672" y="615"/>
      <point x="666" y="664"/>
      <point x="741" y="667" type="curve"/>
      <point x="743" y="700" type="line"/>
      <point x="559" y="700" type="line"/>
      <point x="557" y="656" type="line"/>
      <point x="581" y="657"/>
      <point x="605" y="659"/>
      <point x="629" y="660" type="curve"/>
      <point x="626" y="641"/>
      <point x="624" y="617"/>
      <point x="622" y="588" type="curve" smooth="yes"/>
      <point x="601" y="128" type="line"/>
      <point x="599" y="128" type="line"/>
      <point x="571" y="168"/>
      <point x="543" y="208"/>
      <point x="515" y="248" type="curve"/>
      <point x="197" y="700" type="line"/>
      <point x="78" y="700" type="line"/>
      <point x="76" y="656" type="line"/>
      <point x="98" y="657"/>
      <point x="121" y="659"/>
      <point x="143" y="660" type="curve"/>
      <point x="141" y="626"/>
      <point x="140" y="593"/>
      <point x="138" y="559" type="curve"/>
      <point x="116" y="112" type="line" smooth="yes"/>
      <point x="115" y="81"/>
      <point x="107" y="33"/>
      <point x="46" y="33" type="curve"/>
      <point x="45" y="0" type="line"/>
      <point x="228" y="0" type="line"/>
      <point x="230" y="44" type="line"/>
      <point x="206" y="43"/>
      <point x="182" y="41"/>
      <point x="158" y="40" type="curve"/>
      <point x="163" y="71"/>
      <point x="163" y="105"/>
      <point x="165" y="139" type="curve" smooth="yes"/>
      <point x="181" y="573" type="line"/>
      <point x="183" y="573" type="line"/>
      <point x="206" y="540"/>
      <point x="229" y="508"/>
      <point x="252" y="475" type="curve"/>
    </contour>
  </outline>
</glyph>
<glyph name="Q" format="2">
  <advance width="788"/>
  <unicode hex="0051"/>
  <outline>
    <contour>
      <point x="413" y="716" type="curve" smooth="yes"/>
      <point x="191" y="716"/>
      <point x="49" y="533"/>
      <point x="49" y="327" type="curve" smooth="yes"/>
      <point x="49" y="165"/>
      <point x="147" y="-16"/>
      <point x="382" y="-16" type="curve" smooth="yes"/>
      <point x="461" y="-16"/>
      <point x="485" y="-72"/>
      <point x="585" y="-162" type="curve" smooth="yes"/>
      <point x="647" y="-218"/>
      <point x="676" y="-218"/>
      <point x="748" y="-218" type="curve" smooth="yes"/>
      <point x="780" y="-218" type="line"/>
      <point x="780" y="-185" type="line"/>
      <point x="744" y="-185"/>
      <point x="733" y="-175"/>
      <point x="620" y="-71" type="curve" smooth="yes"/>
      <point x="556" y="-12"/>
      <point x="519" y="-8"/>
      <point x="463" y="-8" type="curve"/>
      <point x="463" y="-7" type="line"/>
      <point x="653" y="34"/>
      <point x="746" y="219"/>
      <point x="746" y="369" type="curve" smooth="yes"/>
      <point x="746" y="532"/>
      <point x="648" y="716"/>
    </contour>
    <contour>
      <point x="408" y="676" type="curve" smooth="yes"/>
      <point x="567" y="676"/>
      <point x="650" y="510"/>
      <point x="650" y="353" type="curve" smooth="yes"/>
      <point x="650" y="200"/>
      <point x="559" y="25"/>
      <point x="387" y="25" type="curve" smooth="yes"/>
      <point x="208" y="25"/>
      <point x="143" y="213"/>
      <point x="145" y="349" type="curve" smooth="yes"/>
      <point x="146" y="503"/>
      <point x="241" y="676"/>
    </contour>
  </outline>
</glyph>
<glyph name="S" format="2">
  <advance width="566"/>
  <unicode hex="0053"/>
  <anchor x="292" y="0" name="bottom"/>
  <anchor x="317" y="702" name="top"/>
  <outline>
    <contour>
      <point x="271" y="-16" type="curve" smooth="yes"/>
      <point x="420" y="-16"/>
      <point x="510" y="62"/>
      <point x="515" y="173" type="curve"/>
      <point x="522" y="309"/>
      <point x="399" y="355"/>
      <point x="294" y="405" type="curve" smooth="yes"/>
      <point x="216" y="441"/>
      <point x="148" y="480"/>
      <point x="152" y="558" type="curve" smooth="yes"/>
      <point x="155" y="621"/>
      <point x="205" y="676"/>
      <point x="288" y="676" type="curve" smooth="yes"/>
      <point x="405" y="676"/>
      <point x="456" y="584"/>
      <point x="457" y="488" type="curve"/>
      <point x="493" y="488" type="line"/>
      <point x="504" y="708" type="line"/>
      <point x="453" y="708" type="line"/>
      <point x="455" y="665" type="line"/>
      <point x="402" y="705"/>
      <point x="335" y="716"/>
      <point x="284" y="716" type="curve" smooth="yes"/>
      <point x="122" y="716"/>
      <point x="76" y="607"/>
      <point x="72" y="539" type="curve" smooth="yes"/>
      <point x="66" y="424"/>
      <point x="157" y="376"/>
      <point x="250" y="333" type="curve" smooth="yes"/>
      <point x="343" y="289"/>
      <point x="436" y="250"/>
      <point x="431" y="150" type="curve" smooth="yes"/>
      <point x="427" y="69"/>
      <point x="356" y="26"/>
      <point x="278" y="26" type="curve" smooth="yes"/>
      <point x="172" y="26"/>
      <point x="92" y="82"/>
      <point x="91" y="205" type="curve"/>
      <point x="52" y="205" type="line"/>
      <point x="47" y="-8" type="line"/>
      <point x="99" y="-8" type="line"/>
      <point x="96" y="27" type="line"/>
      <point x="146" y="-7"/>
      <point x="220" y="-16"/>
    </contour>
  </outline>
</glyph>
<glyph name="T" format="2">
  <advance width="636"/>
  <unicode hex="0054"/>
  <anchor x="320" y="0" name="bottom"/>
  <anchor x="327" y="351" name="center"/>
  <anchor x="354" y="702" name="top"/>
  <outline>
    <contour>
      <point x="632" y="700" type="line"/>
      <point x="53" y="700" type="line"/>
      <point x="36" y="489" type="line"/>
      <point x="73" y="489" type="line"/>
      <point x="79" y="607"/>
      <point x="113" y="662"/>
      <point x="197" y="662" type="curve" smooth="yes"/>
      <point x="300" y="663" type="line"/>
      <point x="269" y="156" type="line" smooth="yes"/>
      <point x="265" y="88"/>
      <point x="260" y="36"/>
      <point x="195" y="33" type="curve"/>
      <point x="193" y="0" type="line"/>
      <point x="424" y="0" type="line"/>
      <point x="426" y="44" type="line"/>
      <point x="398" y="43"/>
      <point x="371" y="41"/>
      <point x="343" y="40" type="curve"/>
      <point x="346" y="57"/>
      <point x="348" y="83"/>
      <point x="350" y="119" type="curve" smooth="yes"/>
      <point x="383" y="663" type="line"/>
      <point x="468" y="664" type="line" smooth="yes"/>
      <point x="571" y="665"/>
      <point x="593" y="607"/>
      <point x="589" y="489" type="curve"/>
      <point x="627" y="489" type="line"/>
    </contour>
  </outline>
</glyph>
<glyph name="W" format="2">
  <advance width="994"/>
  <unicode hex="0057"/>
  <anchor x="543" y="705" name="top"/>
  <outline>
    <contour>
      <point x="270" y="-11" type="line"/>
      <point x="296" y="-11" type="line"/>
      <point x="451" y="399" type="line"/>
      <point x="468" y="443"/>
      <point x="484" y="487"/>
      <point x="501" y="531" type="curve"/>
      <point x="505" y="531" type="line"/>
      <point x="515" y="491"/>
      <point x="525" y="452"/>
      <point x="545" y="383" type="curve" smooth="yes"/>
      <point x="659" y="-11" type="line"/>
      <point x="685" y="-11" type="line"/>
      <point x="893" y="519" type="line"/>
      <point x="941" y="642"/>
      <point x="956" y="659"/>
      <point x="1024" y="667" type="curve"/>
      <point x="1026" y="700" type="line"/>
      <point x="823" y="700" type="line"/>
      <point x="821" y="656" type="line"/>
      <point x="848" y="657"/>
      <point x="874" y="658"/>
      <point x="901" y="659" type="curve"/>
      <point x="887" y="636"/>
      <point x="875" y="608"/>
      <point x="867" y="586" type="curve" smooth="yes"/>
      <point x="843" y="524"/>
      <point x="822" y="474"/>
      <point x="749" y="274" type="curve" smooth="yes"/>
      <point x="731" y="227"/>
      <point x="713" y="181"/>
      <point x="698" y="143" type="curve"/>
      <point x="696" y="143" type="line"/>
      <point x="680" y="206"/>
      <point x="663" y="265"/>
      <point x="646" y="325" type="curve"/>
      <point x="542" y="702" type="line"/>
      <point x="515" y="702" type="line"/>
      <point x="363" y="289" type="line"/>
      <point x="353" y="262"/>
      <point x="328" y="197"/>
      <point x="312" y="152" type="curve"/>
      <point x="310" y="152" type="line"/>
      <point x="292" y="215"/>
      <point x="277" y="265"/>
      <point x="261" y="325" type="curve"/>
      <point x="197" y="558" type="line"/>
      <point x="179" y="638"/>
      <point x="190" y="663"/>
      <point x="268" y="667" type="curve"/>
      <point x="270" y="700" type="line"/>
      <point x="30" y="700" type="line"/>
      <point x="28" y="656" type="line"/>
      <point x="47" y="657"/>
      <point x="65" y="657"/>
      <point x="84" y="658" type="curve"/>
      <point x="88" y="628"/>
      <point x="99" y="592"/>
      <point x="119" y="522" type="curve" smooth="yes"/>
    </contour>
  </outline>
</glyph>
<glyph name="Y" format="2">
  <advance width="641"/>
  <unicode hex="0059"/>
  <anchor x="308" y="0" name="bottom"/>
  <anchor x="359" y="702" name="top"/>
  <anchor x="33" y="700" name="topleft"/>
  <outline>
    <contour>
      <point x="207" y="0" type="line"/>
      <point x="438" y="0" type="line"/>
      <point x="440" y="44" type="line"/>
      <point x="412" y="43"/>
      <point x="385" y="41"/>
      <point x="357" y="40" type="curve"/>
      <point x="360" y="57"/>
      <point x="363" y="83"/>
      <point x="364" y="119" type="curve"/>
      <point x="374" y="300" type="line"/>
      <point x="513" y="538" type="line"/>
      <point x="564" y="623"/>
      <point x="601" y="663"/>
      <point x="667" y="667" type="curve"/>
      <point x="669" y="700" type="line"/>
      <point x="465" y="700" type="line"/>
      <point x="463" y="656" type="line"/>
      <point x="489" y="657"/>
      <point x="516" y="658"/>
      <point x="542" y="659" type="curve"/>
      <point x="522" y="638"/>
      <point x="501" y="602"/>
      <point x="490" y="583" type="curve" smooth="yes"/>
      <point x="459" y="530"/>
      <point x="430" y="482"/>
      <point x="399" y="429" type="curve" smooth="yes"/>
      <point x="383" y="402"/>
      <point x="366" y="373"/>
      <point x="348" y="341" type="curve"/>
      <point x="347" y="341" type="line"/>
      <point x="331" y="367"/>
      <point x="314" y="394"/>
      <point x="298" y="420" type="curve"/>
      <point x="271" y="464"/>
      <point x="238" y="520"/>
      <point x="216" y="558" type="curve" smooth="yes"/>
      <point x="180" y="622"/>
      <point x="183" y="667"/>
      <point x="275" y="667" type="curve"/>
      <point x="277" y="700" type="line"/>
      <point x="23" y="700" type="line"/>
      <point x="21" y="656" type="line"/>
      <point x="42" y="657"/>
      <point x="62" y="657"/>
      <point x="83" y="658" type="curve"/>
      <point x="86" y="633"/>
      <point x="99" y="598"/>
      <point x="131" y="545" type="curve" smooth="yes"/>
      <point x="289" y="270" type="line"/>
      <point x="283" y="156" type="line" smooth="yes"/>
      <point x="280" y="88"/>
      <point x="284" y="36"/>
      <point x="209" y="33" type="curve"/>
    </contour>
  </outline>
</glyph>
<glyph name="backslash" format="2">
  <advance width="785"/>
  <unicode hex="005C"/>
  <outline>
    <contour>
      <point x="681" y="-271" type="line"/>
      <point x="728" y="-238" type="line"/>
      <point x="103" y="760" type="line"/>
      <point x="48" y="723" type="line"/>
    </contour>
  </outline>
</glyph>
<glyph name="asciicircum" format="2">
  <advance width="823"/>
  <unicode hex="005E"/>
  <outline>
    <contour>
      <point x="668" y="437" type="line"/>
      <point x="756" y="437" type="line"/>
      <point x="464" y="716" type="line"/>
      <point x="375" y="716" type="line"/>
      <point x="53" y="441" type="line"/>
      <point x="135" y="441" type="line"/>
      <point x="414" y="681" type="line"/>
    </contour>
  </outline>
</glyph>
<glyph name="grave" format="2">
  <advance width="240"/>
  <unicode hex="0060"/>
  <anchor x="132" y="512" name="_top"/>
  <outline>
    <contour>
      <point x="171" y="579" type="line"/>
      <point x="195" y="599" type="line"/>
      <point x="117" y="731" type="line" smooth="yes"/>
      <point x="90" y="777"/>
      <point x="61" y="761"/>
      <point x="55" y="755" type="curve" smooth="yes"/>
      <point x="47" y="747"/>
      <point x="33" y="723"/>
      <point x="68" y="686" type="curve" smooth="yes"/>
    </contour>
  </outline>
</glyph>
<glyph name="b" format="2">
  <advance width="511"/>
  <unicode hex="0062"/>
  <outline>
    <contour>
      <point x="195" y="755" type="curve"/>
      <point x="166" y="755" type="line"/>
      <point x="150" y="741"/>
      <point x="127" y="728"/>
      <point x="39" y="728" type="curve"/>
      <point x="35" y="688" type="line"/>
      <point x="59" y="689"/>
      <point x="83" y="691"/>
      <point x="107" y="692" type="curve"/>
      <point x="104" y="674"/>
      <point x="104" y="673"/>
      <point x="101" y="639" type="curve" smooth="yes"/>
      <point x="81" y="407"/>
      <point x="75" y="270"/>
      <point x="57" y="10" type="curve"/>
      <point x="98" y="-6"/>
      <point x="155" y="-11"/>
      <point x="188" y="-11" type="curve" smooth="yes"/>
      <point x="386" y="-11"/>
      <point x="465" y="143"/>
      <point x="465" y="327" type="curve" smooth="yes"/>
      <point x="465" y="424"/>
      <point x="432" y="511"/>
      <point x="340" y="511" type="curve" smooth="yes"/>
      <point x="280" y="511"/>
      <point x="200" y="491"/>
      <point x="147" y="298" type="curve"/>
      <point x="144" y="298" type="line"/>
      <point x="154" y="404"/>
      <point x="164" y="498"/>
      <point x="173" y="586" type="curve" smooth="yes"/>
      <point x="178" y="631"/>
      <point x="186" y="699"/>
    </contour>
    <contour>
      <point x="311" y="464" type="curve" smooth="yes"/>
      <point x="358" y="466"/>
      <point x="377" y="410"/>
      <point x="379" y="319" type="curve" smooth="yes"/>
      <point x="381" y="197"/>
      <point x="351" y="26"/>
      <point x="205" y="24" type="curve" smooth="yes"/>
      <point x="179" y="24"/>
      <point x="147" y="31"/>
      <point x="131" y="47" type="curve"/>
      <point x="135" y="214"/>
      <point x="216" y="460"/>
    </contour>
  </outline>
</glyph>
<glyph name="c" format="2">
  <advance width="473"/>
  <unicode hex="0063"/>
  <anchor x="213" y="0" name="bottom"/>
  <anchor x="282" y="510" name="top"/>
  <outline>
    <contour>
      <point x="278" y="511" type="curve" smooth="yes"/>
      <point x="112" y="511"/>
      <point x="39" y="339"/>
      <point x="39" y="208" type="curve" smooth="yes"/>
      <point x="39" y="58"/>
      <point x="114" y="-11"/>
      <point x="232" y="-11" type="curve" smooth="yes"/>
      <point x="310" y="-11"/>
      <point x="386" y="31"/>
      <point x="437" y="147" type="curve"/>
      <point x="402" y="164" type="line"/>
      <point x="363" y="68"/>
      <point x="301" y="38"/>
      <point x="249" y="38" type="curve" smooth="yes"/>
      <point x="178" y="38"/>
      <point x="127" y="91"/>
      <point x="127" y="231" type="curve" smooth="yes"/>
      <point x="127" y="337"/>
      <point x="161" y="476"/>
      <point x="277" y="476" type="curve" smooth="yes"/>
      <point x="316" y="476"/>
      <point x="349" y="460"/>
      <point x="356" y="423" type="curve"/>
      <point x="345" y="411"/>
      <point x="343" y="397"/>
      <point x="343" y="385" type="curve" smooth="yes"/>
      <point x="343" y="370"/>
      <point x="354" y="344"/>
      <point x="386" y="345" type="curve" smooth="yes"/>
      <point x="412" y="345"/>
      <point x="428" y="365"/>
      <point x="428" y="394" type="curve" smooth="yes"/>
      <point x="428" y="460"/>
      <point x="364" y="511"/>
    </contour>
  </outline>
</glyph>
<glyph name="d" format="2">
  <advance width="555"/>
  <unicode hex="0064"/>
  <anchor x="291" y="256" name="center"/>
  <anchor x="559" y="512" name="topright"/>
  <outline>
    <contour>
      <point x="173" y="-11" type="curve" smooth="yes"/>
      <point x="232" y="-11"/>
      <point x="305" y="25"/>
      <point x="360" y="208" type="curve"/>
      <point x="363" y="208" type="line"/>
      <point x="353" y="158"/>
      <point x="348" y="117"/>
      <point x="348" y="79" type="curve" smooth="yes"/>
      <point x="348" y="25"/>
      <point x="371" y="-11"/>
      <point x="425" y="-11" type="curve" smooth="yes"/>
      <point x="505" y="-11"/>
      <point x="546" y="83"/>
      <point x="555" y="130" type="curve"/>
      <point x="526" y="136" type="line"/>
      <point x="506" y="65"/>
      <point x="476" y="39"/>
      <point x="454" y="39" type="curve" smooth="yes"/>
      <point x="428" y="39"/>
      <point x="427" y="66"/>
      <point x="427" y="92" type="curve" smooth="yes"/>
      <point x="427" y="164"/>
      <point x="442" y="299"/>
      <point x="456" y="427" type="curve"/>
      <point x="474" y="585"/>
      <point x="486" y="683"/>
      <point x="498" y="755" type="curve"/>
      <point x="469" y="755" type="line"/>
      <point x="453" y="741"/>
      <point x="430" y="728"/>
      <point x="342" y="728" type="curve"/>
      <point x="338" y="688" type="line"/>
      <point x="362" y="689"/>
      <point x="387" y="691"/>
      <point x="411" y="692" type="curve"/>
      <point x="403" y="661"/>
      <point x="393" y="578"/>
      <point x="385" y="507" type="curve"/>
      <point x="367" y="510"/>
      <point x="349" y="511"/>
      <point x="329" y="511" type="curve" smooth="yes"/>
      <point x="136" y="511"/>
      <point x="38" y="374"/>
      <point x="38" y="179" type="curve" smooth="yes"/>
      <point x="38" y="74"/>
      <point x="81" y="-11"/>
    </contour>
    <contour>
      <point x="194" y="36" type="curve" smooth="yes"/>
      <point x="142" y="36"/>
      <point x="124" y="105"/>
      <point x="124" y="196" type="curve" smooth="yes"/>
      <point x="124" y="318"/>
      <point x="171" y="475"/>
      <point x="312" y="475" type="curve" smooth="yes"/>
      <point x="335" y="475"/>
      <point x="358" y="473"/>
      <point x="380" y="465" type="curve"/>
      <point x="372" y="391"/>
      <point x="365" y="335"/>
      <point x="355" y="289" type="curve" smooth="yes"/>
      <point x="326" y="158"/>
      <point x="257" y="36"/>
    </contour>
  </outline>
</glyph>
<glyph name="e" format="2">
  <advance width="477"/>
  <unicode hex="0065"/>
  <anchor x="252" y="0" name="bottom"/>
  <anchor x="307" y="5" name="ogonek"/>
  <anchor x="277" y="512" name="top"/>
  <outline>
    <contour>
      <point x="282" y="511" type="curve" smooth="yes"/>
      <point x="118" y="511"/>
      <point x="39" y="360"/>
      <point x="39" y="205" type="curve" smooth="yes"/>
      <point x="39" y="75"/>
      <point x="97" y="-11"/>
      <point x="224" y="-11" type="curve" smooth="yes"/>
      <point x="315" y="-11"/>
      <point x="382" y="36"/>
      <point x="438" y="141" type="curve"/>
      <point x="405" y="160" type="line"/>
      <point x="361" y="76"/>
      <point x="299" y="39"/>
      <point x="241" y="39" type="curve" smooth="yes"/>
      <point x="163" y="39"/>
      <point x="127" y="103"/>
      <point x="127" y="227" type="curve"/>
      <point x="251" y="241"/>
      <point x="422" y="286"/>
      <point x="422" y="396" type="curve" smooth="yes"/>
      <point x="422" y="481"/>
      <point x="353" y="511"/>
    </contour>
    <contour>
      <point x="268" y="477" type="curve" smooth="yes"/>
      <point x="316" y="477"/>
      <point x="339" y="443"/>
      <point x="339" y="401" type="curve" smooth="yes"/>
      <point x="339" y="324"/>
      <point x="233" y="277"/>
      <point x="128" y="263" type="curve"/>
      <point x="135" y="371"/>
      <point x="176" y="477"/>
    </contour>
  </outline>
</glyph>
<glyph name="f" format="2">
  <advance width="325"/>
  <unicode hex="0066"/>
  <outline>
    <contour>
      <point x="316" y="760" type="curve" smooth="yes"/>
      <point x="183" y="757"/>
      <point x="138" y="645"/>
      <point x="117" y="500" type="curve"/>
      <point x="29" y="500" type="line"/>
      <point x="24" y="457" type="line"/>
      <point x="112" y="458" type="line"/>
      <point x="104" y="390"/>
      <point x="100" y="316"/>
      <point x="94" y="245" type="curve"/>
      <point x="70" y="-20"/>
      <point x="78" y="-232"/>
      <point x="-16" y="-232" type="curve" smooth="yes"/>
      <point x="-28" y="-232"/>
      <point x="-38" y="-229"/>
      <point x="-45" y="-224" type="curve"/>
      <point x="-45" y="-197"/>
      <point x="-60" y="-179"/>
      <point x="-84" y="-178" type="curve" smooth="yes"/>
      <point x="-114" y="-177"/>
      <point x="-125" y="-204"/>
      <point x="-125" y="-219" type="curve" smooth="yes"/>
      <point x="-125" y="-253"/>
      <point x="-98" y="-271"/>
      <point x="-47" y="-271" type="curve" smooth="yes"/>
      <point x="154" y="-271"/>
      <point x="154" y="-6"/>
      <point x="176" y="236" type="curve" smooth="yes"/>
      <point x="183" y="313"/>
      <point x="186" y="390"/>
      <point x="190" y="459" type="curve"/>
      <point x="332" y="461" type="line"/>
      <point x="335" y="500" type="line"/>
      <point x="193" y="500" type="line"/>
      <point x="203" y="625"/>
      <point x="221" y="716"/>
      <point x="284" y="722" type="curve" smooth="yes"/>
      <point x="295" y="723"/>
      <point x="309" y="721"/>
      <point x="313" y="718" type="curve"/>
      <point x="312" y="689"/>
      <point x="328" y="668"/>
      <point x="353" y="668" type="curve" smooth="yes"/>
      <point x="383" y="667"/>
      <point x="393" y="693"/>
      <point x="393" y="708" type="curve" smooth="yes"/>
      <point x="393" y="742"/>
      <point x="365" y="761"/>
    </contour>
  </outline>
</glyph>
<glyph name="g" format="2">
  <advance width="518"/>
  <unicode hex="0067"/>
  <anchor x="294" y="512" name="top"/>
  <outline>
    <contour>
      <point x="162" y="-271" type="curve" smooth="yes"/>
      <point x="309" y="-271"/>
      <point x="402" y="-179"/>
      <point x="418" y="14" type="curve" smooth="yes"/>
      <point x="430" y="162"/>
      <point x="447" y="333"/>
      <point x="457" y="494" type="curve"/>
      <point x="425" y="505"/>
      <point x="375" y="511"/>
      <point x="330" y="511" type="curve" smooth="yes"/>
      <point x="129" y="511"/>
      <point x="38" y="355"/>
      <point x="38" y="183" type="curve" smooth="yes"/>
      <point x="38" y="72"/>
      <point x="80" y="-11"/>
      <point x="173" y="-11" type="curve" smooth="yes"/>
      <point x="233" y="-11"/>
      <point x="302" y="20"/>
      <point x="358" y="213" type="curve"/>
      <point x="361" y="213" type="line"/>
      <point x="351" y="146"/>
      <point x="349" y="60"/>
      <point x="337" y="-19" type="curve" smooth="yes"/>
      <point x="320" y="-136"/>
      <point x="282" y="-236"/>
      <point x="169" y="-236" type="curve" smooth="yes"/>
      <point x="145" y="-236"/>
      <point x="113" y="-228"/>
      <point x="100" y="-208" type="curve"/>
      <point x="104" y="-199"/>
      <point x="106" y="-190"/>
      <point x="106" y="-182" type="curve" smooth="yes"/>
      <point x="106" y="-151"/>
      <point x="85" y="-136"/>
      <point x="61" y="-136" type="curve" smooth="yes"/>
      <point x="34" y="-136"/>
      <point x="14" y="-159"/>
      <point x="14" y="-187" type="curve" smooth="yes"/>
      <point x="16" y="-252"/>
      <point x="114" y="-271"/>
    </contour>
    <contour>
      <point x="194" y="36" type="curve" smooth="yes"/>
      <point x="140" y="36"/>
      <point x="122" y="108"/>
      <point x="122" y="200" type="curve" smooth="yes"/>
      <point x="122" y="312"/>
      <point x="167" y="475"/>
      <point x="314" y="475" type="curve" smooth="yes"/>
      <point x="338" y="475"/>
      <point x="362" y="471"/>
      <point x="380" y="462" type="curve"/>
      <point x="371" y="291"/>
      <point x="288" y="36"/>
    </contour>
  </outline>
</glyph>
<glyph name="j" format="2">
  <advance width="297"/>
  <unicode hex="006A"/>
  <outline>
    <contour>
      <point x="144" y="511" type="curve" smooth="yes"/>
      <point x="61" y="511"/>
      <point x="26" y="413"/>
      <point x="19" y="366" type="curve"/>
      <point x="47" y="360" type="line"/>
      <point x="65" y="431"/>
      <point x="94" y="458"/>
      <point x="114" y="459" type="curve" smooth="yes"/>
      <point x="137" y="460"/>
      <point x="144" y="436"/>
      <point x="145" y="417" type="curve" smooth="yes"/>
      <point x="148" y="358"/>
      <point x="145" y="274"/>
      <point x="139" y="200" type="curve" smooth="yes"/>
      <point x="136" y="161"/>
      <point x="115" y="-230"/>
      <point x="1" y="-230" type="curve" smooth="yes"/>
      <point x="-6" y="-230"/>
      <point x="-14" y="-228"/>
      <point x="-19" y="-225" type="curve"/>
      <point x="-15" y="-190"/>
      <point x="-34" y="-170"/>
      <point x="-61" y="-170" type="curve" smooth="yes"/>
      <point x="-90" y="-170"/>
      <point x="-104" y="-194"/>
      <point x="-104" y="-217" type="curve" smooth="yes"/>
      <point x="-104" y="-257"/>
      <point x="-62" y="-271"/>
      <point x="-28" y="-271" type="curve" smooth="yes"/>
      <point x="167" y="-271"/>
      <point x="196" y="-12"/>
      <point x="217" y="192" type="curve" smooth="yes"/>
      <point x="225" y="274"/>
      <point x="227" y="354"/>
      <point x="227" y="409" type="curve" smooth="yes"/>
      <point x="227" y="477"/>
      <point x="197" y="511"/>
    </contour>
    <contour>
      <point x="187" y="728" type="curve" smooth="yes"/>
      <point x="158" y="728"/>
      <point x="134" y="704"/>
      <point x="134" y="670" type="curve" smooth="yes"/>
      <point x="134" y="636"/>
      <point x="158" y="615"/>
      <point x="187" y="615" type="curve" smooth="yes"/>
      <point x="216" y="615"/>
      <point x="241" y="637"/>
      <point x="241" y="671" type="curve" smooth="yes"/>
      <point x="241" y="705"/>
      <point x="218" y="728"/>
    </contour>
  </outline>
</glyph>
<glyph name="k" format="2">
  <advance width="520"/>
  <unicode hex="006B"/>
  <anchor x="266" y="0" name="bottom"/>
  <anchor x="195" y="707" name="top"/>
  <outline>
    <contour>
      <point x="384" y="-11" type="curve" smooth="yes"/>
      <point x="446" y="-11"/>
      <point x="480" y="45"/>
      <point x="492" y="102" type="curve"/>
      <point x="464" y="107" type="line"/>
      <point x="452" y="58"/>
      <point x="436" y="43"/>
      <point x="414" y="45" type="curve" smooth="yes"/>
      <point x="386" y="48"/>
      <point x="365" y="103"/>
      <point x="344" y="150" type="curve" smooth="yes"/>
      <point x="322" y="200"/>
      <point x="302" y="219"/>
      <point x="256" y="220" type="curve"/>
      <point x="256" y="221" type="line"/>
      <point x="387" y="245"/>
      <point x="449" y="332"/>
      <point x="449" y="403" type="curve" smooth="yes"/>
      <point x="449" y="457"/>
      <point x="421" y="511"/>
      <point x="352" y="511" type="curve" smooth="yes"/>
      <point x="281" y="511"/>
      <point x="216" y="465"/>
      <point x="156" y="288" type="curve"/>
      <point x="153" y="288" type="line"/>
      <point x="160" y="388"/>
      <point x="170" y="492"/>
      <point x="182" y="585" type="curve" smooth="yes"/>
      <point x="188" y="630"/>
      <point x="197" y="705"/>
      <point x="207" y="755" type="curve"/>
      <point x="178" y="755" type="line"/>
      <point x="162" y="741"/>
      <point x="141" y="728"/>
      <point x="53" y="728" type="curve"/>
      <point x="49" y="688" type="line"/>
      <point x="72" y="689"/>
      <point x="96" y="691"/>
      <point x="119" y="692" type="curve"/>
      <point x="116" y="675"/>
      <point x="115" y="673"/>
      <point x="110" y="639" type="curve" smooth="yes"/>
      <point x="86" y="482"/>
      <point x="60" y="118"/>
      <point x="60" y="26" type="curve" smooth="yes"/>
      <point x="60" y="15"/>
      <point x="60" y="9"/>
      <point x="61" y="0" type="curve"/>
      <point x="143" y="0" type="line"/>
      <point x="142" y="17"/>
      <point x="141" y="33"/>
      <point x="141" y="53" type="curve" smooth="yes"/>
      <point x="141" y="102"/>
      <point x="150" y="159"/>
      <point x="165" y="214" type="curve"/>
      <point x="174" y="214"/>
      <point x="182" y="215"/>
      <point x="191" y="215" type="curve"/>
      <point x="229" y="214"/>
      <point x="244" y="186"/>
      <point x="269" y="120" type="curve" smooth="yes"/>
      <point x="304" y="28"/>
      <point x="333" y="-11"/>
    </contour>
    <contour>
      <point x="173" y="243" type="curve"/>
      <point x="208" y="358"/>
      <point x="267" y="460"/>
      <point x="321" y="464" type="curve" smooth="yes"/>
      <point x="362" y="467"/>
      <point x="368" y="426"/>
      <point x="368" y="401" type="curve" smooth="yes"/>
      <point x="368" y="299"/>
      <point x="300" y="243"/>
    </contour>
  </outline>
</glyph>
<glyph name="l" format="2">
  <advance width="283"/>
  <unicode hex="006C"/>
  <anchor x="164" y="0" name="bottom"/>
  <anchor x="155" y="705" name="top"/>
  <anchor x="261" y="512" name="topright"/>
  <outline>
    <contour>
      <point x="214" y="755" type="curve"/>
      <point x="186" y="755" type="line"/>
      <point x="169" y="741"/>
      <point x="146" y="728"/>
      <point x="59" y="728" type="curve"/>
      <point x="54" y="688" type="line"/>
      <point x="78" y="689"/>
      <point x="101" y="691"/>
      <point x="125" y="692" type="curve"/>
      <point x="123" y="678"/>
      <point x="122" y="674"/>
      <point x="116" y="638" type="curve" smooth="yes"/>
      <point x="92" y="462"/>
      <point x="60" y="154"/>
      <point x="62" y="70" type="curve" smooth="yes"/>
      <point x="63" y="17"/>
      <point x="87" y="-11"/>
      <point x="142" y="-11" type="curve" smooth="yes"/>
      <point x="222" y="-11"/>
      <point x="262" y="83"/>
      <point x="271" y="129" type="curve"/>
      <point x="243" y="136" type="line"/>
      <point x="223" y="64"/>
      <point x="192" y="39"/>
      <point x="170" y="39" type="curve" smooth="yes"/>
      <point x="145" y="39"/>
      <point x="143" y="65"/>
      <point x="143" y="91" type="curve" smooth="yes"/>
      <point x="143" y="188"/>
      <point x="169" y="444"/>
      <point x="188" y="585" type="curve" smooth="yes"/>
      <point x="193" y="630"/>
      <point x="207" y="705"/>
    </contour>
  </outline>
</glyph>
<glyph name="m" format="2">
  <advance width="876"/>
  <unicode hex="006D"/>
  <outline>
    <contour>
      <point x="733" y="-11" type="curve" smooth="yes"/>
      <point x="813" y="-11"/>
      <point x="855" y="83"/>
      <point x="864" y="129" type="curve"/>
      <point x="836" y="136" type="line"/>
      <point x="816" y="64"/>
      <point x="784" y="39"/>
      <point x="762" y="39" type="curve" smooth="yes"/>
      <point x="738" y="39"/>
      <point x="735" y="61"/>
      <point x="735" y="85" type="curve" smooth="yes"/>
      <point x="735" y="143"/>
      <point x="768" y="271"/>
      <point x="768" y="381" type="curve" smooth="yes"/>
      <point x="768" y="451"/>
      <point x="743" y="511"/>
      <point x="663" y="511" type="curve" smooth="yes"/>
      <point x="608" y="511"/>
      <point x="542" y="473"/>
      <point x="476" y="291" type="curve"/>
      <point x="473" y="291" type="line"/>
      <point x="485" y="341"/>
      <point x="490" y="359"/>
      <point x="490" y="397" type="curve" smooth="yes"/>
      <point x="490" y="446"/>
      <point x="463" y="511"/>
      <point x="383" y="511" type="curve" smooth="yes"/>
      <point x="328" y="511"/>
      <point x="263" y="470"/>
      <point x="200" y="288" type="curve"/>
      <point x="197" y="288" type="line"/>
      <point x="202" y="316"/>
      <point x="210" y="356"/>
      <point x="212" y="394" type="curve" smooth="yes"/>
      <point x="215" y="455"/>
      <point x="203" y="511"/>
      <point x="138" y="511" type="curve" smooth="yes"/>
      <point x="58" y="511"/>
      <point x="17" y="417"/>
      <point x="8" y="370" type="curve"/>
      <point x="36" y="364" type="line"/>
      <point x="56" y="435"/>
      <point x="87" y="461"/>
      <point x="109" y="461" type="curve" smooth="yes"/>
      <point x="132" y="461"/>
      <point x="136" y="440"/>
      <point x="136" y="416" type="curve" smooth="yes"/>
      <point x="136" y="386"/>
      <point x="134" y="382"/>
      <point x="116" y="226" type="curve" smooth="yes"/>
      <point x="101" y="100"/>
      <point x="97" y="60"/>
      <point x="97" y="26" type="curve" smooth="yes"/>
      <point x="97" y="15"/>
      <point x="97" y="9"/>
      <point x="98" y="0" type="curve"/>
      <point x="182" y="0" type="line"/>
      <point x="181" y="17"/>
      <point x="180" y="33"/>
      <point x="180" y="53" type="curve" smooth="yes"/>
      <point x="180" y="222"/>
      <point x="271" y="464"/>
      <point x="363" y="464" type="curve" smooth="yes"/>
      <point x="402" y="464"/>
      <point x="410" y="430"/>
      <point x="411" y="407" type="curve" smooth="yes"/>
      <point x="413" y="323"/>
      <point x="375" y="127"/>
      <point x="375" y="26" type="curve" smooth="yes"/>
      <point x="375" y="15"/>
      <point x="375" y="9"/>
      <point x="376" y="0" type="curve"/>
      <point x="460" y="0" type="line"/>
      <point x="459" y="17"/>
      <point x="458" y="33"/>
      <point x="458" y="53" type="curve" smooth="yes"/>
      <point x="458" y="222"/>
      <point x="547" y="464"/>
      <point x="641" y="464" type="curve" smooth="yes"/>
      <point x="680" y="464"/>
      <point x="689" y="426"/>
      <point x="689" y="403" type="curve" smooth="yes"/>
      <point x="689" y="297"/>
      <point x="653" y="159"/>
      <point x="653" y="85" type="curve" smooth="yes"/>
      <point x="653" y="23"/>
      <point x="670" y="-11"/>
    </contour>
  </outline>
</glyph>
<glyph name="o" format="2">
  <advance width="521"/>
  <unicode hex="006F"/>
  <anchor x="248" y="0" name="bottom"/>
  <anchor x="261" y="256" name="center"/>
  <anchor x="456" y="5" name="ogonek"/>
  <anchor x="293" y="512" name="top"/>
  <anchor x="425" y="506" name="topright"/>
  <outline>
    <contour>
      <point x="286" y="511" type="curve" smooth="yes"/>
      <point x="132" y="511"/>
      <point x="39" y="375"/>
      <point x="39" y="213" type="curve" smooth="yes"/>
      <point x="39" y="89"/>
      <point x="99" y="-11"/>
      <point x="231" y="-11" type="curve" smooth="yes"/>
      <point x="386" y="-11"/>
      <point x="476" y="131"/>
      <point x="476" y="292" type="curve" smooth="yes"/>
      <point x="476" y="432"/>
      <point x="394" y="511"/>
    </contour>
    <contour>
      <point x="271" y="474" type="curve" smooth="yes"/>
      <point x="369" y="472"/>
      <point x="390" y="355"/>
      <point x="388" y="261" type="curve" smooth="yes"/>
      <point x="386" y="164"/>
      <point x="346" y="25"/>
      <point x="240" y="27" type="curve" smooth="yes"/>
      <point x="148" y="29"/>
      <point x="125" y="154"/>
      <point x="127" y="246" type="curve" smooth="yes"/>
      <point x="129" y="374"/>
      <point x="182" y="475"/>
    </contour>
  </outline>
</glyph>
<glyph name="q" format="2">
  <advance width="518"/>
  <unicode hex="0071"/>
  <outline>
    <contour>
      <point x="331" y="511" type="curve" smooth="yes"/>
      <point x="138" y="509"/>
      <point x="37" y="369"/>
      <point x="38" y="174" type="curve" smooth="yes"/>
      <point x="39" y="69"/>
      <point x="83" y="-13"/>
      <point x="175" y="-11" type="curve" smooth="yes"/>
      <point x="234" y="-10"/>
      <point x="304" y="24"/>
      <point x="357" y="208" type="curve"/>
      <point x="360" y="208" type="line"/>
      <point x="348" y="117"/>
      <point x="337" y="15"/>
      <point x="329" y="-85" type="curve" smooth="yes"/>
      <point x="323" y="-163"/>
      <point x="324" y="-225"/>
      <point x="268" y="-225" type="curve"/>
      <point x="268" y="-255" type="line"/>
      <point x="457" y="-255" type="line"/>
      <point x="457" y="-214" type="line"/>
      <point x="436" y="-215"/>
      <point x="415" y="-216"/>
      <point x="394" y="-217" type="curve"/>
      <point x="400" y="-194"/>
      <point x="402" y="-161"/>
      <point x="404" y="-134" type="curve" smooth="yes"/>
      <point x="416" y="43"/>
      <point x="448" y="333"/>
      <point x="461" y="501" type="curve"/>
      <point x="431" y="507"/>
      <point x="364" y="511"/>
    </contour>
    <contour>
      <point x="315" y="477" type="curve" smooth="yes"/>
      <point x="341" y="477"/>
      <point x="366" y="474"/>
      <point x="386" y="468" type="curve"/>
      <point x="377" y="290"/>
      <point x="291" y="37"/>
      <point x="196" y="36" type="curve" smooth="yes"/>
      <point x="141" y="36"/>
      <point x="125" y="102"/>
      <point x="124" y="193" type="curve" smooth="yes"/>
      <point x="123" y="315"/>
      <point x="174" y="475"/>
    </contour>
  </outline>
</glyph>
<glyph name="s" format="2">
  <advance width="428"/>
  <unicode hex="0073"/>
  <anchor x="216" y="0" name="bottom"/>
  <anchor x="228" y="512" name="top"/>
  <outline>
    <contour>
      <point x="190" y="-11" type="curve" smooth="yes"/>
      <point x="302" y="-11"/>
      <point x="378" y="51"/>
      <point x="378" y="135" type="curve" smooth="yes"/>
      <point x="378" y="220"/>
      <point x="287" y="264"/>
      <point x="215" y="306" type="curve" smooth="yes"/>
      <point x="170" y="334"/>
      <point x="132" y="361"/>
      <point x="132" y="399" type="curve" smooth="yes"/>
      <point x="132" y="446"/>
      <point x="180" y="478"/>
      <point x="224" y="478" type="curve" smooth="yes"/>
      <point x="269" y="478"/>
      <point x="295" y="460"/>
      <point x="302" y="438" type="curve"/>
      <point x="295" y="427"/>
      <point x="293" y="417"/>
      <point x="293" y="407" type="curve" smooth="yes"/>
      <point x="293" y="386"/>
      <point x="309" y="367"/>
      <point x="333" y="367" type="curve" smooth="yes"/>
      <point x="357" y="367"/>
      <point x="375" y="385"/>
      <point x="375" y="413" type="curve" smooth="yes"/>
      <point x="375" y="473"/>
      <point x="302" y="511"/>
      <point x="227" y="511" type="curve" smooth="yes"/>
      <point x="124" y="511"/>
      <point x="54" y="449"/>
      <point x="54" y="376" type="curve" smooth="yes"/>
      <point x="54" y="318"/>
      <point x="110" y="280"/>
      <point x="169" y="245" type="curve" smooth="yes"/>
      <point x="231" y="208"/>
      <point x="296" y="174"/>
      <point x="296" y="121" type="curve" smooth="yes"/>
      <point x="296" y="61"/>
      <point x="260" y="26"/>
      <point x="188" y="26" type="curve" smooth="yes"/>
      <point x="152" y="26"/>
      <point x="115" y="43"/>
      <point x="105" y="72" type="curve"/>
      <point x="112" y="83"/>
      <point x="114" y="93"/>
      <point x="114" y="103" type="curve" smooth="yes"/>
      <point x="114" y="124"/>
      <point x="100" y="145"/>
      <point x="73" y="145" type="curve" smooth="yes"/>
      <point x="49" y="145"/>
      <point x="30" y="125"/>
      <point x="30" y="96" type="curve" smooth="yes"/>
      <point x="30" y="27"/>
      <point x="109" y="-11"/>
    </contour>
  </outline>
</glyph>
<glyph name="y" format="2">
  <advance width="514"/>
  <unicode hex="0079"/>
  <anchor x="393" y="0" name="bottom"/>
  <anchor x="257" y="512" name="top"/>
  <outline>
    <contour>
      <point x="64" y="-271" type="curve" smooth="yes"/>
      <point x="148" y="-274"/>
      <point x="233" y="-198"/>
      <point x="333" y="-17" type="curve" smooth="yes"/>
      <point x="401" y="107"/>
      <point x="466" y="250"/>
      <point x="466" y="383" type="curve" smooth="yes"/>
      <point x="466" y="446"/>
      <point x="447" y="511"/>
      <point x="386" y="511" type="curve" smooth="yes"/>
      <point x="362" y="511"/>
      <point x="339" y="496"/>
      <point x="339" y="467" type="curve" smooth="yes"/>
      <point x="339" y="446"/>
      <point x="355" y="428"/>
      <point x="379" y="428" type="curve" smooth="yes"/>
      <point x="389" y="428"/>
      <point x="398" y="430"/>
      <point x="404" y="434" type="curve"/>
      <point x="412" y="423"/>
      <point x="419" y="396"/>
      <point x="419" y="363" type="curve" smooth="yes"/>
      <point x="419" y="254"/>
      <point x="361" y="117"/>
      <point x="305" y="19" type="curve"/>
      <point x="303" y="19" type="line"/>
      <point x="289" y="136"/>
      <point x="252" y="296"/>
      <point x="214" y="398" type="curve" smooth="yes"/>
      <point x="196" y="447"/>
      <point x="168" y="511"/>
      <point x="101" y="511" type="curve" smooth="yes"/>
      <point x="19" y="511"/>
      <point x="3" y="410"/>
      <point x="10" y="338" type="curve"/>
      <point x="42" y="342" type="line"/>
      <point x="36" y="403"/>
      <point x="51" y="443"/>
      <point x="76" y="446" type="curve" smooth="yes"/>
      <point x="102" y="449"/>
      <point x="115" y="417"/>
      <point x="125" y="395" type="curve" smooth="yes"/>
      <point x="181" y="260"/>
      <point x="224" y="80"/>
      <point x="247" y="-75" type="curve"/>
      <point x="226" y="-111"/>
      <point x="152" y="-224"/>
      <point x="94" y="-221" type="curve" smooth="yes"/>
      <point x="86" y="-221"/>
      <point x="80" y="-218"/>
      <point x="72" y="-214" type="curve"/>
      <point x="73" y="-181"/>
      <point x="57" y="-162"/>
      <point x="29" y="-162" type="curve" smooth="yes"/>
      <point x="11" y="-162"/>
      <point x="-12" y="-178"/>
      <point x="-12" y="-208" type="curve" smooth="yes"/>
      <point x="-12" y="-243"/>
      <point x="18" y="-269"/>
    </contour>
  </outline>
</glyph>
<glyph name="braceleft" format="2">
  <advance width="332"/>
  <unicode hex="007B"/>
  <outline>
    <contour>
      <point x="347" y="760" type="line"/>
      <point x="333" y="760"/>
      <point x="330" y="760"/>
      <point x="319" y="760" type="curve" smooth="yes"/>
      <point x="182" y="760"/>
      <point x="137" y="696"/>
      <point x="130" y="555" type="curve" smooth="yes"/>
      <point x="127" y="496"/>
      <point x="135" y="433"/>
      <point x="132" y="380" type="curve" smooth="yes"/>
      <point x="128" y="313"/>
      <point x="105" y="284"/>
      <point x="31" y="284" type="curve" smooth="yes"/>
      <point x="8" y="284" type="line"/>
      <point x="5" y="231" type="line"/>
      <point x="28" y="231" type="line" smooth="yes"/>
      <point x="102" y="231"/>
      <point x="122" y="199"/>
      <point x="119" y="130" type="curve" smooth="yes"/>
      <point x="116" y="79"/>
      <point x="103" y="12"/>
      <point x="100" y="-47" type="curve" smooth="yes"/>
      <point x="92" y="-188"/>
      <point x="129" y="-271"/>
      <point x="266" y="-271" type="curve" smooth="yes"/>
      <point x="277" y="-271"/>
      <point x="280" y="-271"/>
      <point x="294" y="-271" type="curve"/>
      <point x="296" y="-243" type="line"/>
      <point x="193" y="-246"/>
      <point x="166" y="-175"/>
      <point x="172" y="-61" type="curve" smooth="yes"/>
      <point x="174" y="-16"/>
      <point x="192" y="73"/>
      <point x="194" y="120" type="curve" smooth="yes"/>
      <point x="198" y="203"/>
      <point x="150" y="246"/>
      <point x="93" y="256" type="curve"/>
      <point x="93" y="258" type="line"/>
      <point x="151" y="270"/>
      <point x="204" y="309"/>
      <point x="208" y="392" type="curve" smooth="yes"/>
      <point x="211" y="438"/>
      <point x="201" y="524"/>
      <point x="204" y="569" type="curve" smooth="yes"/>
      <point x="210" y="683"/>
      <point x="242" y="729"/>
      <point x="345" y="726" type="curve"/>
    </contour>
  </outline>
</glyph>
<glyph name="asciitilde" format="2">
  <advance width="530"/>
  <unicode hex="007E"/>
  <outline>
    <contour>
      <point x="366" y="231" type="curve" smooth="yes"/>
      <point x="419" y="231"/>
      <point x="459" y="253"/>
      <point x="488" y="283" type="curve"/>
      <point x="491" y="346" type="line"/>
      <point x="456" y="315"/>
      <point x="410" y="295"/>
      <point x="362" y="299" type="curve" smooth="yes"/>
      <point x="291" y="305"/>
      <point x="279" y="374"/>
      <point x="176" y="374" type="curve" smooth="yes"/>
      <point x="123" y="374"/>
      <point x="90" y="355"/>
      <point x="46" y="321" type="curve"/>
      <point x="43" y="258" type="line"/>
      <point x="80" y="284"/>
      <point x="113" y="306"/>
      <point x="168" y="306" type="curve" smooth="yes"/>
      <point x="248" y="306"/>
      <point x="266" y="231"/>
    </contour>
  </outline>
</glyph>
<glyph name="cent" format="2">
  <advance width="482"/>
  <unicode hex="00A2"/>
  <outline>
    <contour>
      <point x="332" y="622" type="line"/>
      <point x="273" y="622" type="line"/>
      <point x="264" y="511" type="line"/>
      <point x="109" y="500"/>
      <point x="41" y="334"/>
      <point x="41" y="208" type="curve" smooth="yes"/>
      <point x="41" y="71"/>
      <point x="104" y="0"/>
      <point x="205" y="-11" type="curve"/>
      <point x="195" y="-129" type="line"/>
      <point x="247" y="-129" type="line"/>
      <point x="258" y="-11" type="line"/>
      <point x="328" y="-2"/>
      <point x="394" y="48"/>
      <point x="439" y="152" type="curve"/>
      <point x="404" y="168" type="line"/>
      <point x="365" y="73"/>
      <point x="303" y="36"/>
      <point x="251" y="36" type="curve" smooth="yes"/>
      <point x="180" y="36"/>
      <point x="129" y="91"/>
      <point x="129" y="231" type="curve" smooth="yes"/>
      <point x="129" y="337"/>
      <point x="163" y="477"/>
      <point x="279" y="477" type="curve" smooth="yes"/>
      <point x="318" y="477"/>
      <point x="351" y="460"/>
      <point x="358" y="423" type="curve"/>
      <point x="347" y="411"/>
      <point x="345" y="397"/>
      <point x="345" y="385" type="curve" smooth="yes"/>
      <point x="345" y="370"/>
      <point x="356" y="344"/>
      <point x="388" y="345" type="curve" smooth="yes"/>
      <point x="414" y="345"/>
      <point x="430" y="365"/>
      <point x="430" y="394" type="curve" smooth="yes"/>
      <point x="430" y="449"/>
      <point x="386" y="494"/>
      <point x="321" y="507" type="curve"/>
    </contour>
  </outline>
</glyph>
<glyph name="section" format="2">
  <advance width="524"/>
  <unicode hex="00A7"/>
  <outline>
    <contour>
      <point x="219" y="-228" type="curve" smooth="yes"/>
      <point x="361" y="-228"/>
      <point x="416" y="-122"/>
      <point x="419" y="-58" type="curve" smooth="yes"/>
      <point x="423" y="-9"/>
      <point x="408" y="28"/>
      <point x="382" y="58" type="curve"/>
      <point x="443" y="104"/>
      <point x="479" y="170"/>
      <point x="482" y="227" type="curve" smooth="yes"/>
      <point x="489" y="335"/>
      <point x="403" y="390"/>
      <point x="320" y="441" type="curve" smooth="yes"/>
      <point x="240" y="490"/>
      <point x="161" y="534"/>
      <point x="167" y="618" type="curve" smooth="yes"/>
      <point x="170" y="662"/>
      <point x="207" y="722"/>
      <point x="298" y="722" type="curve" smooth="yes"/>
      <point x="350" y="722"/>
      <point x="400" y="692"/>
      <point x="399" y="660" type="curve"/>
      <point x="393" y="651"/>
      <point x="387" y="639"/>
      <point x="387" y="626" type="curve" smooth="yes"/>
      <point x="387" y="606"/>
      <point x="398" y="585"/>
      <point x="427" y="585" type="curve" smooth="yes"/>
      <point x="458" y="585"/>
      <point x="472" y="610"/>
      <point x="473" y="636" type="curve" smooth="yes"/>
      <point x="476" y="697"/>
      <point x="405" y="760"/>
      <point x="298" y="760" type="curve" smooth="yes"/>
      <point x="156" y="760"/>
      <point x="103" y="651"/>
      <point x="98" y="587" type="curve" smooth="yes"/>
      <point x="95" y="540"/>
      <point x="109" y="504"/>
      <point x="132" y="475" type="curve"/>
      <point x="74" y="427"/>
      <point x="40" y="361"/>
      <point x="37" y="306" type="curve"/>
      <point x="28" y="190"/>
      <point x="131" y="132"/>
      <point x="221" y="74" type="curve" smooth="yes"/>
      <point x="309" y="18"/>
      <point x="362" y="-20"/>
      <point x="350" y="-95" type="curve" smooth="yes"/>
      <point x="343" y="-139"/>
      <point x="312" y="-189"/>
      <point x="219" y="-189" type="curve" smooth="yes"/>
      <point x="168" y="-189"/>
      <point x="117" y="-160"/>
      <point x="118" y="-127" type="curve"/>
      <point x="125" y="-119"/>
      <point x="130" y="-106"/>
      <point x="130" y="-93" type="curve" smooth="yes"/>
      <point x="130" y="-74"/>
      <point x="119" y="-52"/>
      <point x="90" y="-52" type="curve" smooth="yes"/>
      <point x="61" y="-52"/>
      <point x="45" y="-78"/>
      <point x="44" y="-104" type="curve" smooth="yes"/>
      <point x="42" y="-165"/>
      <point x="112" y="-228"/>
    </contour>
    <contour>
      <point x="362" y="80" type="curve"/>
      <point x="271" y="165"/>
      <point x="102" y="201"/>
      <point x="113" y="343" type="curve"/>
      <point x="116" y="378"/>
      <point x="129" y="421"/>
      <point x="154" y="452" type="curve"/>
      <point x="246" y="366"/>
      <point x="417" y="333"/>
      <point x="406" y="190" type="curve" smooth="yes"/>
      <point x="403" y="151"/>
      <point x="389" y="109"/>
    </contour>
  </outline>
</glyph>
<glyph name="copyright" format="2">
  <advance width="876"/>
  <unicode hex="00A9"/>
  <outline>
    <contour>
      <point x="433" y="102" type="curve" smooth="yes"/>
      <point x="490" y="102"/>
      <point x="579" y="123"/>
      <point x="642" y="204" type="curve"/>
      <point x="613" y="235" type="line"/>
      <point x="574" y="189"/>
      <point x="510" y="162"/>
      <point x="466" y="162" type="curve" smooth="yes"/>
      <point x="361" y="162"/>
      <point x="287" y="247"/>
      <point x="293" y="358" type="curve"/>
      <point x="299" y="481"/>
      <point x="388" y="548"/>
      <point x="464" y="548" type="curve" smooth="yes"/>
      <point x="533" y="548"/>
      <point x="586" y="513"/>
      <point x="592" y="426" type="curve"/>
      <point x="630" y="426" type="line"/>
      <point x="639" y="594" type="line"/>
      <point x="591" y="594" type="line"/>
      <point x="592" y="558" type="line"/>
      <point x="559" y="583"/>
      <point x="512" y="599"/>
      <point x="463" y="599" type="curve" smooth="yes"/>
      <point x="302" y="599"/>
      <point x="210" y="464"/>
      <point x="204" y="346" type="curve" smooth="yes"/>
      <point x="197" y="209"/>
      <point x="295" y="102"/>
    </contour>
    <contour>
      <point x="420" y="-50" type="curve" smooth="yes"/>
      <point x="642" y="-50"/>
      <point x="826" y="127"/>
      <point x="837" y="348" type="curve"/>
      <point x="849" y="570"/>
      <point x="697" y="750"/>
      <point x="463" y="750" type="curve" smooth="yes"/>
      <point x="232" y="750"/>
      <point x="58" y="570"/>
      <point x="46" y="348" type="curve"/>
      <point x="34" y="116"/>
      <point x="182" y="-50"/>
    </contour>
    <contour>
      <point x="424" y="-2" type="curve" smooth="yes"/>
      <point x="216" y="-2"/>
      <point x="100" y="161"/>
      <point x="110" y="348" type="curve"/>
      <point x="121" y="546"/>
      <point x="259" y="704"/>
      <point x="458" y="704" type="curve" smooth="yes"/>
      <point x="659" y="704"/>
      <point x="783" y="536"/>
      <point x="773" y="348" type="curve"/>
      <point x="764" y="161"/>
      <point x="626" y="-2"/>
    </contour>
  </outline>
</glyph>
<glyph name="logicalnot" format="2">
  <advance width="530"/>
  <unicode hex="00AC"/>
  <outline>
    <contour>
      <point x="431" y="157" type="line"/>
      <point x="483" y="157" type="line"/>
      <point x="493" y="342" type="line"/>
      <point x="47" y="344" type="line"/>
      <point x="44" y="282" type="line"/>
      <point x="435" y="284" type="line"/>
    </contour>
  </outline>
</glyph>
<glyph name="twosuperior" format="2">
  <advance width="374"/>
  <unicode hex="00B2"/>
  <outline>
    <contour>
      <point x="210" y="716" type="curve" smooth="yes"/>
      <point x="129" y="716"/>
      <point x="81" y="657"/>
      <point x="81" y="615" type="curve" smooth="yes"/>
      <point x="81" y="597"/>
      <point x="94" y="584"/>
      <point x="109" y="584" type="curve" smooth="yes"/>
      <point x="126" y="584"/>
      <point x="138" y="598"/>
      <point x="138" y="612" type="curve" smooth="yes"/>
      <point x="138" y="620"/>
      <point x="137" y="629"/>
      <point x="129" y="637" type="curve"/>
      <point x="134" y="659"/>
      <point x="161" y="682"/>
      <point x="195" y="682" type="curve" smooth="yes"/>
      <point x="238" y="682"/>
      <point x="259" y="651"/>
      <point x="257" y="608" type="curve" smooth="yes"/>
      <point x="255" y="580"/>
      <point x="243" y="538"/>
      <point x="185" y="492" type="curve" smooth="yes"/>
      <point x="120" y="441"/>
      <point x="62" y="389"/>
      <point x="58" y="306" type="curve"/>
      <point x="314" y="306" type="line"/>
      <point x="323" y="398" type="line"/>
      <point x="299" y="398" type="line"/>
      <point x="296" y="352"/>
      <point x="256" y="356"/>
      <point x="200" y="358" type="curve" smooth="yes"/>
      <point x="111" y="360" type="line"/>
      <point x="121" y="390"/>
      <point x="151" y="419"/>
      <point x="199" y="453" type="curve" smooth="yes"/>
      <point x="305" y="527"/>
      <point x="323" y="570"/>
      <point x="325" y="609" type="curve" smooth="yes"/>
      <point x="329" y="683"/>
      <point x="272" y="716"/>
    </contour>
  </outline>
</glyph>
<glyph name="acute" format="2">
  <advance width="240"/>
  <unicode hex="00B4"/>
  <anchor x="111" y="512" name="_top"/>
  <outline>
    <contour>
      <point x="69" y="579" type="line"/>
      <point x="172" y="686" type="line" smooth="yes"/>
      <point x="207" y="723"/>
      <point x="193" y="747"/>
      <point x="185" y="755" type="curve" smooth="yes"/>
      <point x="179" y="761"/>
      <point x="150" y="777"/>
      <point x="123" y="731" type="curve" smooth="yes"/>
      <point x="45" y="599" type="line"/>
    </contour>
  </outline>
</glyph>
<glyph name="cedilla" format="2">
  <advance width="293"/>
  <unicode hex="00B8"/>
  <anchor x="135" y="0" name="_bottom"/>
  <outline>
    <contour>
      <point x="49" y="-240" type="line"/>
      <point x="118" y="-230"/>
      <point x="240" y="-204"/>
      <point x="247" y="-123" type="curve" smooth="yes"/>
      <point x="250" y="-87"/>
      <point x="225" y="-58"/>
      <point x="181" y="-58" type="curve" smooth="yes"/>
      <point x="158" y="-58"/>
      <point x="133" y="-65"/>
      <point x="114" y="-77" type="curve"/>
      <point x="144" y="8" type="line"/>
      <point x="94" y="8" type="line"/>
      <point x="59" y="-100" type="line"/>
      <point x="93" y="-117" type="line"/>
      <point x="122" y="-97"/>
      <point x="173" y="-92"/>
      <point x="173" y="-133" type="curve" smooth="yes"/>
      <point x="173" y="-172"/>
      <point x="113" y="-197"/>
      <point x="45" y="-209" type="curve"/>
    </contour>
  </outline>
</glyph>
<glyph name="onesuperior" format="2">
  <advance width="270"/>
  <unicode hex="00B9"/>
  <outline>
    <contour>
      <point x="74" y="311" type="line"/>
      <point x="227" y="311" type="line"/>
      <point x="229" y="345" type="line"/>
      <point x="212" y="344"/>
      <point x="194" y="344"/>
      <point x="177" y="343" type="curve"/>
      <point x="180" y="354"/>
      <point x="181" y="367"/>
      <point x="182" y="382" type="curve" smooth="yes"/>
      <point x="198" y="716" type="line"/>
      <point x="173" y="716" type="line"/>
      <point x="60" y="635" type="line"/>
      <point x="74" y="609" type="line"/>
      <point x="140" y="646" type="line"/>
      <point x="128" y="412" type="line" smooth="yes"/>
      <point x="126" y="372"/>
      <point x="116" y="339"/>
      <point x="75" y="339" type="curve"/>
    </contour>
  </outline>
</glyph>
<glyph name="AE" format="2">
  <advance width="955"/>
  <unicode hex="00C6"/>
  <outline>
    <contour>
      <point x="-24" y="0" type="line"/>
      <point x="162" y="0" type="line"/>
      <point x="164" y="44" type="line"/>
      <point x="87" y="40" type="line"/>
      <point x="87" y="41" type="line"/>
      <point x="114" y="79"/>
      <point x="142" y="116"/>
      <point x="169" y="154" type="curve"/>
      <point x="214" y="216" type="line"/>
      <point x="295" y="218"/>
      <point x="377" y="219"/>
      <point x="458" y="221" type="curve"/>
      <point x="453" y="130" type="line" smooth="yes"/>
      <point x="450" y="69"/>
      <point x="439" y="37"/>
      <point x="379" y="36" type="curve"/>
      <point x="377" y="0" type="line"/>
      <point x="889" y="0" type="line"/>
      <point x="905" y="195" type="line"/>
      <point x="871" y="195" type="line"/>
      <point x="865" y="77"/>
      <point x="808" y="36"/>
      <point x="721" y="37" type="curve" smooth="yes"/>
      <point x="528" y="40" type="line"/>
      <point x="531" y="57"/>
      <point x="533" y="82"/>
      <point x="535" y="118" type="curve" smooth="yes"/>
      <point x="547" y="345" type="line"/>
      <point x="571" y="346"/>
      <point x="596" y="347"/>
      <point x="621" y="347" type="curve" smooth="yes"/>
      <point x="705" y="347"/>
      <point x="739" y="347"/>
      <point x="735" y="259" type="curve"/>
      <point x="768" y="259" type="line"/>
      <point x="779" y="477" type="line"/>
      <point x="746" y="477" type="line"/>
      <point x="742" y="389"/>
      <point x="707" y="383"/>
      <point x="623" y="383" type="curve" smooth="yes"/>
      <point x="549" y="383" type="line"/>
      <point x="558" y="544" type="line" smooth="yes"/>
      <point x="563" y="625"/>
      <point x="565" y="661"/>
      <point x="640" y="663" type="curve" smooth="yes"/>
      <point x="726" y="665" type="line" smooth="yes"/>
      <point x="801" y="667"/>
      <point x="860" y="643"/>
      <point x="854" y="525" type="curve"/>
      <point x="887" y="525" type="line"/>
      <point x="891" y="700" type="line"/>
      <point x="395" y="700" type="line"/>
      <point x="393" y="656" type="line"/>
      <point x="423" y="657"/>
      <point x="453" y="659"/>
      <point x="483" y="660" type="curve"/>
      <point x="94" y="125" type="line" smooth="yes"/>
      <point x="65" y="85"/>
      <point x="30" y="33"/>
      <point x="-22" y="33" type="curve"/>
    </contour>
    <contour>
      <point x="245" y="259" type="line"/>
      <point x="381" y="450" type="line"/>
      <point x="412" y="494"/>
      <point x="444" y="538"/>
      <point x="475" y="582" type="curve"/>
      <point x="476" y="582" type="line"/>
      <point x="460" y="259" type="line"/>
    </contour>
  </outline>
</glyph>
<glyph name="multiply" format="2">
  <advance width="530"/>
  <unicode hex="00D7"/>
  <outline>
    <contour>
      <point x="141" y="539" type="line"/>
      <point x="103" y="504" type="line"/>
      <point x="403" y="188" type="line"/>
      <point x="440" y="224" type="line"/>
    </contour>
    <contour>
      <point x="450" y="501" type="line"/>
      <point x="418" y="535" type="line"/>
      <point x="86" y="219" type="line"/>
      <point x="118" y="185" type="line"/>
    </contour>
  </outline>
</glyph>
<glyph name="Thorn" format="2">
  <advance width="577"/>
  <unicode hex="00DE"/>
  <outline>
    <contour>
      <point x="41" y="0" type="line"/>
      <point x="262" y="0" type="line"/>
      <point x="264" y="44" type="line"/>
      <point x="240" y="43"/>
      <point x="216" y="41"/>
      <point x="192" y="40" type="curve"/>
      <point x="196" y="59"/>
      <point x="197" y="68"/>
      <point x="201" y="159" type="curve"/>
      <point x="206" y="159"/>
      <point x="212" y="159"/>
      <point x="217" y="159" type="curve" smooth="yes"/>
      <point x="491" y="159"/>
      <point x="559" y="298"/>
      <point x="559" y="392" type="curve" smooth="yes"/>
      <point x="559" y="508"/>
      <point x="468" y="578"/>
      <point x="275" y="578" type="curve" smooth="yes"/>
      <point x="259" y="578"/>
      <point x="241" y="578"/>
      <point x="223" y="577" type="curve"/>
      <point x="227" y="633"/>
      <point x="235" y="664"/>
      <point x="297" y="667" type="curve"/>
      <point x="299" y="700" type="line"/>
      <point x="78" y="700" type="line"/>
      <point x="76" y="656" type="line"/>
      <point x="100" y="657"/>
      <point x="124" y="659"/>
      <point x="148" y="660" type="curve"/>
      <point x="145" y="640"/>
      <point x="143" y="615"/>
      <point x="141" y="588" type="curve" smooth="yes"/>
      <point x="118" y="156" type="line"/>
      <point x="115" y="85"/>
      <point x="118" y="36"/>
      <point x="43" y="33" type="curve"/>
    </contour>
    <contour>
      <point x="203" y="198" type="curve"/>
      <point x="221" y="538" type="line"/>
      <point x="244" y="539"/>
      <point x="262" y="539"/>
      <point x="267" y="539" type="curve" smooth="yes"/>
      <point x="389" y="539"/>
      <point x="472" y="491"/>
      <point x="465" y="375" type="curve" smooth="yes"/>
      <point x="459" y="268"/>
      <point x="374" y="199"/>
      <point x="248" y="198" type="curve" smooth="yes"/>
      <point x="231" y="198"/>
      <point x="218" y="197"/>
    </contour>
  </outline>
</glyph>
<glyph name="icircumflex" format="2">
  <advance width="324"/>
  <unicode hex="00EE"/>
  <outline>
    <contour>
      <point x="133" y="511" type="curve" smooth="yes"/>
      <point x="53" y="511"/>
      <point x="16" y="417"/>
      <point x="7" y="370" type="curve"/>
      <point x="35" y="364" type="line"/>
      <point x="55" y="435"/>
      <point x="86" y="461"/>
      <point x="108" y="461" type="curve" smooth="yes"/>
      <point x="131" y="461"/>
      <point x="136" y="433"/>
      <point x="136" y="416" type="curve" smooth="yes"/>
      <point x="136" y="302"/>
      <point x="97" y="199"/>
      <point x="97" y="83" type="curve" smooth="yes"/>
      <point x="97" y="21"/>
      <point x="126" y="-11"/>
      <point x="187" y="-11" type="curve" smooth="yes"/>
      <point x="262" y="-11"/>
      <point x="299" y="74"/>
      <point x="311" y="130" type="curve"/>
      <point x="283" y="136" type="line"/>
      <point x="263" y="65"/>
      <point x="232" y="39"/>
      <point x="210" y="39" type="curve" smooth="yes"/>
      <point x="188" y="39"/>
      <point x="179" y="54"/>
      <point x="179" y="81" type="curve" smooth="yes"/>
      <point x="179" y="193"/>
      <point x="217" y="327"/>
      <point x="217" y="407" type="curve" smooth="yes"/>
      <point x="217" y="469"/>
      <point x="189" y="511"/>
    </contour>
    <contour>
      <point x="171" y="776" type="line"/>
      <point x="169" y="776" type="line"/>
      <point x="11" y="619" type="line"/>
      <point x="33" y="593" type="line"/>
      <point x="159" y="702" type="line"/>
      <point x="161" y="702" type="line"/>
      <point x="271" y="589" type="line"/>
      <point x="297" y="615" type="line"/>
    </contour>
  </outline>
</glyph>
<glyph name="eth" format="2">
  <advance width="516"/>
  <unicode hex="00F0"/>
  <outline>
    <contour>
      <point x="331" y="802" type="line"/>
      <point x="273" y="736" type="line"/>
      <point x="230" y="755"/>
      <point x="179" y="763"/>
      <point x="119" y="758" type="curve"/>
      <point x="119" y="725" type="line"/>
      <point x="169" y="726"/>
      <point x="209" y="717"/>
      <point x="242" y="702" type="curve"/>
      <point x="179" y="632" type="line"/>
      <point x="213" y="600" type="line"/>
      <point x="278" y="679" type="line"/>
      <point x="342" y="627"/>
      <point x="365" y="541"/>
      <point x="372" y="454" type="curve"/>
      <point x="343" y="489"/>
      <point x="306" y="501"/>
      <point x="264" y="503" type="curve" smooth="yes"/>
      <point x="146" y="507"/>
      <point x="40" y="392"/>
      <point x="40" y="209" type="curve" smooth="yes"/>
      <point x="40" y="64"/>
      <point x="120" y="-11"/>
      <point x="210" y="-11" type="curve" smooth="yes"/>
      <point x="340" y="-11"/>
      <point x="457" y="78"/>
      <point x="457" y="348" type="curve" smooth="yes"/>
      <point x="457" y="508"/>
      <point x="414" y="648"/>
      <point x="310" y="716" type="curve"/>
      <point x="360" y="776" type="line"/>
    </contour>
    <contour>
      <point x="264" y="463" type="curve" smooth="yes"/>
      <point x="330" y="463"/>
      <point x="376" y="427"/>
      <point x="376" y="352" type="curve" smooth="yes"/>
      <point x="376" y="229"/>
      <point x="343" y="27"/>
      <point x="228" y="27" type="curve" smooth="yes"/>
      <point x="170" y="27"/>
      <point x="126" y="96"/>
      <point x="126" y="220" type="curve" smooth="yes"/>
      <point x="126" y="379"/>
      <point x="204" y="463"/>
    </contour>
  </outline>
</glyph>
<glyph name="thorn" format="2">
  <advance width="512"/>
  <unicode hex="00FE"/>
  <outline>
    <contour>
      <point x="196" y="755" type="curve"/>
      <point x="167" y="755" type="line"/>
      <point x="151" y="741"/>
      <point x="128" y="728"/>
      <point x="40" y="728" type="curve"/>
      <point x="36" y="688" type="line"/>
      <point x="60" y="689"/>
      <point x="84" y="691"/>
      <point x="108" y="692" type="curve"/>
      <point x="104" y="669"/>
      <point x="103" y="648"/>
      <point x="101" y="619" type="curve" smooth="yes"/>
      <point x="80" y="350"/>
      <point x="69" y="191"/>
      <point x="50" y="-86" type="curve" smooth="yes"/>
      <point x="45" y="-164"/>
      <point x="45" y="-225"/>
      <point x="-11" y="-225" type="curve"/>
      <point x="-11" y="-255" type="line"/>
      <point x="178" y="-255" type="line"/>
      <point x="178" y="-214" type="line"/>
      <point x="157" y="-215"/>
      <point x="136" y="-216"/>
      <point x="115" y="-217" type="curve"/>
      <point x="121" y="-194"/>
      <point x="121" y="-161"/>
      <point x="123" y="-134" type="curve"/>
      <point x="129" y="-7" type="line"/>
      <point x="152" y="-10"/>
      <point x="173" y="-11"/>
      <point x="189" y="-11" type="curve" smooth="yes"/>
      <point x="387" y="-11"/>
      <point x="466" y="142"/>
      <point x="466" y="326" type="curve" smooth="yes"/>
      <point x="466" y="423"/>
      <point x="433" y="511"/>
      <point x="341" y="511" type="curve" smooth="yes"/>
      <point x="281" y="511"/>
      <point x="201" y="491"/>
      <point x="148" y="298" type="curve"/>
      <point x="145" y="299" type="line"/>
      <point x="155" y="405"/>
      <point x="165" y="498"/>
      <point x="173" y="586" type="curve" smooth="yes"/>
      <point x="178" y="631"/>
      <point x="187" y="699"/>
    </contour>
    <contour>
      <point x="312" y="464" type="curve" smooth="yes"/>
      <point x="359" y="466"/>
      <point x="378" y="409"/>
      <point x="380" y="318" type="curve" smooth="yes"/>
      <point x="382" y="196"/>
      <point x="352" y="26"/>
      <point x="206" y="24" type="curve" smooth="yes"/>
      <point x="180" y="24"/>
      <point x="145" y="31"/>
      <point x="129" y="47" type="curve"/>
      <point x="133" y="214"/>
      <point x="217" y="460"/>
    </contour>
  </outline>
</glyph>
<glyph name="hbar" format="2">
  <advance width="594"/>
  <unicode hex="0127"/>
  <outline>
    <contour>
      <point x="390" y="618" type="line"/>
      <point x="45" y="618" type="line"/>
      <point x="43" y="575" type="line"/>
      <point x="388" y="579" type="line"/>
    </contour>
    <component base="h" xOffset="23"/>
  </outline>
</glyph>
<glyph name="lslash" format="2">
  <advance width="291"/>
  <unicode hex="0142"/>
  <outline>
    <contour>
      <point x="217" y="755" type="line"/>
      <point x="188" y="755" type="line"/>
      <point x="172" y="741"/>
      <point x="149" y="728"/>
      <point x="61" y="728" type="curve"/>
      <point x="57" y="688" type="line"/>
      <point x="128" y="692" type="line"/>
      <point x="118" y="646"/>
      <point x="94" y="441"/>
      <point x="83" y="342" type="curve"/>
      <point x="2" y="285" type="line"/>
      <point x="-1" y="229" type="line"/>
      <point x="78" y="285" type="line"/>
      <point x="69" y="189"/>
      <point x="63" y="107"/>
      <point x="64" y="70" type="curve" smooth="yes"/>
      <point x="65" y="17"/>
      <point x="90" y="-11"/>
      <point x="144" y="-11" type="curve" smooth="yes"/>
      <point x="224" y="-11"/>
      <point x="265" y="83"/>
      <point x="274" y="129" type="curve"/>
      <point x="245" y="136" type="line"/>
      <point x="225" y="64"/>
      <point x="195" y="39"/>
      <point x="173" y="39" type="curve" smooth="yes"/>
      <point x="147" y="39"/>
      <point x="145" y="65"/>
      <point x="145" y="91" type="curve" smooth="yes"/>
      <point x="145" y="143"/>
      <point x="153" y="242"/>
      <point x="163" y="344" type="curve"/>
      <point x="277" y="424" type="line"/>
      <point x="280" y="478" type="line"/>
      <point x="168" y="400" type="line"/>
    </contour>
  </outline>
</glyph>
<glyph name="Eng" format="2">
  <advance width="762"/>
  <unicode hex="014A"/>
  <guideline x="613" y="305" angle="90"/>
  <guideline x="661" y="305" angle="90"/>
  <outline>
    <contour>
      <point x="642" y="43" type="line"/>
      <point x="595" y="43" type="line"/>
      <point x="588" y="-87" type="line" smooth="yes"/>
      <point x="583" y="-186"/>
      <point x="529" y="-226"/>
      <point x="482" y="-226" type="curve" smooth="yes"/>
      <point x="471" y="-226"/>
      <point x="455" y="-221"/>
      <point x="449" y="-210" type="curve"/>
      <point x="452" y="-204"/>
      <point x="453" y="-194"/>
      <point x="453" y="-187" type="curve" smooth="yes"/>
      <point x="453" y="-167"/>
      <point x="439" y="-141"/>
      <point x="406" y="-143" type="curve" smooth="yes"/>
      <point x="378" y="-145"/>
      <point x="362" y="-168"/>
      <point x="362" y="-195" type="curve" smooth="yes"/>
      <point x="362" y="-238"/>
      <point x="406" y="-266"/>
      <point x="473" y="-266" type="curve" smooth="yes"/>
      <point x="573" y="-266"/>
      <point x="629" y="-204"/>
      <point x="639" y="-16" type="curve" smooth="yes"/>
    </contour>
    <component base="N"/>
  </outline>
</glyph>
<glyph name="OE" format="2">
  <advance width="1012"/>
  <unicode hex="0152"/>
  <outline>
    <contour>
      <point x="366" y="-16" type="curve" smooth="yes"/>
      <point x="405" y="-16"/>
      <point x="452" y="-11"/>
      <point x="504" y="0" type="curve"/>
      <point x="946" y="0" type="line"/>
      <point x="962" y="195" type="line"/>
      <point x="928" y="195" type="line"/>
      <point x="922" y="76"/>
      <point x="864" y="34"/>
      <point x="777" y="37" type="curve" smooth="yes"/>
      <point x="585" y="43" type="line"/>
      <point x="588" y="60"/>
      <point x="591" y="85"/>
      <point x="592" y="121" type="curve"/>
      <point x="604" y="343" type="line"/>
      <point x="626" y="346"/>
      <point x="655" y="347"/>
      <point x="678" y="347" type="curve" smooth="yes"/>
      <point x="762" y="347"/>
      <point x="796" y="347"/>
      <point x="792" y="259" type="curve"/>
      <point x="826" y="259" type="line"/>
      <point x="836" y="477" type="line"/>
      <point x="803" y="477" type="line"/>
      <point x="799" y="389"/>
      <point x="765" y="383"/>
      <point x="681" y="383" type="curve" smooth="yes"/>
      <point x="606" y="383" type="line"/>
      <point x="615" y="544" type="line" smooth="yes"/>
      <point x="620" y="625"/>
      <point x="623" y="661"/>
      <point x="697" y="663" type="curve" smooth="yes"/>
      <point x="783" y="665" type="line" smooth="yes"/>
      <point x="858" y="667"/>
      <point x="917" y="643"/>
      <point x="912" y="525" type="curve"/>
      <point x="944" y="525" type="line"/>
      <point x="948" y="700" type="line"/>
      <point x="542" y="700" type="line"/>
      <point x="499" y="708"/>
      <point x="451" y="717"/>
      <point x="412" y="716" type="curve" smooth="yes"/>
      <point x="177" y="710"/>
      <point x="59" y="517"/>
      <point x="49" y="329" type="curve" smooth="yes"/>
      <point x="39" y="130"/>
      <point x="163" y="-16"/>
    </contour>
    <contour>
      <point x="398" y="31" type="curve" smooth="yes"/>
      <point x="227" y="31"/>
      <point x="134" y="155"/>
      <point x="143" y="344" type="curve" smooth="yes"/>
      <point x="151" y="550"/>
      <point x="273" y="674"/>
      <point x="416" y="674" type="curve" smooth="yes"/>
      <point x="454" y="674"/>
      <point x="501" y="666"/>
      <point x="539" y="651" type="curve"/>
      <point x="537" y="616"/>
      <point x="535" y="580"/>
      <point x="533" y="545" type="curve"/>
      <point x="507" y="47" type="line"/>
      <point x="466" y="36"/>
      <point x="435" y="31"/>
    </contour>
  </outline>
</glyph>
<glyph name="Uhorn" format="2">
  <advance width="744"/>
  <unicode hex="01AF"/>
  <anchor x="359" y="0" name="bottom"/>
  <anchor x="480" y="5" name="ogonek"/>
  <anchor x="408" y="702" name="top"/>
  <anchor x="737" y="700" name="topright"/>
  <outline>
    <contour>
      <point x="678" y="700" type="line"/>
      <point x="556" y="700" type="line"/>
      <point x="554" y="656" type="line"/>
      <point x="578" y="657"/>
      <point x="602" y="659"/>
      <point x="626" y="660" type="curve"/>
      <point x="623" y="640"/>
      <point x="621" y="615"/>
      <point x="619" y="588" type="curve" smooth="yes"/>
      <point x="601" y="306" type="line" smooth="yes"/>
      <point x="590" y="150"/>
      <point x="525" y="41"/>
      <point x="381" y="41" type="curve" smooth="yes"/>
      <point x="202" y="41"/>
      <point x="181" y="186"/>
      <point x="189" y="335" type="curve" smooth="yes"/>
      <point x="202" y="588" type="line" smooth="yes"/>
      <point x="204" y="615"/>
      <point x="208" y="667"/>
      <point x="276" y="667" type="curve"/>
      <point x="278" y="700" type="line"/>
      <point x="56" y="700" type="line"/>
      <point x="54" y="657" type="line"/>
      <point x="78" y="658"/>
      <point x="102" y="659"/>
      <point x="126" y="660" type="curve"/>
      <point x="122" y="634"/>
      <point x="120" y="614"/>
      <point x="118" y="579" type="curve" smooth="yes"/>
      <point x="105" y="340" type="line" smooth="yes"/>
      <point x="92" y="93"/>
      <point x="152" y="-16"/>
      <point x="366" y="-16" type="curve" smooth="yes"/>
      <point x="566" y="-16"/>
      <point x="642" y="137"/>
      <point x="652" y="311" type="curve" smooth="yes"/>
    </contour>
    <component base="horncomb" xOffset="552" yOffset="196"/>
  </outline>
</glyph>
<glyph name="caron" format="2">
  <advance width="399"/>
  <unicode hex="02C7"/>
  <anchor x="191" y="512" name="_top"/>
  <outline>
    <contour>
      <point x="185" y="580" type="line"/>
      <point x="187" y="580" type="line"/>
      <point x="354" y="744" type="line"/>
      <point x="332" y="770" type="line"/>
      <point x="192" y="652" type="line"/>
      <point x="190" y="652" type="line"/>
      <point x="68" y="766" type="line"/>
      <point x="45" y="741" type="line"/>
    </contour>
  </outline>
</glyph>
<glyph name="strokeshortcomb" format="2">
  <unicode hex="0335"/>
  <anchor x="260" y="327" name="_center"/>
  <outline>
    <contour>
      <point x="96" y="308" type="line"/>
      <point x="422" y="312" type="line"/>
      <point x="424" y="346" type="line"/>
      <point x="98" y="346" type="line"/>
    </contour>
  </outline>
</glyph>
<glyph name="Omega" format="2">
  <advance width="767"/>
  <unicode hex="03A9"/>
  <outline>
    <contour>
      <point x="59" y="0" type="line"/>
      <point x="321" y="0" type="line"/>
      <point x="325" y="73" type="line"/>
      <point x="238" y="84"/>
      <point x="142" y="190"/>
      <point x="152" y="377" type="curve"/>
      <point x="159" y="525"/>
      <point x="247" y="676"/>
      <point x="399" y="676" type="curve" smooth="yes"/>
      <point x="555" y="676"/>
      <point x="631" y="531"/>
      <point x="615" y="357" type="curve"/>
      <point x="602" y="211"/>
      <point x="510" y="95"/>
      <point x="425" y="73" type="curve"/>
      <point x="421" y="0" type="line"/>
      <point x="686" y="0" type="line"/>
      <point x="699" y="133" type="line"/>
      <point x="669" y="133" type="line"/>
      <point x="666" y="75"/>
      <point x="627" y="64"/>
      <point x="542" y="63" type="curve" smooth="yes"/>
      <point x="465" y="62" type="line"/>
      <point x="465" y="63" type="line"/>
      <point x="579" y="106"/>
      <point x="699" y="227"/>
      <point x="712" y="377" type="curve" smooth="yes"/>
      <point x="724" y="518"/>
      <point x="638" y="716"/>
      <point x="404" y="716" type="curve" smooth="yes"/>
      <point x="178" y="716"/>
      <point x="63" y="537"/>
      <point x="58" y="379" type="curve" smooth="yes"/>
      <point x="53" y="229"/>
      <point x="150" y="106"/>
      <point x="279" y="63" type="curve"/>
      <point x="279" y="62" type="line"/>
      <point x="209" y="63" type="line" smooth="yes"/>
      <point x="124" y="64"/>
      <point x="87" y="75"/>
      <point x="90" y="133" type="curve"/>
      <point x="60" y="133" type="line"/>
    </contour>
  </outline>
</glyph>
<glyph name="pi" format="2">
  <advance width="578"/>
  <unicode hex="03C0"/>
  <outline>
    <contour>
      <point x="59" y="-16" type="curve" smooth="yes"/>
      <point x="112" y="-16"/>
      <point x="144" y="23"/>
      <point x="163" y="75" type="curve" smooth="yes"/>
      <point x="194" y="156"/>
      <point x="199" y="274"/>
      <point x="208" y="448" type="curve"/>
      <point x="266" y="443"/>
      <point x="321" y="428"/>
      <point x="392" y="424" type="curve"/>
      <point x="385" y="312"/>
      <point x="379" y="200"/>
      <point x="372" y="88" type="curve" smooth="yes"/>
      <point x="369" y="51"/>
      <point x="368" y="-16"/>
      <point x="439" y="-16" type="curve" smooth="yes"/>
      <point x="478" y="-16"/>
      <point x="518" y="11"/>
      <point x="536" y="34" type="curve"/>
      <point x="524" y="50" type="line"/>
      <point x="512" y="42"/>
      <point x="500" y="38"/>
      <point x="490" y="38" type="curve" smooth="yes"/>
      <point x="462" y="38"/>
      <point x="448" y="62"/>
      <point x="452" y="131" type="curve" smooth="yes"/>
      <point x="457" y="231"/>
      <point x="463" y="330"/>
      <point x="468" y="430" type="curve"/>
      <point x="509" y="443"/>
      <point x="539" y="471"/>
      <point x="554" y="490" type="curve"/>
      <point x="539" y="511" type="line"/>
      <point x="500" y="491"/>
      <point x="475" y="485"/>
      <point x="440" y="485" type="curve" smooth="yes"/>
      <point x="364" y="485"/>
      <point x="285" y="511"/>
      <point x="182" y="511" type="curve" smooth="yes"/>
      <point x="119" y="511"/>
      <point x="74" y="480"/>
      <point x="44" y="446" type="curve"/>
      <point x="60" y="424" type="line"/>
      <point x="95" y="441"/>
      <point x="118" y="449"/>
      <point x="170" y="449" type="curve"/>
      <point x="165" y="343"/>
      <point x="155" y="79"/>
      <point x="92" y="56" type="curve"/>
      <point x="82" y="68"/>
      <point x="69" y="74"/>
      <point x="53" y="74" type="curve" smooth="yes"/>
      <point x="31" y="74"/>
      <point x="10" y="56"/>
      <point x="10" y="28" type="curve" smooth="yes"/>
      <point x="10" y="3"/>
      <point x="30" y="-16"/>
    </contour>
  </outline>
</glyph>
<glyph name="Lje-cy" format="2">
  <advance width="966"/>
  <unicode hex="0409"/>
  <outline>
    <contour>
      <point x="80" y="-16" type="curve" smooth="yes"/>
      <point x="242" y="-16"/>
      <point x="328" y="257"/>
      <point x="370" y="605" type="curve"/>
      <point x="375" y="636"/>
      <point x="393" y="656"/>
      <point x="435" y="659" type="curve"/>
      <point x="527" y="660" type="line"/>
      <point x="524" y="640"/>
      <point x="521" y="615"/>
      <point x="520" y="588" type="curve" smooth="yes"/>
      <point x="497" y="161" type="line" smooth="yes"/>
      <point x="493" y="86"/>
      <point x="496" y="35"/>
      <point x="422" y="33" type="curve"/>
      <point x="419" y="0" type="line"/>
      <point x="708" y="0" type="line" smooth="yes"/>
      <point x="834" y="0"/>
      <point x="941" y="68"/>
      <point x="941" y="205" type="curve" smooth="yes"/>
      <point x="941" y="321"/>
      <point x="865" y="389"/>
      <point x="675" y="385" type="curve" smooth="yes"/>
      <point x="592" y="383" type="line"/>
      <point x="601" y="554" type="line" smooth="yes"/>
      <point x="604" y="625"/>
      <point x="606" y="664"/>
      <point x="676" y="667" type="curve"/>
      <point x="678" y="700" type="line"/>
      <point x="221" y="700" type="line"/>
      <point x="219" y="656" type="line"/>
      <point x="327" y="657" type="line"/>
      <point x="296" y="308"/>
      <point x="188" y="25"/>
      <point x="98" y="25" type="curve" smooth="yes"/>
      <point x="92" y="25"/>
      <point x="89" y="26"/>
      <point x="85" y="28" type="curve"/>
      <point x="91" y="35"/>
      <point x="91" y="41"/>
      <point x="92" y="50" type="curve" smooth="yes"/>
      <point x="95" y="71"/>
      <point x="81" y="99"/>
      <point x="48" y="99" type="curve" smooth="yes"/>
      <point x="19" y="99"/>
      <point x="3" y="75"/>
      <point x="1" y="48" type="curve" smooth="yes"/>
      <point x="-1" y="4"/>
      <point x="31" y="-16"/>
    </contour>
    <contour>
      <point x="571" y="41" type="curve"/>
      <point x="574" y="58"/>
      <point x="576" y="83"/>
      <point x="578" y="119" type="curve" smooth="yes"/>
      <point x="590" y="344" type="line"/>
      <point x="622" y="346"/>
      <point x="653" y="347"/>
      <point x="693" y="347" type="curve" smooth="yes"/>
      <point x="775" y="347"/>
      <point x="853" y="308"/>
      <point x="847" y="195" type="curve" smooth="yes"/>
      <point x="841" y="90"/>
      <point x="770" y="39"/>
      <point x="677" y="39" type="curve" smooth="yes"/>
      <point x="664" y="39"/>
      <point x="602" y="38"/>
    </contour>
  </outline>
</glyph>
<glyph name="Nje-cy" format="2">
  <advance width="1028"/>
  <unicode hex="040A"/>
  <outline>
    <contour>
      <point x="41" y="0" type="line"/>
      <point x="262" y="0" type="line"/>
      <point x="264" y="44" type="line"/>
      <point x="192" y="40" type="line"/>
      <point x="195" y="57"/>
      <point x="197" y="83"/>
      <point x="199" y="119" type="curve" smooth="yes"/>
      <point x="210" y="339" type="line"/>
      <point x="559" y="343" type="line"/>
      <point x="561" y="383" type="line"/>
      <point x="212" y="383" type="line"/>
      <point x="222" y="556" type="line" smooth="yes"/>
      <point x="226" y="627"/>
      <point x="232" y="664"/>
      <point x="297" y="667" type="curve"/>
      <point x="299" y="700" type="line"/>
      <point x="78" y="700" type="line"/>
      <point x="76" y="656" type="line"/>
      <point x="148" y="660" type="line"/>
      <point x="145" y="640"/>
      <point x="143" y="615"/>
      <point x="141" y="588" type="curve" smooth="yes"/>
      <point x="118" y="156" type="line" smooth="yes"/>
      <point x="114" y="85"/>
      <point x="118" y="36"/>
      <point x="43" y="33" type="curve"/>
    </contour>
    <component base="Softsign-cy" xOffset="430"/>
  </outline>
</glyph>
<glyph name="Dzhe-cy" format="2">
  <advance width="754"/>
  <unicode hex="040F"/>
  <outline>
    <contour>
      <point x="348" y="-177" type="curve"/>
      <point x="390" y="-177" type="line"/>
      <point x="400" y="15" type="line"/>
      <point x="276" y="17" type="line"/>
      <point x="276" y="0" type="line"/>
      <point x="342" y="0"/>
      <point x="354" y="-63"/>
    </contour>
    <component base="Pe-cy" xScale="-1" yScale="-1" xOffset="762" yOffset="700"/>
  </outline>
</glyph>
<glyph name="Be-cy" format="2">
  <advance width="619"/>
  <unicode hex="0411"/>
  <outline>
    <contour>
      <point x="40" y="0" type="line"/>
      <point x="329" y="0" type="line" smooth="yes"/>
      <point x="464" y="0"/>
      <point x="572" y="68"/>
      <point x="572" y="212" type="curve" smooth="yes"/>
      <point x="572" y="335"/>
      <point x="496" y="404"/>
      <point x="297" y="399" type="curve" smooth="yes"/>
      <point x="213" y="397" type="line"/>
      <point x="222" y="552" type="line" smooth="yes"/>
      <point x="226" y="622"/>
      <point x="227" y="662"/>
      <point x="295" y="663" type="curve" smooth="yes"/>
      <point x="383" y="665" type="line" smooth="yes"/>
      <point x="458" y="667"/>
      <point x="520" y="643"/>
      <point x="514" y="525" type="curve"/>
      <point x="547" y="525" type="line"/>
      <point x="551" y="700" type="line"/>
      <point x="76" y="700" type="line"/>
      <point x="74" y="656" type="line"/>
      <point x="98" y="657"/>
      <point x="123" y="659"/>
      <point x="147" y="660" type="curve"/>
      <point x="144" y="640"/>
      <point x="141" y="615"/>
      <point x="140" y="588" type="curve" smooth="yes"/>
      <point x="118" y="161" type="line" smooth="yes"/>
      <point x="114" y="86"/>
      <point x="117" y="35"/>
      <point x="42" y="33" type="curve"/>
    </contour>
    <contour>
      <point x="298" y="39" type="curve" smooth="yes"/>
      <point x="285" y="39"/>
      <point x="223" y="38"/>
      <point x="192" y="41" type="curve"/>
      <point x="195" y="58"/>
      <point x="197" y="83"/>
      <point x="199" y="119" type="curve" smooth="yes"/>
      <point x="211" y="359" type="line"/>
      <point x="243" y="361"/>
      <point x="274" y="362"/>
      <point x="314" y="362" type="curve" smooth="yes"/>
      <point x="405" y="362"/>
      <point x="484" y="323"/>
      <point x="479" y="202" type="curve" smooth="yes"/>
      <point x="474" y="90"/>
      <point x="401" y="39"/>
    </contour>
  </outline>
</glyph>
<glyph name="Ge-cy" format="2">
  <advance width="541"/>
  <unicode hex="0413"/>
  <anchor x="181" y="0" name="bottomright"/>
  <anchor x="276" y="350" name="center"/>
  <anchor x="294" y="700" name="top"/>
  <outline>
    <contour>
      <point x="41" y="0" type="line"/>
      <point x="292" y="0" type="line"/>
      <point x="294" y="44" type="line"/>
      <point x="260" y="43"/>
      <point x="226" y="41"/>
      <point x="192" y="40" type="curve"/>
      <point x="195" y="57"/>
      <point x="198" y="83"/>
      <point x="199" y="119" type="curve"/>
      <point x="222" y="552" type="line"/>
      <point x="225" y="622"/>
      <point x="229" y="661"/>
      <point x="297" y="663" type="curve" smooth="yes"/>
      <point x="370" y="665" type="line" smooth="yes"/>
      <point x="445" y="667"/>
      <point x="507" y="643"/>
      <point x="501" y="525" type="curve"/>
      <point x="534" y="525" type="line"/>
      <point x="538" y="700" type="line"/>
      <point x="78" y="700" type="line"/>
      <point x="76" y="656" type="line"/>
      <point x="100" y="657"/>
      <point x="125" y="659"/>
      <point x="149" y="660" type="curve"/>
      <point x="146" y="640"/>
      <point x="143" y="615"/>
      <point x="142" y="588" type="curve" smooth="yes"/>
      <point x="118" y="156" type="line" smooth="yes"/>
      <point x="115" y="85"/>
      <point x="118" y="36"/>
      <point x="43" y="33" type="curve"/>
    </contour>
  </outline>
</glyph>
<glyph name="Ze-cy" format="2">
  <advance width="595"/>
  <unicode hex="0417"/>
  <anchor x="285" y="0" name="bottom"/>
  <anchor x="321" y="700" name="top"/>
  <outline>
    <contour>
      <point x="290" y="-17" type="curve" smooth="yes"/>
      <point x="418" y="-17"/>
      <point x="540" y="57"/>
      <point x="548" y="191" type="curve" smooth="yes"/>
      <point x="554" y="285"/>
      <point x="496" y="363"/>
      <point x="354" y="367" type="curve"/>
      <point x="354" y="369" type="line"/>
      <point x="455" y="379"/>
      <point x="523" y="456"/>
      <point x="529" y="545" type="curve" smooth="yes"/>
      <point x="536" y="650"/>
      <point x="454" y="716"/>
      <point x="325" y="716" type="curve" smooth="yes"/>
      <point x="266" y="716"/>
      <point x="199" y="697"/>
      <point x="148" y="655" type="curve"/>
      <point x="155" y="709" type="line"/>
      <point x="101" y="709" type="line"/>
      <point x="89" y="477" type="line"/>
      <point x="125" y="477" type="line"/>
      <point x="160" y="608"/>
      <point x="233" y="675"/>
      <point x="320" y="675" type="curve" smooth="yes"/>
      <point x="389" y="675"/>
      <point x="442" y="637"/>
      <point x="437" y="539" type="curve" smooth="yes"/>
      <point x="433" y="462"/>
      <point x="393" y="388"/>
      <point x="280" y="386" type="curve" smooth="yes"/>
      <point x="195" y="386" type="line"/>
      <point x="193" y="342" type="line"/>
      <point x="273" y="343" type="line"/>
      <point x="397" y="339"/>
      <point x="457" y="298"/>
      <point x="451" y="202" type="curve" smooth="yes"/>
      <point x="445" y="89"/>
      <point x="365" y="31"/>
      <point x="261" y="31" type="curve" smooth="yes"/>
      <point x="180" y="31"/>
      <point x="112" y="71"/>
      <point x="51" y="146" type="curve"/>
      <point x="24" y="125" type="line"/>
      <point x="86" y="26"/>
      <point x="188" y="-17"/>
    </contour>
  </outline>
</glyph>
<glyph name="Pe-cy" format="2">
  <advance width="754"/>
  <unicode hex="041F"/>
  <anchor x="720" y="0" name="bottomright"/>
  <outline>
    <contour>
      <point x="41" y="0" type="line"/>
      <point x="262" y="0" type="line"/>
      <point x="264" y="44" type="line"/>
      <point x="240" y="43"/>
      <point x="216" y="41"/>
      <point x="192" y="40" type="curve"/>
      <point x="195" y="57"/>
      <point x="197" y="83"/>
      <point x="199" y="119" type="curve" smooth="yes"/>
      <point x="222" y="546" type="line" smooth="yes"/>
      <point x="226" y="615"/>
      <point x="231" y="651"/>
      <point x="289" y="657" type="curve"/>
      <point x="570" y="660" type="line"/>
      <point x="567" y="640"/>
      <point x="564" y="615"/>
      <point x="563" y="588" type="curve" smooth="yes"/>
      <point x="540" y="156" type="line" smooth="yes"/>
      <point x="537" y="85"/>
      <point x="540" y="36"/>
      <point x="465" y="33" type="curve"/>
      <point x="463" y="0" type="line"/>
      <point x="684" y="0" type="line"/>
      <point x="686" y="44" type="line"/>
      <point x="662" y="43"/>
      <point x="638" y="41"/>
      <point x="614" y="40" type="curve"/>
      <point x="617" y="57"/>
      <point x="619" y="83"/>
      <point x="621" y="119" type="curve" smooth="yes"/>
      <point x="644" y="557" type="line" smooth="yes"/>
      <point x="647" y="628"/>
      <point x="653" y="664"/>
      <point x="719" y="667" type="curve"/>
      <point x="721" y="700" type="line"/>
      <point x="78" y="700" type="line"/>
      <point x="76" y="656" type="line"/>
      <point x="100" y="657"/>
      <point x="124" y="659"/>
      <point x="148" y="660" type="curve"/>
      <point x="145" y="640"/>
      <point x="143" y="615"/>
      <point x="141" y="588" type="curve" smooth="yes"/>
      <point x="118" y="156" type="line" smooth="yes"/>
      <point x="114" y="85"/>
      <point x="118" y="36"/>
      <point x="43" y="33" type="curve"/>
    </contour>
  </outline>
</glyph>
<glyph name="U-cy" format="2">
  <advance width="611"/>
  <unicode hex="0423"/>
  <anchor x="349" y="700" name="top"/>
  <outline>
    <contour>
      <point x="174" y="-17" type="curve" smooth="yes"/>
      <point x="244" y="-17"/>
      <point x="281" y="39"/>
      <point x="333" y="149" type="curve" smooth="yes"/>
      <point x="515" y="540" type="line" smooth="yes"/>
      <point x="553" y="622"/>
      <point x="570" y="663"/>
      <point x="645" y="667" type="curve"/>
      <point x="646" y="700" type="line"/>
      <point x="442" y="700" type="line"/>
      <point x="440" y="656" type="line"/>
      <point x="519" y="659" type="line"/>
      <point x="504" y="642"/>
      <point x="483" y="592"/>
      <point x="468" y="552" type="curve"/>
      <point x="333" y="247" type="line"/>
      <point x="331" y="247" type="line"/>
      <point x="317" y="281"/>
      <point x="302" y="315"/>
      <point x="288" y="349" type="curve"/>
      <point x="200" y="558" type="line" smooth="yes"/>
      <point x="173" y="622"/>
      <point x="174" y="667"/>
      <point x="258" y="667" type="curve"/>
      <point x="260" y="700" type="line"/>
      <point x="19" y="700" type="line"/>
      <point x="17" y="656" type="line"/>
      <point x="79" y="658" type="line"/>
      <point x="82" y="633"/>
      <point x="90" y="599"/>
      <point x="113" y="546" type="curve" smooth="yes"/>
      <point x="290" y="155" type="line"/>
      <point x="259" y="90"/>
      <point x="232" y="28"/>
      <point x="198" y="28" type="curve" smooth="yes"/>
      <point x="189" y="28"/>
      <point x="187" y="29"/>
      <point x="183" y="32" type="curve"/>
      <point x="189" y="39"/>
      <point x="192" y="45"/>
      <point x="193" y="57" type="curve"/>
      <point x="194" y="78"/>
      <point x="181" y="101"/>
      <point x="149" y="100" type="curve" smooth="yes"/>
      <point x="118" y="99"/>
      <point x="96" y="79"/>
      <point x="96" y="44" type="curve" smooth="yes"/>
      <point x="96" y="0"/>
      <point x="133" y="-17"/>
    </contour>
  </outline>
</glyph>
<glyph name="Sha-cy" format="2">
  <advance width="1007"/>
  <unicode hex="0428"/>
  <outline>
    <contour>
      <point x="41" y="0" type="line"/>
      <point x="937" y="0" type="line"/>
      <point x="938" y="44" type="line"/>
      <point x="914" y="43"/>
      <point x="891" y="41"/>
      <point x="867" y="40" type="curve"/>
      <point x="870" y="57"/>
      <point x="872" y="83"/>
      <point x="874" y="119" type="curve" smooth="yes"/>
      <point x="896" y="557" type="line" smooth="yes"/>
      <point x="900" y="628"/>
      <point x="906" y="664"/>
      <point x="972" y="667" type="curve"/>
      <point x="974" y="700" type="line"/>
      <point x="752" y="700" type="line"/>
      <point x="750" y="656" type="line"/>
      <point x="774" y="657"/>
      <point x="799" y="659"/>
      <point x="823" y="660" type="curve"/>
      <point x="820" y="640"/>
      <point x="817" y="615"/>
      <point x="815" y="588" type="curve" smooth="yes"/>
      <point x="792" y="156" type="line" smooth="yes"/>
      <point x="790" y="85"/>
      <point x="792" y="41"/>
      <point x="718" y="40" type="curve" smooth="yes"/>
      <point x="531" y="40" type="line"/>
      <point x="534" y="57"/>
      <point x="536" y="83"/>
      <point x="538" y="119" type="curve" smooth="yes"/>
      <point x="561" y="557" type="line" smooth="yes"/>
      <point x="564" y="628"/>
      <point x="570" y="664"/>
      <point x="636" y="667" type="curve"/>
      <point x="638" y="700" type="line"/>
      <point x="417" y="700" type="line"/>
      <point x="415" y="656" type="line"/>
      <point x="439" y="657"/>
      <point x="463" y="659"/>
      <point x="487" y="660" type="curve"/>
      <point x="484" y="640"/>
      <point x="481" y="615"/>
      <point x="479" y="588" type="curve" smooth="yes"/>
      <point x="457" y="156" type="line" smooth="yes"/>
      <point x="454" y="85"/>
      <point x="457" y="42"/>
      <point x="382" y="40" type="curve" smooth="yes"/>
      <point x="192" y="40" type="line"/>
      <point x="195" y="57"/>
      <point x="197" y="83"/>
      <point x="199" y="119" type="curve" smooth="yes"/>
      <point x="222" y="556" type="line" smooth="yes"/>
      <point x="226" y="627"/>
      <point x="232" y="664"/>
      <point x="297" y="667" type="curve"/>
      <point x="299" y="700" type="line"/>
      <point x="78" y="700" type="line"/>
      <point x="76" y="656" type="line"/>
      <point x="100" y="657"/>
      <point x="124" y="659"/>
      <point x="148" y="660" type="curve"/>
      <point x="145" y="640"/>
      <point x="143" y="615"/>
      <point x="141" y="588" type="curve" smooth="yes"/>
      <point x="118" y="156" type="line" smooth="yes"/>
      <point x="114" y="85"/>
      <point x="118" y="36"/>
      <point x="43" y="33" type="curve"/>
    </contour>
  </outline>
</glyph>
<glyph name="Shcha-cy" format="2">
  <advance width="1001"/>
  <unicode hex="0429"/>
  <outline>
    <contour>
      <point x="896" y="-177" type="curve"/>
      <point x="938" y="-177" type="line"/>
      <point x="950" y="45" type="line"/>
      <point x="867" y="40" type="line"/>
      <point x="824" y="0" type="line"/>
      <point x="890" y="0"/>
      <point x="902" y="-63"/>
    </contour>
    <component base="Sha-cy"/>
  </outline>
</glyph>
<glyph name="Hardsign-cy" format="2">
  <advance width="726"/>
  <unicode hex="042A"/>
  <outline>
    <contour>
      <point x="169" y="0" type="line"/>
      <point x="458" y="0" type="line" smooth="yes"/>
      <point x="593" y="0"/>
      <point x="701" y="68"/>
      <point x="701" y="205" type="curve" smooth="yes"/>
      <point x="701" y="321"/>
      <point x="625" y="390"/>
      <point x="426" y="385" type="curve" smooth="yes"/>
      <point x="342" y="383" type="line"/>
      <point x="351" y="554" type="line" smooth="yes"/>
      <point x="354" y="625"/>
      <point x="355" y="664"/>
      <point x="425" y="667" type="curve"/>
      <point x="427" y="700" type="line"/>
      <point x="53" y="700" type="line"/>
      <point x="36" y="489" type="line"/>
      <point x="73" y="489" type="line"/>
      <point x="79" y="607"/>
      <point x="113" y="662"/>
      <point x="197" y="662" type="curve" smooth="yes"/>
      <point x="278" y="662" type="line"/>
      <point x="273" y="642"/>
      <point x="271" y="616"/>
      <point x="269" y="588" type="curve" smooth="yes"/>
      <point x="247" y="161" type="line" smooth="yes"/>
      <point x="243" y="86"/>
      <point x="246" y="35"/>
      <point x="171" y="33" type="curve"/>
    </contour>
    <contour>
      <point x="321" y="41" type="curve"/>
      <point x="324" y="58"/>
      <point x="326" y="83"/>
      <point x="328" y="119" type="curve" smooth="yes"/>
      <point x="340" y="344" type="line"/>
      <point x="372" y="346"/>
      <point x="403" y="347"/>
      <point x="443" y="347" type="curve" smooth="yes"/>
      <point x="534" y="347"/>
      <point x="613" y="308"/>
      <point x="607" y="195" type="curve" smooth="yes"/>
      <point x="602" y="90"/>
      <point x="530" y="39"/>
      <point x="427" y="39" type="curve" smooth="yes"/>
      <point x="414" y="39"/>
      <point x="352" y="38"/>
    </contour>
  </outline>
</glyph>
<glyph name="Ereversed-cy" format="2">
  <advance width="703"/>
  <unicode hex="042D"/>
  <anchor x="355" y="700" name="top"/>
  <outline>
    <contour>
      <point x="309" y="-16" type="curve" smooth="yes"/>
      <point x="520" y="-16"/>
      <point x="651" y="163"/>
      <point x="662" y="362" type="curve" smooth="yes"/>
      <point x="672" y="540"/>
      <point x="572" y="716"/>
      <point x="349" y="716" type="curve" smooth="yes"/>
      <point x="284" y="716"/>
      <point x="210" y="696"/>
      <point x="147" y="651" type="curve"/>
      <point x="154" y="709" type="line"/>
      <point x="100" y="709" type="line"/>
      <point x="88" y="477" type="line"/>
      <point x="124" y="477" type="line"/>
      <point x="145" y="602"/>
      <point x="209" y="675"/>
      <point x="338" y="675" type="curve" smooth="yes"/>
      <point x="467" y="675"/>
      <point x="564" y="563"/>
      <point x="565" y="384" type="curve"/>
      <point x="229" y="383" type="line"/>
      <point x="241" y="469" type="line"/>
      <point x="197" y="469" type="line"/>
      <point x="185" y="259" type="line"/>
      <point x="218" y="259" type="line"/>
      <point x="223" y="347"/>
      <point x="257" y="348"/>
      <point x="342" y="347" type="curve" smooth="yes"/>
      <point x="563" y="344" type="line"/>
      <point x="550" y="161"/>
      <point x="434" y="36"/>
      <point x="290" y="36" type="curve" smooth="yes"/>
      <point x="203" y="36"/>
      <point x="105" y="76"/>
      <point x="55" y="151" type="curve"/>
      <point x="28" y="130" type="line"/>
      <point x="108" y="11"/>
      <point x="227" y="-16"/>
    </contour>
  </outline>
</glyph>
<glyph name="Iu-cy" format="2">
  <advance width="1019"/>
  <unicode hex="042E"/>
  <outline>
    <contour>
      <point x="627" y="-16" type="curve" smooth="yes"/>
      <point x="858" y="-16"/>
      <point x="977" y="187"/>
      <point x="977" y="369" type="curve" smooth="yes"/>
      <point x="977" y="546"/>
      <point x="879" y="716"/>
      <point x="659" y="716" type="curve" smooth="yes"/>
      <point x="482" y="716"/>
      <point x="352" y="569"/>
      <point x="332" y="378" type="curve"/>
      <point x="212" y="378" type="line"/>
      <point x="222" y="556" type="line" smooth="yes"/>
      <point x="226" y="627"/>
      <point x="232" y="664"/>
      <point x="297" y="667" type="curve"/>
      <point x="299" y="700" type="line"/>
      <point x="78" y="700" type="line"/>
      <point x="76" y="656" type="line"/>
      <point x="100" y="657"/>
      <point x="124" y="659"/>
      <point x="148" y="660" type="curve"/>
      <point x="145" y="640"/>
      <point x="143" y="615"/>
      <point x="141" y="588" type="curve" smooth="yes"/>
      <point x="118" y="156" type="line" smooth="yes"/>
      <point x="114" y="85"/>
      <point x="118" y="36"/>
      <point x="43" y="33" type="curve"/>
      <point x="41" y="0" type="line"/>
      <point x="262" y="0" type="line"/>
      <point x="264" y="44" type="line"/>
      <point x="240" y="43"/>
      <point x="216" y="41"/>
      <point x="192" y="40" type="curve"/>
      <point x="195" y="57"/>
      <point x="197" y="83"/>
      <point x="199" y="119" type="curve" smooth="yes"/>
      <point x="210" y="334" type="line"/>
      <point x="329" y="338" type="line"/>
      <point x="329" y="124"/>
      <point x="447" y="-16"/>
    </contour>
    <contour>
      <point x="632" y="25" type="curve" smooth="yes"/>
      <point x="485" y="25"/>
      <point x="422" y="184"/>
      <point x="424" y="349" type="curve" smooth="yes"/>
      <point x="426" y="522"/>
      <point x="517" y="676"/>
      <point x="653" y="676" type="curve" smooth="yes"/>
      <point x="798" y="676"/>
      <point x="881" y="534"/>
      <point x="881" y="353" type="curve" smooth="yes"/>
      <point x="881" y="179"/>
      <point x="790" y="25"/>
    </contour>
  </outline>
</glyph>
<glyph name="ve-cy" format="2">
  <advance width="467"/>
  <unicode hex="0432"/>
  <outline>
    <contour>
      <point x="221" y="-11" type="curve" smooth="yes"/>
      <point x="339" y="-11"/>
      <point x="426" y="66"/>
      <point x="426" y="166" type="curve" smooth="yes"/>
      <point x="426" y="240"/>
      <point x="375" y="315"/>
      <point x="210" y="259" type="curve"/>
      <point x="218" y="236" type="line"/>
      <point x="299" y="261"/>
      <point x="341" y="210"/>
      <point x="341" y="141" type="curve" smooth="yes"/>
      <point x="341" y="72"/>
      <point x="305" y="27"/>
      <point x="244" y="27" type="curve" smooth="yes"/>
      <point x="164" y="27"/>
      <point x="130" y="102"/>
      <point x="126" y="212" type="curve"/>
      <point x="218" y="236" type="line"/>
      <point x="215" y="249" type="line"/>
      <point x="347" y="280"/>
      <point x="402" y="349"/>
      <point x="402" y="413" type="curve" smooth="yes"/>
      <point x="402" y="482"/>
      <point x="338" y="511"/>
      <point x="271" y="511" type="curve" smooth="yes"/>
      <point x="118" y="511"/>
      <point x="39" y="360"/>
      <point x="39" y="205" type="curve" smooth="yes"/>
      <point x="39" y="75"/>
      <point x="97" y="-11"/>
    </contour>
    <contour>
      <point x="127" y="250" type="curve"/>
      <point x="135" y="373"/>
      <point x="184" y="477"/>
      <point x="261" y="477" type="curve" smooth="yes"/>
      <point x="301" y="477"/>
      <point x="315" y="449"/>
      <point x="315" y="406" type="curve" smooth="yes"/>
      <point x="315" y="330"/>
      <point x="270" y="283"/>
    </contour>
  </outline>
</glyph>
<glyph name="ge-cy" format="2">
  <advance width="442"/>
  <unicode hex="0433"/>
  <anchor x="375" y="0" name="bottomright"/>
  <anchor x="200" y="256" name="center"/>
  <anchor x="253" y="512" name="top"/>
  <outline>
    <contour>
      <point x="212" y="-17" type="curve" smooth="yes"/>
      <point x="296" y="-17"/>
      <point x="359" y="25"/>
      <point x="410" y="107" type="curve"/>
      <point x="384" y="124" type="line"/>
      <point x="341" y="59"/>
      <point x="291" y="27"/>
      <point x="229" y="27" type="curve" smooth="yes"/>
      <point x="177" y="27"/>
      <point x="136" y="55"/>
      <point x="138" y="107" type="curve" smooth="yes"/>
      <point x="141" y="161"/>
      <point x="183" y="201"/>
      <point x="255" y="245" type="curve" smooth="yes"/>
      <point x="345" y="300"/>
      <point x="396" y="339"/>
      <point x="399" y="406" type="curve" smooth="yes"/>
      <point x="402" y="473"/>
      <point x="346" y="512"/>
      <point x="253" y="512" type="curve" smooth="yes"/>
      <point x="177" y="512"/>
      <point x="99" y="477"/>
      <point x="41" y="396" type="curve"/>
      <point x="71" y="376" type="line"/>
      <point x="111" y="439"/>
      <point x="180" y="471"/>
      <point x="224" y="471" type="curve" smooth="yes"/>
      <point x="271" y="471"/>
      <point x="306" y="451"/>
      <point x="306" y="403" type="curve" smooth="yes"/>
      <point x="306" y="356"/>
      <point x="278" y="327"/>
      <point x="223" y="292" type="curve" smooth="yes"/>
      <point x="129" y="233"/>
      <point x="46" y="191"/>
      <point x="41" y="106" type="curve" smooth="yes"/>
      <point x="37" y="26"/>
      <point x="107" y="-17"/>
    </contour>
  </outline>
</glyph>
<glyph name="ze-cy" format="2">
  <advance width="438"/>
  <unicode hex="0437"/>
  <anchor x="206" y="0" name="bottom"/>
  <anchor x="228" y="512" name="top"/>
  <outline>
    <contour>
      <point x="196" y="-11" type="curve" smooth="yes"/>
      <point x="318" y="-11"/>
      <point x="396" y="61"/>
      <point x="396" y="154" type="curve" smooth="yes"/>
      <point x="396" y="217"/>
      <point x="350" y="270"/>
      <point x="266" y="276" type="curve"/>
      <point x="266" y="278" type="line"/>
      <point x="346" y="314"/>
      <point x="382" y="363"/>
      <point x="382" y="414" type="curve" smooth="yes"/>
      <point x="382" y="480"/>
      <point x="323" y="511"/>
      <point x="242" y="511" type="curve" smooth="yes"/>
      <point x="149" y="512"/>
      <point x="62" y="460"/>
      <point x="67" y="390" type="curve" smooth="yes"/>
      <point x="67" y="362"/>
      <point x="86" y="345"/>
      <point x="110" y="345" type="curve" smooth="yes"/>
      <point x="134" y="345"/>
      <point x="151" y="362"/>
      <point x="151" y="384" type="curve" smooth="yes"/>
      <point x="151" y="406"/>
      <point x="144" y="421"/>
      <point x="117" y="425" type="curve"/>
      <point x="135" y="455"/>
      <point x="171" y="477"/>
      <point x="221" y="477" type="curve" smooth="yes"/>
      <point x="277" y="477"/>
      <point x="303" y="452"/>
      <point x="303" y="401" type="curve" smooth="yes"/>
      <point x="303" y="342"/>
      <point x="265" y="300"/>
      <point x="162" y="269" type="curve"/>
      <point x="173" y="234" type="line"/>
      <point x="275" y="264"/>
      <point x="321" y="216"/>
      <point x="321" y="142" type="curve" smooth="yes"/>
      <point x="321" y="72"/>
      <point x="276" y="23"/>
      <point x="188" y="23" type="curve" smooth="yes"/>
      <point x="141" y="23"/>
      <point x="108" y="40"/>
      <point x="101" y="77" type="curve"/>
      <point x="112" y="89"/>
      <point x="114" y="103"/>
      <point x="114" y="115" type="curve" smooth="yes"/>
      <point x="114" y="130"/>
      <point x="103" y="156"/>
      <point x="71" y="155" type="curve" smooth="yes"/>
      <point x="45" y="155"/>
      <point x="29" y="135"/>
      <point x="29" y="106" type="curve" smooth="yes"/>
      <point x="29" y="40"/>
      <point x="93" y="-11"/>
    </contour>
  </outline>
</glyph>
<glyph name="ka-cy" format="2">
  <advance width="574"/>
  <unicode hex="043A"/>
  <anchor x="541" y="0" name="bottomright"/>
  <anchor x="287" y="256" name="center"/>
  <anchor x="300" y="512" name="top"/>
  <outline>
    <contour>
      <point x="438" y="-11" type="curve" smooth="yes"/>
      <point x="505" y="-11"/>
      <point x="539" y="45"/>
      <point x="551" y="102" type="curve"/>
      <point x="523" y="107" type="line"/>
      <point x="511" y="58"/>
      <point x="495" y="43"/>
      <point x="474" y="45" type="curve" smooth="yes"/>
      <point x="445" y="48"/>
      <point x="439" y="75"/>
      <point x="432" y="145" type="curve" smooth="yes"/>
      <point x="425" y="211"/>
      <point x="393" y="263"/>
      <point x="307" y="263" type="curve"/>
      <point x="307" y="272" type="line"/>
      <point x="174" y="272" type="line"/>
      <point x="173" y="243" type="line"/>
      <point x="280" y="244" type="line" smooth="yes"/>
      <point x="328" y="244"/>
      <point x="348" y="214"/>
      <point x="356" y="120" type="curve" smooth="yes"/>
      <point x="365" y="15"/>
      <point x="392" y="-11"/>
    </contour>
    <contour>
      <point x="101" y="0" type="curve"/>
      <point x="184" y="0" type="line"/>
      <point x="183" y="20"/>
      <point x="182" y="39"/>
      <point x="182" y="55" type="curve" smooth="yes"/>
      <point x="181" y="99"/>
      <point x="188" y="189"/>
      <point x="211" y="346" type="curve" smooth="yes"/>
      <point x="227" y="450"/>
      <point x="220" y="511"/>
      <point x="146" y="511" type="curve" smooth="yes"/>
      <point x="66" y="511"/>
      <point x="23" y="417"/>
      <point x="13" y="370" type="curve"/>
      <point x="41" y="364" type="line"/>
      <point x="62" y="435"/>
      <point x="94" y="461"/>
      <point x="116" y="461" type="curve" smooth="yes"/>
      <point x="144" y="461"/>
      <point x="143" y="430"/>
      <point x="142" y="403" type="curve" smooth="yes"/>
      <point x="140" y="348"/>
      <point x="104" y="155"/>
      <point x="101" y="36" type="curve" smooth="yes"/>
      <point x="101" y="20"/>
      <point x="100" y="8"/>
    </contour>
    <contour>
      <point x="233" y="254" type="line"/>
      <point x="278" y="254" type="line"/>
      <point x="323" y="254"/>
      <point x="363" y="299"/>
      <point x="386" y="363" type="curve" smooth="yes"/>
      <point x="405" y="414"/>
      <point x="417" y="435"/>
      <point x="436" y="447" type="curve"/>
      <point x="439" y="420"/>
      <point x="458" y="405"/>
      <point x="491" y="405" type="curve" smooth="yes"/>
      <point x="521" y="405"/>
      <point x="538" y="429"/>
      <point x="538" y="456" type="curve" smooth="yes"/>
      <point x="538" y="489"/>
      <point x="517" y="511"/>
      <point x="482" y="511" type="curve" smooth="yes"/>
      <point x="421" y="511"/>
      <point x="386" y="475"/>
      <point x="351" y="380" type="curve" smooth="yes"/>
      <point x="321" y="300"/>
      <point x="292" y="272"/>
      <point x="233" y="272" type="curve"/>
    </contour>
  </outline>
</glyph>
<glyph name="em-cy" format="2">
  <advance width="781"/>
  <unicode hex="043C"/>
  <outline>
    <contour>
      <point x="61" y="-10" type="curve"/>
      <point x="175" y="-10"/>
      <point x="212" y="124"/>
      <point x="299" y="428" type="curve"/>
      <point x="307" y="428" type="line"/>
      <point x="297" y="368"/>
      <point x="296" y="204"/>
      <point x="296" y="109" type="curve" smooth="yes"/>
      <point x="296" y="21"/>
      <point x="313" y="-11"/>
      <point x="361" y="-11" type="curve" smooth="yes"/>
      <point x="443" y="-11"/>
      <point x="490" y="91"/>
      <point x="610" y="428" type="curve"/>
      <point x="616" y="428" type="line"/>
      <point x="602" y="318"/>
      <point x="563" y="148"/>
      <point x="563" y="79" type="curve" smooth="yes"/>
      <point x="563" y="25"/>
      <point x="585" y="-11"/>
      <point x="637" y="-11" type="curve" smooth="yes"/>
      <point x="720" y="-11"/>
      <point x="761" y="83"/>
      <point x="770" y="130" type="curve"/>
      <point x="742" y="136" type="line"/>
      <point x="722" y="65"/>
      <point x="690" y="40"/>
      <point x="667" y="40" type="curve" smooth="yes"/>
      <point x="647" y="40"/>
      <point x="642" y="60"/>
      <point x="642" y="84" type="curve" smooth="yes"/>
      <point x="642" y="146"/>
      <point x="686" y="398"/>
      <point x="686" y="474" type="curve" smooth="yes"/>
      <point x="686" y="485"/>
      <point x="686" y="491"/>
      <point x="685" y="500" type="curve"/>
      <point x="593" y="500" type="line"/>
      <point x="478" y="163"/>
      <point x="415" y="42"/>
      <point x="391" y="42" type="curve" smooth="yes"/>
      <point x="378" y="42"/>
      <point x="377" y="56"/>
      <point x="375" y="100" type="curve" smooth="yes"/>
      <point x="370" y="222"/>
      <point x="376" y="342"/>
      <point x="376" y="466" type="curve" smooth="yes"/>
      <point x="376" y="478"/>
      <point x="375" y="489"/>
      <point x="373" y="500" type="curve"/>
      <point x="175" y="500" type="line"/>
      <point x="171" y="460" type="line"/>
      <point x="261" y="461" type="line"/>
      <point x="183" y="153"/>
      <point x="128" y="35"/>
      <point x="83" y="38" type="curve"/>
      <point x="84" y="42"/>
      <point x="85" y="46"/>
      <point x="85" y="53" type="curve" smooth="yes"/>
      <point x="85" y="76"/>
      <point x="63" y="92"/>
      <point x="42" y="92" type="curve" smooth="yes"/>
      <point x="15" y="92"/>
      <point x="-4" y="69"/>
      <point x="-4" y="44" type="curve" smooth="yes"/>
      <point x="-4" y="15"/>
      <point x="23" y="-10"/>
    </contour>
  </outline>
</glyph>
<glyph name="ef-cy" format="2">
  <advance width="729"/>
  <unicode hex="0444"/>
  <outline>
    <contour>
      <point x="235" y="-255" type="line"/>
      <point x="424" y="-255" type="line"/>
      <point x="424" y="-214" type="line"/>
      <point x="403" y="-215"/>
      <point x="382" y="-216"/>
      <point x="361" y="-217" type="curve"/>
      <point x="367" y="-194"/>
      <point x="367" y="-161"/>
      <point x="369" y="-134" type="curve" smooth="yes"/>
      <point x="403" y="318"/>
      <point x="410" y="402"/>
      <point x="434" y="585" type="curve" smooth="yes"/>
      <point x="439" y="630"/>
      <point x="453" y="705"/>
      <point x="460" y="755" type="curve"/>
      <point x="432" y="755" type="line"/>
      <point x="416" y="741"/>
      <point x="393" y="728"/>
      <point x="305" y="728" type="curve"/>
      <point x="300" y="688" type="line"/>
      <point x="324" y="689"/>
      <point x="348" y="691"/>
      <point x="372" y="692" type="curve"/>
      <point x="369" y="678"/>
      <point x="367" y="674"/>
      <point x="362" y="638" type="curve" smooth="yes"/>
      <point x="331" y="405"/>
      <point x="308" y="73"/>
      <point x="296" y="-85" type="curve" smooth="yes"/>
      <point x="290" y="-163"/>
      <point x="291" y="-225"/>
      <point x="235" y="-225" type="curve"/>
    </contour>
    <contour>
      <point x="221" y="-11" type="curve" smooth="yes"/>
      <point x="259" y="-11"/>
      <point x="290" y="-2"/>
      <point x="313" y="21" type="curve"/>
      <point x="315" y="71" type="line"/>
      <point x="296" y="41"/>
      <point x="268" y="27"/>
      <point x="230" y="27" type="curve" smooth="yes"/>
      <point x="153" y="29"/>
      <point x="125" y="154"/>
      <point x="127" y="246" type="curve" smooth="yes"/>
      <point x="129" y="374"/>
      <point x="182" y="474"/>
      <point x="271" y="474" type="curve" smooth="yes"/>
      <point x="313" y="474"/>
      <point x="331" y="455"/>
      <point x="349" y="422" type="curve"/>
      <point x="356" y="478" type="line"/>
      <point x="335" y="500"/>
      <point x="310" y="511"/>
      <point x="271" y="511" type="curve" smooth="yes"/>
      <point x="132" y="511"/>
      <point x="39" y="375"/>
      <point x="39" y="213" type="curve" smooth="yes"/>
      <point x="39" y="89"/>
      <point x="104" y="-11"/>
    </contour>
    <contour>
      <point x="463" y="-11" type="curve" smooth="yes"/>
      <point x="594" y="-11"/>
      <point x="684" y="131"/>
      <point x="684" y="292" type="curve" smooth="yes"/>
      <point x="684" y="432"/>
      <point x="602" y="511"/>
      <point x="508" y="511" type="curve" smooth="yes"/>
      <point x="466" y="511"/>
      <point x="436" y="495"/>
      <point x="410" y="473" type="curve"/>
      <point x="405" y="422" type="line"/>
      <point x="431" y="461"/>
      <point x="464" y="474"/>
      <point x="488" y="474" type="curve" smooth="yes"/>
      <point x="577" y="474"/>
      <point x="598" y="355"/>
      <point x="596" y="261" type="curve" smooth="yes"/>
      <point x="594" y="164"/>
      <point x="554" y="26"/>
      <point x="462" y="26" type="curve" smooth="yes"/>
      <point x="423" y="26"/>
      <point x="397" y="47"/>
      <point x="371" y="92" type="curve"/>
      <point x="361" y="41" type="line"/>
      <point x="386" y="10"/>
      <point x="419" y="-11"/>
    </contour>
  </outline>
</glyph>
<glyph name="tse-cy" format="2">
  <advance width="615"/>
  <unicode hex="0446"/>
  <anchor x="299" y="512" name="top"/>
  <outline>
    <contour>
      <point x="483" y="-212" type="line"/>
      <point x="568" y="-139"/>
      <point x="588" y="-70"/>
      <point x="553" y="-13" type="curve" smooth="yes"/>
      <point x="536" y="13"/>
      <point x="539" y="41"/>
      <point x="548" y="67" type="curve"/>
      <point x="555" y="87"/>
      <point x="562" y="108"/>
      <point x="569" y="128" type="curve"/>
      <point x="542" y="136" type="line"/>
      <point x="521" y="79"/>
      <point x="503" y="40"/>
      <point x="483" y="40" type="curve" smooth="yes"/>
      <point x="467" y="40"/>
      <point x="461" y="60"/>
      <point x="461" y="84" type="curve" smooth="yes"/>
      <point x="461" y="114"/>
      <point x="462" y="114"/>
      <point x="480" y="270" type="curve" smooth="yes"/>
      <point x="495" y="396"/>
      <point x="500" y="440"/>
      <point x="500" y="474" type="curve" smooth="yes"/>
      <point x="500" y="485"/>
      <point x="500" y="491"/>
      <point x="499" y="500" type="curve"/>
      <point x="415" y="500" type="line"/>
      <point x="416" y="483"/>
      <point x="417" y="467"/>
      <point x="417" y="447" type="curve" smooth="yes"/>
      <point x="417" y="278"/>
      <point x="320" y="36"/>
      <point x="228" y="36" type="curve" smooth="yes"/>
      <point x="189" y="36"/>
      <point x="181" y="76"/>
      <point x="181" y="99" type="curve" smooth="yes"/>
      <point x="181" y="183"/>
      <point x="214" y="338"/>
      <point x="214" y="414" type="curve" smooth="yes"/>
      <point x="214" y="476"/>
      <point x="186" y="511"/>
      <point x="133" y="511" type="curve" smooth="yes"/>
      <point x="53" y="511"/>
      <point x="15" y="417"/>
      <point x="6" y="370" type="curve"/>
      <point x="34" y="364" type="line"/>
      <point x="54" y="435"/>
      <point x="82" y="461"/>
      <point x="104" y="461" type="curve" smooth="yes"/>
      <point x="128" y="461"/>
      <point x="131" y="439"/>
      <point x="131" y="414" type="curve" smooth="yes"/>
      <point x="131" y="357"/>
      <point x="99" y="230"/>
      <point x="99" y="119" type="curve" smooth="yes"/>
      <point x="99" y="50"/>
      <point x="128" y="-11"/>
      <point x="208" y="-11" type="curve" smooth="yes"/>
      <point x="273" y="-11"/>
      <point x="329" y="31"/>
      <point x="397" y="213" type="curve"/>
      <point x="400" y="213" type="line"/>
      <point x="390" y="163"/>
      <point x="382" y="117"/>
      <point x="382" y="79" type="curve" smooth="yes"/>
      <point x="382" y="25"/>
      <point x="405" y="-11"/>
      <point x="444" y="-11" type="curve" smooth="yes"/>
      <point x="469" y="-11"/>
      <point x="485" y="-6"/>
      <point x="498" y="6" type="curve"/>
      <point x="507" y="1" type="line"/>
      <point x="493" y="-22"/>
      <point x="484" y="-50"/>
      <point x="496" y="-78" type="curve" smooth="yes"/>
      <point x="505" y="-100"/>
      <point x="509" y="-128"/>
      <point x="460" y="-189" type="curve"/>
    </contour>
  </outline>
</glyph>
<glyph name="ereversed-cy" format="2">
  <advance width="523"/>
  <unicode hex="044D"/>
  <anchor x="275" y="512" name="top"/>
  <outline>
    <contour>
      <point x="216" y="-16" type="curve" smooth="yes"/>
      <point x="371" y="-16"/>
      <point x="470" y="116"/>
      <point x="477" y="259" type="curve" smooth="yes"/>
      <point x="485" y="436"/>
      <point x="394" y="516"/>
      <point x="280" y="516" type="curve" smooth="yes"/>
      <point x="226" y="516"/>
      <point x="185" y="500"/>
      <point x="135" y="470" type="curve"/>
      <point x="140" y="511" type="line"/>
      <point x="98" y="511" type="line"/>
      <point x="88" y="336" type="line"/>
      <point x="120" y="336" type="line"/>
      <point x="128" y="405"/>
      <point x="181" y="470"/>
      <point x="270" y="470" type="curve" smooth="yes"/>
      <point x="354" y="470"/>
      <point x="396" y="393"/>
      <point x="388" y="234" type="curve" smooth="yes"/>
      <point x="381" y="105"/>
      <point x="307" y="25"/>
      <point x="216" y="25" type="curve" smooth="yes"/>
      <point x="168" y="25"/>
      <point x="135" y="39"/>
      <point x="114" y="75" type="curve"/>
      <point x="126" y="87"/>
      <point x="130" y="102"/>
      <point x="131" y="115" type="curve" smooth="yes"/>
      <point x="132" y="132"/>
      <point x="122" y="161"/>
      <point x="87" y="160" type="curve" smooth="yes"/>
      <point x="57" y="160"/>
      <point x="40" y="136"/>
      <point x="38" y="107" type="curve" smooth="yes"/>
      <point x="35" y="42"/>
      <point x="105" y="-16"/>
    </contour>
    <contour>
      <point x="160" y="234" type="line"/>
      <point x="407" y="236" type="line"/>
      <point x="409" y="275" type="line"/>
      <point x="163" y="275" type="line"/>
    </contour>
  </outline>
</glyph>
<glyph name="iu-cy" format="2">
  <advance width="736"/>
  <unicode hex="044E"/>
  <outline>
    <contour>
      <point x="97" y="0" type="curve"/>
      <point x="181" y="0" type="line"/>
      <point x="178" y="19"/>
      <point x="176" y="38"/>
      <point x="179" y="63" type="curve" smooth="yes"/>
      <point x="189" y="163"/>
      <point x="198" y="262"/>
      <point x="208" y="362" type="curve" smooth="yes"/>
      <point x="216" y="438"/>
      <point x="212" y="511"/>
      <point x="137" y="511" type="curve" smooth="yes"/>
      <point x="57" y="511"/>
      <point x="16" y="417"/>
      <point x="7" y="370" type="curve"/>
      <point x="35" y="364" type="line"/>
      <point x="55" y="435"/>
      <point x="86" y="461"/>
      <point x="108" y="461" type="curve" smooth="yes"/>
      <point x="131" y="461"/>
      <point x="135" y="440"/>
      <point x="135" y="416" type="curve" smooth="yes"/>
      <point x="135" y="386"/>
      <point x="134" y="382"/>
      <point x="116" y="226" type="curve" smooth="yes"/>
      <point x="101" y="100"/>
      <point x="96" y="60"/>
      <point x="96" y="26" type="curve" smooth="yes"/>
      <point x="96" y="15"/>
      <point x="96" y="9"/>
    </contour>
    <contour>
      <point x="461" y="-11" type="curve" smooth="yes"/>
      <point x="602" y="-11"/>
      <point x="691" y="131"/>
      <point x="691" y="292" type="curve" smooth="yes"/>
      <point x="691" y="432"/>
      <point x="609" y="511"/>
      <point x="516" y="511" type="curve" smooth="yes"/>
      <point x="377" y="511"/>
      <point x="284" y="375"/>
      <point x="284" y="213" type="curve" smooth="yes"/>
      <point x="284" y="89"/>
      <point x="344" y="-11"/>
    </contour>
    <contour>
      <point x="470" y="27" type="curve" smooth="yes"/>
      <point x="393" y="29"/>
      <point x="370" y="154"/>
      <point x="371" y="246" type="curve" smooth="yes"/>
      <point x="374" y="374"/>
      <point x="427" y="476"/>
      <point x="501" y="474" type="curve" smooth="yes"/>
      <point x="584" y="473"/>
      <point x="605" y="355"/>
      <point x="604" y="261" type="curve" smooth="yes"/>
      <point x="602" y="164"/>
      <point x="562" y="24"/>
    </contour>
    <contour>
      <point x="175" y="216" type="line"/>
      <point x="301" y="218" type="line"/>
      <point x="304" y="256" type="line"/>
      <point x="179" y="256" type="line"/>
    </contour>
  </outline>
</glyph>
<glyph name="e-cy" format="2">
  <advance width="473"/>
  <unicode hex="0454"/>
  <outline>
    <contour>
      <point x="111" y="234" type="line"/>
      <point x="333" y="236" type="line"/>
      <point x="335" y="275" type="line"/>
      <point x="113" y="275" type="line"/>
    </contour>
    <component base="c"/>
  </outline>
</glyph>
<glyph name="Yusbig-cy" format="2">
  <advance width="939"/>
  <unicode hex="046A"/>
  <outline>
    <contour>
      <point x="-20" y="0" type="line"/>
      <point x="87" y="0" type="line" smooth="yes"/>
      <point x="107" y="0"/>
      <point x="154" y="34"/>
      <point x="196" y="98" type="curve" smooth="yes"/>
      <point x="302" y="260" type="line" smooth="yes"/>
      <point x="323" y="291"/>
      <point x="339" y="317"/>
      <point x="371" y="341" type="curve"/>
      <point x="431" y="340" type="line"/>
      <point x="420" y="156" type="line" smooth="yes"/>
      <point x="416" y="85"/>
      <point x="420" y="36"/>
      <point x="345" y="33" type="curve"/>
      <point x="343" y="0" type="line"/>
      <point x="568" y="0" type="line"/>
      <point x="571" y="44" type="line"/>
      <point x="499" y="40" type="line"/>
      <point x="502" y="57"/>
      <point x="504" y="83"/>
      <point x="506" y="119" type="curve" smooth="yes"/>
      <point x="518" y="340" type="line"/>
      <point x="577" y="341" type="line"/>
      <point x="606" y="317"/>
      <point x="620" y="291"/>
      <point x="637" y="260" type="curve" smooth="yes"/>
      <point x="729" y="98" type="line" smooth="yes"/>
      <point x="765" y="35"/>
      <point x="810" y="0"/>
      <point x="830" y="0" type="curve" smooth="yes"/>
      <point x="932" y="0" type="line"/>
      <point x="934" y="33" type="line"/>
      <point x="891" y="33"/>
      <point x="857" y="52"/>
      <point x="803" y="149" type="curve" smooth="yes"/>
      <point x="723" y="291" type="line" smooth="yes"/>
      <point x="680" y="365"/>
      <point x="645" y="380"/>
      <point x="594" y="380" type="curve" smooth="yes"/>
      <point x="555" y="380" type="line"/>
      <point x="589" y="430"/>
      <point x="624" y="485"/>
      <point x="663" y="538" type="curve" smooth="yes"/>
      <point x="718" y="613"/>
      <point x="764" y="649"/>
      <point x="818" y="651" type="curve"/>
      <point x="822" y="651" type="line"/>
      <point x="822" y="700" type="line"/>
      <point x="163" y="700" type="line"/>
      <point x="163" y="640" type="line"/>
      <point x="233" y="641" type="line"/>
      <point x="239" y="616"/>
      <point x="252" y="584"/>
      <point x="280" y="545" type="curve" smooth="yes"/>
      <point x="397" y="380" type="line"/>
      <point x="358" y="380" type="line" smooth="yes"/>
      <point x="304" y="380"/>
      <point x="270" y="365"/>
      <point x="220" y="291" type="curve" smooth="yes"/>
      <point x="125" y="149" type="line" smooth="yes"/>
      <point x="61" y="52"/>
      <point x="25" y="33"/>
      <point x="-18" y="33" type="curve"/>
    </contour>
    <contour>
      <point x="496" y="363" type="line"/>
      <point x="447" y="427"/>
      <point x="406" y="496"/>
      <point x="366" y="558" type="curve" smooth="yes"/>
      <point x="327" y="619"/>
      <point x="353" y="644"/>
      <point x="415" y="644" type="curve" smooth="yes"/>
      <point x="695" y="649" type="line"/>
      <point x="676" y="631"/>
      <point x="663" y="614"/>
      <point x="640" y="583" type="curve" smooth="yes"/>
      <point x="590" y="516"/>
      <point x="550" y="438"/>
      <point x="498" y="363" type="curve"/>
    </contour>
  </outline>
</glyph>
<glyph name="Fita-cy" format="2">
  <advance width="788"/>
  <unicode hex="0472"/>
  <outline>
    <contour>
      <point x="510" y="285" type="curve" smooth="yes"/>
      <point x="561" y="285"/>
      <point x="611" y="312"/>
      <point x="647" y="355" type="curve"/>
      <point x="651" y="355" type="line"/>
      <point x="661" y="414" type="line"/>
      <point x="641" y="384"/>
      <point x="626" y="355"/>
      <point x="564" y="355" type="curve" smooth="yes"/>
      <point x="512" y="355"/>
      <point x="470" y="376"/>
      <point x="426" y="396" type="curve" smooth="yes"/>
      <point x="384" y="415"/>
      <point x="342" y="433"/>
      <point x="289" y="433" type="curve" smooth="yes"/>
      <point x="228" y="432"/>
      <point x="180" y="403"/>
      <point x="147" y="368" type="curve"/>
      <point x="139" y="368" type="line"/>
      <point x="139" y="309" type="line"/>
      <point x="161" y="337"/>
      <point x="202" y="361"/>
      <point x="248" y="361" type="curve" smooth="yes"/>
      <point x="296" y="361"/>
      <point x="345" y="340"/>
      <point x="392" y="320" type="curve" smooth="yes"/>
      <point x="433" y="302"/>
      <point x="473" y="285"/>
    </contour>
    <component base="O"/>
  </outline>
</glyph>
<glyph name="fita-cy" format="2">
  <advance width="521"/>
  <unicode hex="0473"/>
  <outline>
    <contour>
      <point x="286" y="511" type="curve" smooth="yes"/>
      <point x="132" y="511"/>
      <point x="39" y="375"/>
      <point x="39" y="213" type="curve" smooth="yes"/>
      <point x="39" y="89"/>
      <point x="99" y="-11"/>
      <point x="231" y="-11" type="curve" smooth="yes"/>
      <point x="386" y="-11"/>
      <point x="476" y="131"/>
      <point x="476" y="292" type="curve" smooth="yes"/>
      <point x="476" y="432"/>
      <point x="394" y="511"/>
    </contour>
    <contour>
      <point x="271" y="474" type="curve" smooth="yes"/>
      <point x="369" y="472"/>
      <point x="390" y="355"/>
      <point x="388" y="261" type="curve" smooth="yes"/>
      <point x="386" y="164"/>
      <point x="346" y="25"/>
      <point x="240" y="27" type="curve" smooth="yes"/>
      <point x="148" y="29"/>
      <point x="125" y="154"/>
      <point x="127" y="246" type="curve" smooth="yes"/>
      <point x="129" y="374"/>
      <point x="182" y="475"/>
    </contour>
    <contour>
      <point x="321" y="204" type="curve" smooth="yes"/>
      <point x="363" y="204"/>
      <point x="394" y="226"/>
      <point x="417" y="290" type="curve"/>
      <point x="412" y="294" type="line"/>
      <point x="396" y="268"/>
      <point x="359" y="259"/>
      <point x="332" y="259" type="curve" smooth="yes"/>
      <point x="307" y="259"/>
      <point x="289" y="270"/>
      <point x="271" y="281" type="curve" smooth="yes"/>
      <point x="252" y="292"/>
      <point x="231" y="303"/>
      <point x="202" y="302" type="curve" smooth="yes"/>
      <point x="161" y="301"/>
      <point x="120" y="265"/>
      <point x="102" y="220" type="curve"/>
      <point x="117" y="214" type="line"/>
      <point x="135" y="229"/>
      <point x="163" y="244"/>
      <point x="194" y="244" type="curve" smooth="yes"/>
      <point x="217" y="244"/>
      <point x="233" y="236"/>
      <point x="250" y="227" type="curve" smooth="yes"/>
      <point x="270" y="216"/>
      <point x="290" y="204"/>
    </contour>
  </outline>
</glyph>
<glyph name="izhitsa-cy" format="2">
  <advance width="552"/>
  <unicode hex="0475"/>
  <outline>
    <contour>
      <point x="198" y="-13" type="curve"/>
      <point x="241" y="-13" type="line"/>
      <point x="285" y="91"/>
      <point x="330" y="194"/>
      <point x="374" y="298" type="curve" smooth="yes"/>
      <point x="434" y="437"/>
      <point x="464" y="465"/>
      <point x="485" y="465" type="curve" smooth="yes"/>
      <point x="489" y="465"/>
      <point x="492" y="464"/>
      <point x="494" y="463" type="curve"/>
      <point x="493" y="459"/>
      <point x="491" y="452"/>
      <point x="491" y="448" type="curve" smooth="yes"/>
      <point x="490" y="432"/>
      <point x="502" y="412"/>
      <point x="534" y="412" type="curve" smooth="yes"/>
      <point x="563" y="413"/>
      <point x="580" y="434"/>
      <point x="581" y="463" type="curve" smooth="yes"/>
      <point x="582" y="489"/>
      <point x="562" y="516"/>
      <point x="514" y="516" type="curve" smooth="yes"/>
      <point x="434" y="516"/>
      <point x="394" y="440"/>
      <point x="358" y="361" type="curve" smooth="yes"/>
      <point x="327" y="293"/>
      <point x="291" y="214"/>
      <point x="250" y="110" type="curve"/>
      <point x="248" y="110" type="line"/>
      <point x="233" y="216"/>
      <point x="214" y="354"/>
      <point x="203" y="416" type="curve" smooth="yes"/>
      <point x="190" y="489"/>
      <point x="168" y="513"/>
      <point x="115" y="511" type="curve" smooth="yes"/>
      <point x="35" y="509"/>
      <point x="-1" y="416"/>
      <point x="-9" y="369" type="curve"/>
      <point x="19" y="362" type="line"/>
      <point x="38" y="434"/>
      <point x="65" y="460"/>
      <point x="87" y="460" type="curve" smooth="yes"/>
      <point x="108" y="460"/>
      <point x="115" y="440"/>
      <point x="120" y="415" type="curve" smooth="yes"/>
      <point x="128" y="377"/>
      <point x="178" y="138"/>
    </contour>
  </outline>
</glyph>
<glyph name="Iishorttail-cy" format="2">
  <advance width="785"/>
  <unicode hex="048A"/>
  <outline>
    <contour>
      <point x="602" y="-178" type="curve"/>
      <point x="643" y="-178" type="line"/>
      <point x="734" y="46" type="line"/>
      <point x="644" y="40" type="line"/>
      <point x="647" y="57"/>
      <point x="649" y="83"/>
      <point x="651" y="119" type="curve" smooth="yes"/>
      <point x="674" y="557" type="line" smooth="yes"/>
      <point x="678" y="628"/>
      <point x="684" y="664"/>
      <point x="749" y="667" type="curve"/>
      <point x="751" y="700" type="line"/>
      <point x="530" y="700" type="line"/>
      <point x="528" y="656" type="line"/>
      <point x="600" y="660" type="line"/>
      <point x="600" y="658"/>
      <point x="599" y="655"/>
      <point x="599" y="653" type="curve"/>
      <point x="199" y="126" type="line"/>
      <point x="222" y="556" type="line" smooth="yes"/>
      <point x="226" y="627"/>
      <point x="232" y="664"/>
      <point x="297" y="667" type="curve"/>
      <point x="299" y="700" type="line"/>
      <point x="78" y="700" type="line"/>
      <point x="76" y="656" type="line"/>
      <point x="148" y="660" type="line"/>
      <point x="145" y="640"/>
      <point x="143" y="615"/>
      <point x="141" y="588" type="curve" smooth="yes"/>
      <point x="118" y="156" type="line" smooth="yes"/>
      <point x="114" y="85"/>
      <point x="118" y="36"/>
      <point x="43" y="33" type="curve"/>
      <point x="41" y="0" type="line"/>
      <point x="262" y="0" type="line"/>
      <point x="264" y="44" type="line"/>
      <point x="192" y="40" type="line"/>
      <point x="192" y="42"/>
      <point x="193" y="45"/>
      <point x="193" y="48" type="curve"/>
      <point x="593" y="580" type="line"/>
      <point x="570" y="156" type="line" smooth="yes"/>
      <point x="567" y="85"/>
      <point x="570" y="36"/>
      <point x="495" y="33" type="curve"/>
      <point x="493" y="0" type="line"/>
      <point x="611" y="0" type="line" smooth="yes"/>
      <point x="651" y="0"/>
      <point x="646" y="-19"/>
    </contour>
    <contour>
      <point x="418" y="744" type="curve" smooth="yes"/>
      <point x="482" y="744"/>
      <point x="540" y="773"/>
      <point x="588" y="834" type="curve"/>
      <point x="548" y="862" type="line"/>
      <point x="535" y="832"/>
      <point x="517" y="808"/>
      <point x="499" y="796" type="curve" smooth="yes"/>
      <point x="482" y="785"/>
      <point x="460" y="783"/>
      <point x="438" y="783" type="curve" smooth="yes"/>
      <point x="409" y="783"/>
      <point x="393" y="789"/>
      <point x="378" y="803" type="curve"/>
      <point x="388" y="814"/>
      <point x="393" y="829"/>
      <point x="394" y="839" type="curve"/>
      <point x="394" y="857"/>
      <point x="384" y="884"/>
      <point x="348" y="883" type="curve" smooth="yes"/>
      <point x="323" y="883"/>
      <point x="298" y="868"/>
      <point x="295" y="833" type="curve" smooth="yes"/>
      <point x="290" y="773"/>
      <point x="353" y="744"/>
    </contour>
  </outline>
</glyph>
<glyph name="iishorttail-cy" format="2">
  <advance width="612"/>
  <unicode hex="048B"/>
  <outline>
    <contour>
      <point x="511" y="-212" type="line"/>
      <point x="596" y="-139"/>
      <point x="616" y="-70"/>
      <point x="581" y="-13" type="curve" smooth="yes"/>
      <point x="564" y="13"/>
      <point x="567" y="41"/>
      <point x="576" y="67" type="curve" smooth="yes"/>
      <point x="589" y="104" type="line"/>
      <point x="557" y="98" type="line"/>
      <point x="536" y="59" type="line"/>
      <point x="524" y="9" type="line"/>
      <point x="535" y="3" type="line"/>
      <point x="521" y="-20"/>
      <point x="512" y="-50"/>
      <point x="524" y="-78" type="curve" smooth="yes"/>
      <point x="533" y="-100"/>
      <point x="537" y="-128"/>
      <point x="488" y="-189" type="curve"/>
    </contour>
    <component base="brevecomb-cy" xOffset="63" yOffset="-1"/>
    <component base="ii-cy" xOffset="7"/>
  </outline>
</glyph>
<glyph name="Ertick-cy" format="2">
  <advance width="597"/>
  <unicode hex="048E"/>
  <outline>
    <contour>
      <point x="408" y="182" type="line"/>
      <point x="441" y="202" type="line"/>
      <point x="324" y="429" type="line"/>
      <point x="291" y="409" type="line"/>
    </contour>
    <component base="P"/>
  </outline>
</glyph>
<glyph name="ertick-cy" format="2">
  <advance width="518"/>
  <unicode hex="048F"/>
  <outline>
    <contour>
      <point x="395" y="-95" type="line"/>
      <point x="423" y="-74" type="line"/>
      <point x="275" y="142" type="line"/>
      <point x="247" y="121" type="line"/>
    </contour>
    <component base="p" xOffset="-11"/>
  </outline>
</glyph>
<glyph name="Gheupturn-cy" format="2">
  <advance width="541"/>
  <unicode hex="0490"/>
  <outline>
    <contour>
      <point x="41" y="0" type="line"/>
      <point x="292" y="0" type="line"/>
      <point x="294" y="44" type="line"/>
      <point x="192" y="40" type="line"/>
      <point x="195" y="57"/>
      <point x="198" y="83"/>
      <point x="199" y="119" type="curve" smooth="yes"/>
      <point x="222" y="552" type="line" smooth="yes"/>
      <point x="225" y="622"/>
      <point x="229" y="661"/>
      <point x="297" y="663" type="curve" smooth="yes"/>
      <point x="538" y="663" type="line"/>
      <point x="547" y="839" type="line"/>
      <point x="514" y="839" type="line"/>
      <point x="508" y="721"/>
      <point x="447" y="700"/>
      <point x="372" y="700" type="curve" smooth="yes"/>
      <point x="78" y="700" type="line"/>
      <point x="76" y="656" type="line"/>
      <point x="149" y="660" type="line"/>
      <point x="146" y="640"/>
      <point x="143" y="615"/>
      <point x="142" y="588" type="curve" smooth="yes"/>
      <point x="118" y="156" type="line" smooth="yes"/>
      <point x="115" y="85"/>
      <point x="118" y="36"/>
      <point x="43" y="33" type="curve"/>
    </contour>
  </outline>
</glyph>
<glyph name="Ghestroke-cy" format="2">
  <advance width="541"/>
  <unicode hex="0492"/>
  <guideline x="-105" y="371" angle="0"/>
  <guideline x="28" y="480" angle="90"/>
  <outline>
    <contour>
      <point x="36" y="326" type="line"/>
      <point x="362" y="330" type="line"/>
      <point x="364" y="373" type="line"/>
      <point x="38" y="373" type="line"/>
    </contour>
    <component base="Ge-cy"/>
  </outline>
</glyph>
<glyph name="ghestroke-cy" format="2">
  <advance width="454"/>
  <unicode hex="0493"/>
  <outline>
    <contour>
      <point x="41" y="0" type="line"/>
      <point x="238" y="0" type="line"/>
      <point x="240" y="41" type="line"/>
      <point x="177" y="38" type="line"/>
      <point x="182" y="61"/>
      <point x="184" y="79"/>
      <point x="185" y="106" type="curve" smooth="yes"/>
      <point x="198" y="351" type="line" smooth="yes"/>
      <point x="202" y="423"/>
      <point x="206" y="463"/>
      <point x="265" y="463" type="curve"/>
      <point x="306" y="463" type="line" smooth="yes"/>
      <point x="368" y="463"/>
      <point x="398" y="433"/>
      <point x="395" y="352" type="curve"/>
      <point x="433" y="352" type="line"/>
      <point x="437" y="500" type="line"/>
      <point x="68" y="500" type="line"/>
      <point x="66" y="462" type="line"/>
      <point x="87" y="463"/>
      <point x="108" y="464"/>
      <point x="129" y="465" type="curve"/>
      <point x="124" y="442"/>
      <point x="124" y="424"/>
      <point x="122" y="397" type="curve" smooth="yes"/>
      <point x="109" y="152" type="line" smooth="yes"/>
      <point x="106" y="80"/>
      <point x="104" y="30"/>
      <point x="43" y="30" type="curve"/>
    </contour>
    <component base="strokeshortcomb" xOffset="-70" yOffset="-70"/>
  </outline>
</glyph>
<glyph name="zhedescender-cy" format="2">
  <advance width="848"/>
  <unicode hex="0497"/>
  <outline>
    <contour>
      <point x="705" y="-211" type="line"/>
      <point x="790" y="-138"/>
      <point x="810" y="-69"/>
      <point x="775" y="-12" type="curve" smooth="yes"/>
      <point x="758" y="14"/>
      <point x="760" y="42"/>
      <point x="769" y="68" type="curve" smooth="yes"/>
      <point x="791" y="129" type="line"/>
      <point x="717" y="8" type="line"/>
      <point x="729" y="2" type="line"/>
      <point x="714" y="-21"/>
      <point x="706" y="-49"/>
      <point x="717" y="-77" type="curve" smooth="yes"/>
      <point x="727" y="-99"/>
      <point x="731" y="-127"/>
      <point x="682" y="-188" type="curve"/>
    </contour>
    <component base="zhe-cy"/>
  </outline>
</glyph>
<glyph name="Zedescender-cy" format="2">
  <advance width="595"/>
  <unicode hex="0498"/>
  <outline>
    <contour>
      <point x="236" y="-186" type="line" smooth="yes"/>
      <point x="302" y="-186" type="line"/>
      <point x="301" y="0" type="line"/>
      <point x="246" y="-1" type="line"/>
    </contour>
    <component base="Ze-cy"/>
  </outline>
</glyph>
<glyph name="kaverticalstroke-cy" format="2">
  <advance width="594"/>
  <unicode hex="049D"/>
  <outline>
    <contour>
      <point x="458" y="-11" type="curve" smooth="yes"/>
      <point x="525" y="-11"/>
      <point x="559" y="45"/>
      <point x="571" y="102" type="curve"/>
      <point x="543" y="107" type="line"/>
      <point x="531" y="58"/>
      <point x="515" y="43"/>
      <point x="494" y="45" type="curve" smooth="yes"/>
      <point x="465" y="48"/>
      <point x="459" y="75"/>
      <point x="452" y="145" type="curve" smooth="yes"/>
      <point x="445" y="211"/>
      <point x="413" y="263"/>
      <point x="327" y="263" type="curve"/>
      <point x="327" y="272" type="line"/>
      <point x="174" y="272" type="line"/>
      <point x="173" y="243" type="line"/>
      <point x="300" y="244" type="line" smooth="yes"/>
      <point x="348" y="244"/>
      <point x="368" y="214"/>
      <point x="376" y="120" type="curve" smooth="yes"/>
      <point x="385" y="15"/>
      <point x="412" y="-11"/>
    </contour>
    <contour>
      <point x="101" y="0" type="curve"/>
      <point x="184" y="0" type="line"/>
      <point x="183" y="20"/>
      <point x="182" y="39"/>
      <point x="182" y="55" type="curve" smooth="yes"/>
      <point x="181" y="99"/>
      <point x="187" y="189"/>
      <point x="211" y="346" type="curve" smooth="yes"/>
      <point x="227" y="450"/>
      <point x="220" y="511"/>
      <point x="146" y="511" type="curve" smooth="yes"/>
      <point x="66" y="511"/>
      <point x="23" y="417"/>
      <point x="13" y="370" type="curve"/>
      <point x="41" y="364" type="line"/>
      <point x="62" y="435"/>
      <point x="94" y="461"/>
      <point x="116" y="461" type="curve" smooth="yes"/>
      <point x="144" y="461"/>
      <point x="143" y="430"/>
      <point x="142" y="403" type="curve" smooth="yes"/>
      <point x="141" y="382"/>
      <point x="136" y="361"/>
      <point x="120" y="231" type="curve" smooth="yes"/>
      <point x="104" y="105"/>
      <point x="101" y="60"/>
      <point x="101" y="26" type="curve" smooth="yes"/>
      <point x="100" y="15"/>
      <point x="100" y="9"/>
    </contour>
    <contour>
      <point x="253" y="254" type="line"/>
      <point x="298" y="254" type="line"/>
      <point x="343" y="254"/>
      <point x="383" y="299"/>
      <point x="406" y="363" type="curve" smooth="yes"/>
      <point x="425" y="414"/>
      <point x="437" y="435"/>
      <point x="456" y="447" type="curve"/>
      <point x="459" y="420"/>
      <point x="478" y="405"/>
      <point x="511" y="405" type="curve" smooth="yes"/>
      <point x="541" y="405"/>
      <point x="558" y="429"/>
      <point x="558" y="456" type="curve" smooth="yes"/>
      <point x="558" y="489"/>
      <point x="537" y="511"/>
      <point x="502" y="511" type="curve" smooth="yes"/>
      <point x="441" y="511"/>
      <point x="406" y="475"/>
      <point x="371" y="380" type="curve" smooth="yes"/>
      <point x="341" y="300"/>
      <point x="312" y="272"/>
      <point x="253" y="272" type="curve"/>
    </contour>
    <component base="verticalbar-cy" xOffset="161" yOffset="44"/>
  </outline>
</glyph>
<glyph name="kastroke-cy" format="2">
  <advance width="539"/>
  <unicode hex="049F"/>
  <outline>
    <contour>
      <point x="75" y="0" type="curve"/>
      <point x="157" y="0" type="line"/>
      <point x="156" y="17"/>
      <point x="155" y="33"/>
      <point x="155" y="53" type="curve" smooth="yes"/>
      <point x="155" y="203"/>
      <point x="184" y="492"/>
      <point x="196" y="585" type="curve" smooth="yes"/>
      <point x="202" y="630"/>
      <point x="211" y="705"/>
      <point x="221" y="755" type="curve"/>
      <point x="192" y="755" type="line"/>
      <point x="176" y="741"/>
      <point x="155" y="728"/>
      <point x="67" y="728" type="curve"/>
      <point x="63" y="688" type="line"/>
      <point x="86" y="689"/>
      <point x="110" y="691"/>
      <point x="133" y="692" type="curve"/>
      <point x="130" y="675"/>
      <point x="129" y="673"/>
      <point x="124" y="639" type="curve" smooth="yes"/>
      <point x="100" y="482"/>
      <point x="74" y="118"/>
      <point x="74" y="26" type="curve" smooth="yes"/>
      <point x="74" y="15"/>
      <point x="74" y="9"/>
    </contour>
    <contour>
      <point x="403" y="-11" type="curve" smooth="yes"/>
      <point x="470" y="-11"/>
      <point x="504" y="45"/>
      <point x="516" y="102" type="curve"/>
      <point x="488" y="107" type="line"/>
      <point x="476" y="58"/>
      <point x="460" y="43"/>
      <point x="439" y="45" type="curve" smooth="yes"/>
      <point x="410" y="48"/>
      <point x="404" y="75"/>
      <point x="397" y="145" type="curve" smooth="yes"/>
      <point x="390" y="211"/>
      <point x="358" y="263"/>
      <point x="272" y="263" type="curve"/>
      <point x="272" y="272" type="line"/>
      <point x="139" y="272" type="line"/>
      <point x="138" y="243" type="line"/>
      <point x="245" y="244" type="line" smooth="yes"/>
      <point x="293" y="244"/>
      <point x="313" y="214"/>
      <point x="321" y="120" type="curve" smooth="yes"/>
      <point x="330" y="15"/>
      <point x="357" y="-11"/>
    </contour>
    <contour>
      <point x="198" y="254" type="line"/>
      <point x="243" y="254" type="line"/>
      <point x="288" y="254"/>
      <point x="328" y="299"/>
      <point x="351" y="363" type="curve" smooth="yes"/>
      <point x="370" y="414"/>
      <point x="382" y="435"/>
      <point x="401" y="447" type="curve"/>
      <point x="404" y="420"/>
      <point x="423" y="405"/>
      <point x="456" y="405" type="curve" smooth="yes"/>
      <point x="486" y="405"/>
      <point x="503" y="429"/>
      <point x="503" y="456" type="curve" smooth="yes"/>
      <point x="503" y="489"/>
      <point x="482" y="511"/>
      <point x="447" y="511" type="curve" smooth="yes"/>
      <point x="386" y="511"/>
      <point x="351" y="475"/>
      <point x="316" y="380" type="curve" smooth="yes"/>
      <point x="286" y="300"/>
      <point x="257" y="272"/>
      <point x="198" y="272" type="curve"/>
    </contour>
    <contour>
      <point x="45" y="537" type="line"/>
      <point x="337" y="541" type="line"/>
      <point x="339" y="580" type="line"/>
      <point x="47" y="580" type="line"/>
    </contour>
  </outline>
</glyph>
<glyph name="Kabashkir-cy" format="2">
  <advance width="790"/>
  <unicode hex="04A0"/>
  <outline>
    <contour>
      <point x="160" y="0" type="line"/>
      <point x="385" y="0" type="line"/>
      <point x="387" y="44" type="line"/>
      <point x="363" y="43"/>
      <point x="339" y="41"/>
      <point x="315" y="40" type="curve"/>
      <point x="318" y="57"/>
      <point x="320" y="83"/>
      <point x="322" y="119" type="curve" smooth="yes"/>
      <point x="334" y="340" type="line"/>
      <point x="383" y="341" type="line"/>
      <point x="406" y="326"/>
      <point x="430" y="293"/>
      <point x="454" y="260" type="curve" smooth="yes"/>
      <point x="565" y="98" type="line" smooth="yes"/>
      <point x="601" y="47"/>
      <point x="641" y="0"/>
      <point x="661" y="0" type="curve" smooth="yes"/>
      <point x="783" y="0" type="line"/>
      <point x="785" y="33" type="line"/>
      <point x="742" y="33"/>
      <point x="714" y="41"/>
      <point x="643" y="142" type="curve" smooth="yes"/>
      <point x="539" y="291" type="line" smooth="yes"/>
      <point x="517" y="322"/>
      <point x="497" y="353"/>
      <point x="461" y="376" type="curve"/>
      <point x="567" y="532" type="line" smooth="yes"/>
      <point x="641" y="641"/>
      <point x="692" y="660"/>
      <point x="776" y="667" type="curve"/>
      <point x="778" y="700" type="line"/>
      <point x="563" y="700" type="line"/>
      <point x="561" y="659" type="line"/>
      <point x="581" y="660"/>
      <point x="602" y="660"/>
      <point x="622" y="661" type="curve"/>
      <point x="593" y="639"/>
      <point x="565" y="603"/>
      <point x="546" y="577" type="curve" smooth="yes"/>
      <point x="411" y="380" type="line"/>
      <point x="336" y="380" type="line"/>
      <point x="345" y="544" type="line" smooth="yes"/>
      <point x="348" y="615"/>
      <point x="345" y="664"/>
      <point x="420" y="667" type="curve"/>
      <point x="422" y="700" type="line"/>
      <point x="53" y="700" type="line"/>
      <point x="36" y="489" type="line"/>
      <point x="73" y="489" type="line"/>
      <point x="79" y="607"/>
      <point x="113" y="659"/>
      <point x="197" y="659" type="curve" smooth="yes"/>
      <point x="267" y="660" type="line"/>
      <point x="264" y="640"/>
      <point x="261" y="615"/>
      <point x="260" y="588" type="curve" smooth="yes"/>
      <point x="237" y="156" type="line" smooth="yes"/>
      <point x="233" y="85"/>
      <point x="237" y="36"/>
      <point x="162" y="33" type="curve"/>
    </contour>
  </outline>
</glyph>
<glyph name="kabashkir-cy" format="2">
  <advance width="626"/>
  <unicode hex="04A1"/>
  <outline>
    <contour>
      <point x="153" y="0" type="curve"/>
      <point x="236" y="0" type="line"/>
      <point x="235" y="20"/>
      <point x="234" y="39"/>
      <point x="234" y="55" type="curve" smooth="yes"/>
      <point x="233" y="99"/>
      <point x="240" y="189"/>
      <point x="263" y="346" type="curve" smooth="yes"/>
      <point x="270" y="393"/>
      <point x="276" y="458"/>
      <point x="284" y="486" type="curve"/>
      <point x="256" y="513" type="line"/>
      <point x="241" y="505"/>
      <point x="220" y="501"/>
      <point x="194" y="501" type="curve" smooth="yes"/>
      <point x="148" y="501"/>
      <point x="115" y="510"/>
      <point x="63" y="510" type="curve" smooth="yes"/>
      <point x="-11" y="510"/>
      <point x="-42" y="462"/>
      <point x="-17" y="377" type="curve"/>
      <point x="8" y="381" type="line"/>
      <point x="-3" y="425"/>
      <point x="13" y="449"/>
      <point x="47" y="449" type="curve" smooth="yes"/>
      <point x="96" y="449"/>
      <point x="121" y="441"/>
      <point x="144" y="441" type="curve" smooth="yes"/>
      <point x="168" y="441"/>
      <point x="185" y="447"/>
      <point x="197" y="455" type="curve"/>
      <point x="193" y="408"/>
      <point x="190" y="375"/>
      <point x="172" y="231" type="curve" smooth="yes"/>
      <point x="156" y="105"/>
      <point x="153" y="60"/>
      <point x="153" y="26" type="curve" smooth="yes"/>
      <point x="152" y="15"/>
      <point x="152" y="9"/>
    </contour>
    <contour>
      <point x="490" y="-11" type="curve" smooth="yes"/>
      <point x="557" y="-11"/>
      <point x="591" y="45"/>
      <point x="603" y="102" type="curve"/>
      <point x="575" y="107" type="line"/>
      <point x="563" y="58"/>
      <point x="547" y="43"/>
      <point x="526" y="45" type="curve" smooth="yes"/>
      <point x="497" y="48"/>
      <point x="491" y="75"/>
      <point x="484" y="145" type="curve" smooth="yes"/>
      <point x="477" y="211"/>
      <point x="445" y="263"/>
      <point x="359" y="263" type="curve"/>
      <point x="359" y="272" type="line"/>
      <point x="226" y="272" type="line"/>
      <point x="225" y="243" type="line"/>
      <point x="332" y="244" type="line" smooth="yes"/>
      <point x="380" y="244"/>
      <point x="400" y="214"/>
      <point x="408" y="120" type="curve" smooth="yes"/>
      <point x="417" y="15"/>
      <point x="444" y="-11"/>
    </contour>
    <contour>
      <point x="285" y="254" type="line"/>
      <point x="330" y="254" type="line"/>
      <point x="375" y="254"/>
      <point x="415" y="299"/>
      <point x="438" y="363" type="curve" smooth="yes"/>
      <point x="457" y="414"/>
      <point x="469" y="435"/>
      <point x="488" y="447" type="curve"/>
      <point x="491" y="420"/>
      <point x="510" y="405"/>
      <point x="543" y="405" type="curve" smooth="yes"/>
      <point x="573" y="405"/>
      <point x="590" y="429"/>
      <point x="590" y="456" type="curve" smooth="yes"/>
      <point x="590" y="489"/>
      <point x="569" y="511"/>
      <point x="534" y="511" type="curve" smooth="yes"/>
      <point x="473" y="511"/>
      <point x="438" y="475"/>
      <point x="403" y="380" type="curve" smooth="yes"/>
      <point x="373" y="300"/>
      <point x="344" y="272"/>
      <point x="285" y="272" type="curve"/>
    </contour>
  </outline>
</glyph>
<glyph name="Endescender-cy" format="2">
  <advance width="767"/>
  <unicode hex="04A2"/>
  <outline>
    <contour>
      <point x="662" y="-177" type="curve"/>
      <point x="704" y="-177" type="line"/>
      <point x="716" y="45" type="line"/>
      <point x="633" y="40" type="line"/>
      <point x="590" y="0" type="line"/>
      <point x="656" y="0"/>
      <point x="668" y="-63"/>
    </contour>
    <component base="En-cy"/>
  </outline>
</glyph>
<glyph name="Haabkhasian-cy" format="2">
  <advance width="757"/>
  <unicode hex="04A8"/>
  <outline>
    <contour>
      <point x="380" y="-16" type="curve" smooth="yes"/>
      <point x="420" y="-16"/>
      <point x="457" y="-8"/>
      <point x="491" y="6" type="curve"/>
      <point x="529" y="-8"/>
      <point x="574" y="-16"/>
      <point x="624" y="-16" type="curve" smooth="yes"/>
      <point x="665" y="-16"/>
      <point x="695" y="-4"/>
      <point x="719" y="10" type="curve"/>
      <point x="705" y="45" type="line"/>
      <point x="660" y="20"/>
      <point x="593" y="22"/>
      <point x="551" y="37" type="curve"/>
      <point x="551" y="39" type="line"/>
      <point x="658" y="113"/>
      <point x="717" y="248"/>
      <point x="721" y="329" type="curve" smooth="yes"/>
      <point x="729" y="492"/>
      <point x="650" y="567"/>
      <point x="522" y="566" type="curve" smooth="yes"/>
      <point x="410" y="565"/>
      <point x="308" y="475"/>
      <point x="298" y="301" type="curve" smooth="yes"/>
      <point x="292" y="198"/>
      <point x="345" y="94"/>
      <point x="440" y="34" type="curve"/>
      <point x="440" y="31" type="line"/>
      <point x="423" y="27"/>
      <point x="404" y="24"/>
      <point x="384" y="24" type="curve" smooth="yes"/>
      <point x="205" y="24"/>
      <point x="145" y="180"/>
      <point x="145" y="324" type="curve" smooth="yes"/>
      <point x="145" y="546"/>
      <point x="282" y="673"/>
      <point x="430" y="673" type="curve" smooth="yes"/>
      <point x="463" y="673"/>
      <point x="515" y="666"/>
      <point x="558" y="643" type="curve"/>
      <point x="576" y="676" type="line"/>
      <point x="532" y="702"/>
      <point x="471" y="716"/>
      <point x="417" y="716" type="curve" smooth="yes"/>
      <point x="191" y="716"/>
      <point x="49" y="523"/>
      <point x="49" y="318" type="curve" smooth="yes"/>
      <point x="49" y="149"/>
      <point x="136" y="-16"/>
    </contour>
    <contour>
      <point x="504" y="63" type="curve"/>
      <point x="419" y="121"/>
      <point x="387" y="239"/>
      <point x="392" y="323" type="curve" smooth="yes"/>
      <point x="400" y="463"/>
      <point x="451" y="527"/>
      <point x="520" y="527" type="curve" smooth="yes"/>
      <point x="583" y="527"/>
      <point x="639" y="486"/>
      <point x="628" y="327" type="curve" smooth="yes"/>
      <point x="623" y="256"/>
      <point x="591" y="127"/>
    </contour>
  </outline>
</glyph>
<glyph name="haabkhasian-cy" format="2">
  <advance width="650"/>
  <unicode hex="04A9"/>
  <outline>
    <contour>
      <point x="300" y="-17" type="curve" smooth="yes"/>
      <point x="338" y="-17"/>
      <point x="374" y="-10"/>
      <point x="409" y="2" type="curve"/>
      <point x="441" y="-10"/>
      <point x="476" y="-17"/>
      <point x="511" y="-17" type="curve" smooth="yes"/>
      <point x="552" y="-17"/>
      <point x="589" y="-5"/>
      <point x="612" y="9" type="curve"/>
      <point x="597" y="43" type="line"/>
      <point x="553" y="19"/>
      <point x="504" y="16"/>
      <point x="464" y="28" type="curve"/>
      <point x="464" y="30" type="line"/>
      <point x="543" y="77"/>
      <point x="602" y="153"/>
      <point x="606" y="235" type="curve" smooth="yes"/>
      <point x="612" y="347"/>
      <point x="545" y="415"/>
      <point x="451" y="415" type="curve" smooth="yes"/>
      <point x="345" y="415"/>
      <point x="267" y="352"/>
      <point x="261" y="233" type="curve" smooth="yes"/>
      <point x="256" y="141"/>
      <point x="302" y="72"/>
      <point x="364" y="31" type="curve"/>
      <point x="364" y="29" type="line"/>
      <point x="355" y="26"/>
      <point x="337" y="24"/>
      <point x="324" y="24" type="curve" smooth="yes"/>
      <point x="200" y="24"/>
      <point x="124" y="129"/>
      <point x="130" y="253" type="curve" smooth="yes"/>
      <point x="137" y="372"/>
      <point x="219" y="474"/>
      <point x="330" y="474" type="curve" smooth="yes"/>
      <point x="371" y="474"/>
      <point x="410" y="466"/>
      <point x="446" y="453" type="curve"/>
      <point x="461" y="487" type="line"/>
      <point x="417" y="504"/>
      <point x="365" y="512"/>
      <point x="322" y="512" type="curve" smooth="yes"/>
      <point x="175" y="512"/>
      <point x="50" y="418"/>
      <point x="41" y="251" type="curve" smooth="yes"/>
      <point x="33" y="86"/>
      <point x="130" y="-17"/>
    </contour>
    <contour>
      <point x="419" y="51" type="curve"/>
      <point x="371" y="84"/>
      <point x="342" y="145"/>
      <point x="346" y="233" type="curve" smooth="yes"/>
      <point x="351" y="320"/>
      <point x="389" y="376"/>
      <point x="441" y="376" type="curve" smooth="yes"/>
      <point x="498" y="376"/>
      <point x="523" y="320"/>
      <point x="518" y="236" type="curve" smooth="yes"/>
      <point x="514" y="155"/>
      <point x="477" y="87"/>
    </contour>
  </outline>
</glyph>
<glyph name="tedescender-cy" format="2">
  <advance width="885"/>
  <unicode hex="04AD"/>
  <outline>
    <contour>
      <point x="776" y="-212" type="line"/>
      <point x="861" y="-139"/>
      <point x="881" y="-70"/>
      <point x="846" y="-13" type="curve" smooth="yes"/>
      <point x="830" y="13"/>
      <point x="832" y="41"/>
      <point x="841" y="67" type="curve"/>
      <point x="814" y="67" type="line"/>
      <point x="789" y="7" type="line"/>
      <point x="800" y="1" type="line"/>
      <point x="786" y="-22"/>
      <point x="777" y="-50"/>
      <point x="789" y="-78" type="curve" smooth="yes"/>
      <point x="798" y="-100"/>
      <point x="802" y="-128"/>
      <point x="753" y="-189" type="curve"/>
    </contour>
    <component base="m"/>
  </outline>
</glyph>
<glyph name="ustraight-cy" format="2">
  <advance width="483"/>
  <unicode hex="04AF"/>
  <anchor x="266" y="0" name="center"/>
  <outline>
    <contour>
      <point x="164" y="-255" type="line"/>
      <point x="353" y="-255" type="line"/>
      <point x="353" y="-214" type="line"/>
      <point x="290" y="-217" type="line"/>
      <point x="295" y="-197"/>
      <point x="297" y="-143"/>
      <point x="304" y="0" type="curve"/>
      <point x="380" y="133"/>
      <point x="449" y="243"/>
      <point x="449" y="383" type="curve" smooth="yes"/>
      <point x="449" y="446"/>
      <point x="430" y="511"/>
      <point x="369" y="511" type="curve" smooth="yes"/>
      <point x="345" y="511"/>
      <point x="322" y="496"/>
      <point x="322" y="467" type="curve" smooth="yes"/>
      <point x="322" y="446"/>
      <point x="338" y="428"/>
      <point x="362" y="428" type="curve" smooth="yes"/>
      <point x="372" y="428"/>
      <point x="381" y="430"/>
      <point x="387" y="434" type="curve"/>
      <point x="395" y="423"/>
      <point x="402" y="396"/>
      <point x="402" y="363" type="curve" smooth="yes"/>
      <point x="402" y="254"/>
      <point x="341" y="140"/>
      <point x="290" y="52" type="curve"/>
      <point x="288" y="52" type="line"/>
      <point x="272" y="163"/>
      <point x="246" y="267"/>
      <point x="197" y="398" type="curve" smooth="yes"/>
      <point x="179" y="447"/>
      <point x="151" y="511"/>
      <point x="84" y="511" type="curve" smooth="yes"/>
      <point x="2" y="511"/>
      <point x="-14" y="410"/>
      <point x="-7" y="338" type="curve"/>
      <point x="25" y="342" type="line"/>
      <point x="19" y="403"/>
      <point x="34" y="443"/>
      <point x="59" y="446" type="curve" smooth="yes"/>
      <point x="85" y="449"/>
      <point x="100" y="417"/>
      <point x="110" y="395" type="curve" smooth="yes"/>
      <point x="171" y="248"/>
      <point x="197" y="138"/>
      <point x="224" y="8" type="curve"/>
      <point x="224" y="-30"/>
      <point x="224" y="-68"/>
      <point x="224" y="-106" type="curve" smooth="yes"/>
      <point x="224" y="-189"/>
      <point x="208" y="-225"/>
      <point x="164" y="-225" type="curve"/>
    </contour>
  </outline>
</glyph>
<glyph name="hadescender-cy" format="2">
  <advance width="545"/>
  <unicode hex="04B3"/>
  <outline>
    <contour>
      <point x="429" y="-212" type="line"/>
      <point x="514" y="-139"/>
      <point x="534" y="-70"/>
      <point x="499" y="-13" type="curve" smooth="yes"/>
      <point x="483" y="13"/>
      <point x="485" y="41"/>
      <point x="494" y="67" type="curve"/>
      <point x="467" y="67" type="line"/>
      <point x="442" y="7" type="line"/>
      <point x="453" y="1" type="line"/>
      <point x="439" y="-22"/>
      <point x="430" y="-50"/>
      <point x="442" y="-78" type="curve" smooth="yes"/>
      <point x="451" y="-100"/>
      <point x="455" y="-128"/>
      <point x="406" y="-189" type="curve"/>
    </contour>
    <component base="ha-cy"/>
  </outline>
</glyph>
<glyph name="Chedescender-cy" format="2">
  <advance width="690"/>
  <unicode hex="04B6"/>
  <outline>
    <contour>
      <point x="585" y="-177" type="curve"/>
      <point x="627" y="-177" type="line"/>
      <point x="639" y="45" type="line"/>
      <point x="556" y="40" type="line"/>
      <point x="513" y="0" type="line"/>
      <point x="579" y="0"/>
      <point x="591" y="-63"/>
    </contour>
    <component base="Che-cy"/>
  </outline>
</glyph>
<glyph name="cheverticalstroke-cy" format="2">
  <advance width="582"/>
  <unicode hex="04B9"/>
  <outline>
    <contour>
      <point x="247" y="184" type="curve" smooth="yes"/>
      <point x="295" y="184"/>
      <point x="350" y="203"/>
      <point x="408" y="265" type="curve"/>
      <point x="397" y="281" type="line"/>
      <point x="359" y="252"/>
      <point x="312" y="231"/>
      <point x="271" y="231" type="curve" smooth="yes"/>
      <point x="227" y="231"/>
      <point x="215" y="256"/>
      <point x="219" y="308" type="curve" smooth="yes"/>
      <point x="221" y="341"/>
      <point x="229" y="374"/>
      <point x="232" y="409" type="curve" smooth="yes"/>
      <point x="237" y="475"/>
      <point x="221" y="511"/>
      <point x="167" y="511" type="curve" smooth="yes"/>
      <point x="78" y="511"/>
      <point x="29" y="417"/>
      <point x="18" y="371" type="curve"/>
      <point x="46" y="364" type="line"/>
      <point x="70" y="436"/>
      <point x="103" y="461"/>
      <point x="127" y="461" type="curve" smooth="yes"/>
      <point x="164" y="461"/>
      <point x="144" y="424"/>
      <point x="137" y="320" type="curve" smooth="yes"/>
      <point x="131" y="236"/>
      <point x="167" y="184"/>
    </contour>
    <contour>
      <point x="439" y="-11" type="curve" smooth="yes"/>
      <point x="520" y="-11"/>
      <point x="561" y="83"/>
      <point x="569" y="130" type="curve"/>
      <point x="542" y="136" type="line"/>
      <point x="521" y="65"/>
      <point x="490" y="40"/>
      <point x="468" y="40" type="curve" smooth="yes"/>
      <point x="447" y="40"/>
      <point x="441" y="60"/>
      <point x="441" y="84" type="curve" smooth="yes"/>
      <point x="441" y="146"/>
      <point x="480" y="398"/>
      <point x="480" y="474" type="curve" smooth="yes"/>
      <point x="480" y="485"/>
      <point x="480" y="491"/>
      <point x="479" y="500" type="curve"/>
      <point x="396" y="500" type="line"/>
      <point x="396" y="480"/>
      <point x="397" y="462"/>
      <point x="397" y="442" type="curve" smooth="yes"/>
      <point x="397" y="323"/>
      <point x="362" y="147"/>
      <point x="362" y="79" type="curve" smooth="yes"/>
      <point x="362" y="25"/>
      <point x="385" y="-11"/>
    </contour>
    <contour>
      <point x="271" y="112" type="line"/>
      <point x="307" y="112" type="line"/>
      <point x="319" y="342" type="line"/>
      <point x="283" y="342" type="line"/>
    </contour>
  </outline>
</glyph>
<glyph name="Cheabkhasian-cy" format="2">
  <advance width="813"/>
  <unicode hex="04BC"/>
  <outline>
    <contour>
      <point x="454" y="-17" type="curve" smooth="yes"/>
      <point x="539" y="-17"/>
      <point x="659" y="11"/>
      <point x="754" y="130" type="curve"/>
      <point x="727" y="155" type="line"/>
      <point x="667" y="80"/>
      <point x="573" y="44"/>
      <point x="482" y="44" type="curve" smooth="yes"/>
      <point x="320" y="44"/>
      <point x="221" y="156"/>
      <point x="231" y="347" type="curve" smooth="yes"/>
      <point x="244" y="595"/>
      <point x="385" y="675"/>
      <point x="483" y="675" type="curve" smooth="yes"/>
      <point x="635" y="675"/>
      <point x="699" y="531"/>
      <point x="671" y="351" type="curve"/>
      <point x="767" y="352" type="line"/>
      <point x="769" y="372"/>
      <point x="769" y="378"/>
      <point x="770" y="388" type="curve" smooth="yes"/>
      <point x="779" y="539"/>
      <point x="723" y="716"/>
      <point x="483" y="716" type="curve" smooth="yes"/>
      <point x="284" y="716"/>
      <point x="146" y="543"/>
      <point x="135" y="332" type="curve" smooth="yes"/>
      <point x="126" y="162"/>
      <point x="216" y="-17"/>
    </contour>
    <contour>
      <point x="186" y="351" type="curve" smooth="yes"/>
      <point x="687" y="351" type="line"/>
      <point x="690" y="395" type="line"/>
      <point x="184" y="391" type="line" smooth="yes"/>
      <point x="73" y="390"/>
      <point x="28" y="426"/>
      <point x="30" y="457" type="curve" smooth="yes"/>
      <point x="30" y="463"/>
      <point x="32" y="468"/>
      <point x="37" y="474" type="curve"/>
      <point x="43" y="467"/>
      <point x="53" y="464"/>
      <point x="58" y="464" type="curve" smooth="yes"/>
      <point x="78" y="464"/>
      <point x="107" y="479"/>
      <point x="109" y="512" type="curve" smooth="yes"/>
      <point x="110" y="539"/>
      <point x="93" y="561"/>
      <point x="57" y="561" type="curve" smooth="yes"/>
      <point x="14" y="561"/>
      <point x="-18" y="518"/>
      <point x="-18" y="474" type="curve" smooth="yes"/>
      <point x="-18" y="399"/>
      <point x="46" y="351"/>
    </contour>
  </outline>
</glyph>
